<?xml version="1.0" encoding="utf-8" standalone="no"?>
<!DOCTYPE svg PUBLIC "-//W3C//DTD SVG 1.1//EN"
  "http://www.w3.org/Graphics/SVG/1.1/DTD/svg11.dtd">
<svg xmlns:xlink="http://www.w3.org/1999/xlink" width="1152pt" height="195.12pt" viewBox="0 0 1152 195.12" xmlns="http://www.w3.org/2000/svg" version="1.1">
 <metadata>
  <rdf:RDF xmlns:dc="http://purl.org/dc/elements/1.1/" xmlns:cc="http://creativecommons.org/ns#" xmlns:rdf="http://www.w3.org/1999/02/22-rdf-syntax-ns#">
   <cc:Work>
    <dc:type rdf:resource="http://purl.org/dc/dcmitype/StillImage"/>
    <dc:date>2023-08-01T10:52:51.457390</dc:date>
    <dc:format>image/svg+xml</dc:format>
    <dc:creator>
     <cc:Agent>
      <dc:title>Matplotlib v3.6.2, https://matplotlib.org/</dc:title>
     </cc:Agent>
    </dc:creator>
   </cc:Work>
  </rdf:RDF>
 </metadata>
 <defs>
  <style type="text/css">*{stroke-linejoin: round; stroke-linecap: butt}</style>
 </defs>
 <g id="figure_1">
  <g id="patch_1">
   <path d="M 0 195.12 
L 1152 195.12 
L 1152 0 
L 0 0 
z
" style="fill: #ffffff"/>
  </g>
  <g id="axes_1">
   <g id="patch_2">
    <path d="M 65.018 149.56 
L 260.692185 149.56 
L 260.692185 40.63212 
L 65.018 40.63212 
z
" style="fill: #ffffff"/>
   </g>
   <g id="patch_3">
    <path d="M 73.912281 149.56 
L 73.912281 40.63212 
L 161.347587 40.63212 
L 161.347587 149.56 
z
" clip-path="url(#p089d4adbad)" style="fill: #008bc8; opacity: 0.5"/>
   </g>
   <g id="patch_4">
    <path d="M 164.362598 149.56 
L 164.362598 40.63212 
L 251.797904 40.63212 
L 251.797904 149.56 
z
" clip-path="url(#p089d4adbad)" style="fill: #808080; opacity: 0.5"/>
   </g>
   <g id="PolyCollection_1">
    <defs>
     <path id="m409511bdfa" d="M 73.912281 -85.685243 
L 73.912281 -94.903228 
L 76.927292 -90.362585 
L 79.942302 -88.541561 
L 82.957313 -91.72611 
L 85.972323 -89.606638 
L 88.987334 -87.998376 
L 92.002345 -89.27941 
L 95.017355 -94.549043 
L 98.032366 -92.485192 
L 101.047376 -96.192879 
L 104.062387 -96.220343 
L 107.077397 -95.208556 
L 110.092408 -93.118309 
L 113.107418 -92.706273 
L 116.122429 -90.601224 
L 119.13744 -92.167538 
L 122.15245 -91.393538 
L 125.167461 -93.384094 
L 128.182471 -93.60418 
L 131.197482 -90.202596 
L 134.212492 -94.743088 
L 137.227503 -95.538868 
L 140.242513 -97.271674 
L 143.257524 -94.342267 
L 146.272535 -95.855866 
L 149.287545 -97.269369 
L 152.302556 -97.323263 
L 155.317566 -96.466676 
L 158.332577 -94.231246 
L 161.347587 -101.06276 
L 164.362598 -106.069061 
L 167.377608 -107.702914 
L 170.392619 -109.45182 
L 173.40763 -115.059324 
L 176.42264 -107.712389 
L 179.437651 -114.641894 
L 182.452661 -113.921255 
L 185.467672 -117.069228 
L 188.482682 -113.313725 
L 191.497693 -116.188684 
L 194.512704 -111.745843 
L 197.527714 -115.205757 
L 200.542725 -119.711094 
L 203.557735 -117.37713 
L 206.572746 -116.228473 
L 209.587756 -116.513425 
L 212.602767 -115.341425 
L 215.617777 -118.916875 
L 218.632788 -119.071274 
L 221.647799 -118.654824 
L 224.662809 -115.948479 
L 227.67782 -119.428727 
L 230.69283 -119.83698 
L 233.707841 -117.833314 
L 236.722851 -125.377154 
L 239.737862 -123.667647 
L 242.752872 -120.468417 
L 245.767883 -119.551809 
L 248.782894 -114.466328 
L 251.797904 -111.37357 
L 251.797904 -100.977121 
L 251.797904 -100.977121 
L 248.782894 -104.623361 
L 245.767883 -109.738638 
L 242.752872 -109.779342 
L 239.737862 -112.928765 
L 236.722851 -114.193927 
L 233.707841 -107.375186 
L 230.69283 -109.280465 
L 227.67782 -108.311765 
L 224.662809 -106.232083 
L 221.647799 -108.627698 
L 218.632788 -107.814261 
L 215.617777 -108.098144 
L 212.602767 -105.67234 
L 209.587756 -105.691112 
L 206.572746 -105.252265 
L 203.557735 -106.269681 
L 200.542725 -109.326267 
L 197.527714 -105.908721 
L 194.512704 -102.165026 
L 191.497693 -106.966574 
L 188.482682 -103.684158 
L 185.467672 -105.196144 
L 182.452661 -104.906358 
L 179.437651 -103.930901 
L 176.42264 -100.104614 
L 173.40763 -105.636284 
L 170.392619 -99.945396 
L 167.377608 -96.168781 
L 164.362598 -97.438815 
L 161.347587 -91.337554 
L 158.332577 -86.558437 
L 155.317566 -87.26103 
L 152.302556 -88.290115 
L 149.287545 -88.101208 
L 146.272535 -85.783105 
L 143.257524 -85.852692 
L 140.242513 -88.233664 
L 137.227503 -85.70288 
L 134.212492 -86.008051 
L 131.197482 -82.118828 
L 128.182471 -85.139842 
L 125.167461 -84.312496 
L 122.15245 -83.251176 
L 119.13744 -84.278378 
L 116.122429 -80.950493 
L 113.107418 -83.943589 
L 110.092408 -83.634481 
L 107.077397 -87.22458 
L 104.062387 -87.272646 
L 101.047376 -85.980265 
L 98.032366 -83.879041 
L 95.017355 -85.189839 
L 92.002345 -81.701834 
L 88.987334 -79.925125 
L 85.972323 -82.464784 
L 82.957313 -82.913874 
L 79.942302 -79.372917 
L 76.927292 -82.05485 
L 73.912281 -85.685243 
z
" style="stroke: #2c4251; stroke-opacity: 0.5"/>
    </defs>
    <g clip-path="url(#p089d4adbad)">
     <use xlink:href="#m409511bdfa" x="0" y="195.12" style="fill: #2c4251; fill-opacity: 0.5; stroke: #2c4251; stroke-opacity: 0.5"/>
    </g>
   </g>
   <g id="PolyCollection_2">
    <defs>
     <path id="m15e935471e" d="M 73.912281 -86.786656 
L 73.912281 -103.913649 
L 76.927292 -97.726479 
L 79.942302 -93.04264 
L 82.957313 -97.306779 
L 85.972323 -99.638623 
L 88.987334 -94.555945 
L 92.002345 -99.731777 
L 95.017355 -95.004582 
L 98.032366 -94.597354 
L 101.047376 -95.284669 
L 104.062387 -99.724401 
L 107.077397 -102.973341 
L 110.092408 -99.598742 
L 113.107418 -99.976694 
L 116.122429 -98.593385 
L 119.13744 -97.912973 
L 122.15245 -96.839864 
L 125.167461 -97.124178 
L 128.182471 -99.933778 
L 131.197482 -94.630691 
L 134.212492 -95.213144 
L 137.227503 -98.761894 
L 140.242513 -95.832268 
L 143.257524 -97.358184 
L 146.272535 -95.471465 
L 149.287545 -97.35614 
L 152.302556 -95.300867 
L 155.317566 -97.605985 
L 158.332577 -102.223938 
L 161.347587 -99.137779 
L 164.362598 -108.210913 
L 167.377608 -110.090778 
L 170.392619 -110.570211 
L 173.40763 -110.175448 
L 176.42264 -109.982916 
L 179.437651 -111.075786 
L 182.452661 -110.956958 
L 185.467672 -108.505631 
L 188.482682 -111.017054 
L 191.497693 -109.008834 
L 194.512704 -116.461367 
L 197.527714 -117.671908 
L 200.542725 -116.627486 
L 203.557735 -113.700759 
L 206.572746 -116.339471 
L 209.587756 -111.795913 
L 212.602767 -114.2698 
L 215.617777 -114.174301 
L 218.632788 -111.521167 
L 221.647799 -109.373677 
L 224.662809 -114.857665 
L 227.67782 -113.301231 
L 230.69283 -113.966552 
L 233.707841 -116.501162 
L 236.722851 -116.323215 
L 239.737862 -114.812568 
L 242.752872 -116.789438 
L 245.767883 -117.316802 
L 248.782894 -114.984694 
L 251.797904 -121.647517 
L 251.797904 -108.937725 
L 251.797904 -108.937725 
L 248.782894 -103.99761 
L 245.767883 -105.398906 
L 242.752872 -105.57016 
L 239.737862 -104.160788 
L 236.722851 -105.279329 
L 233.707841 -105.888142 
L 230.69283 -102.293324 
L 227.67782 -103.637128 
L 224.662809 -103.391883 
L 221.647799 -98.561948 
L 218.632788 -100.25435 
L 215.617777 -103.727377 
L 212.602767 -103.480769 
L 209.587756 -101.11103 
L 206.572746 -104.723768 
L 203.557735 -101.8512 
L 200.542725 -105.989796 
L 197.527714 -107.670507 
L 194.512704 -106.384394 
L 191.497693 -98.495395 
L 188.482682 -101.660339 
L 185.467672 -98.965924 
L 182.452661 -101.384267 
L 179.437651 -100.948771 
L 176.42264 -101.131619 
L 173.40763 -100.210526 
L 170.392619 -100.072709 
L 167.377608 -100.648978 
L 164.362598 -97.115823 
L 161.347587 -89.749783 
L 158.332577 -91.904925 
L 155.317566 -89.045903 
L 152.302556 -84.485273 
L 149.287545 -87.096698 
L 146.272535 -84.331885 
L 143.257524 -85.568972 
L 140.242513 -85.266793 
L 137.227503 -88.459739 
L 134.212492 -86.102166 
L 131.197482 -85.428976 
L 128.182471 -89.227829 
L 125.167461 -87.860834 
L 122.15245 -86.352908 
L 119.13744 -86.098168 
L 116.122429 -87.219874 
L 113.107418 -87.411384 
L 110.092408 -86.909656 
L 107.077397 -88.158382 
L 104.062387 -86.802025 
L 101.047376 -83.866933 
L 98.032366 -84.111633 
L 95.017355 -83.254317 
L 92.002345 -85.716212 
L 88.987334 -81.863012 
L 85.972323 -86.514523 
L 82.957313 -84.805176 
L 79.942302 -80.678979 
L 76.927292 -84.445267 
L 73.912281 -86.786656 
z
" style="stroke: #d16666; stroke-opacity: 0.5"/>
    </defs>
    <g clip-path="url(#p089d4adbad)">
     <use xlink:href="#m15e935471e" x="0" y="195.12" style="fill: #d16666; fill-opacity: 0.5; stroke: #d16666; stroke-opacity: 0.5"/>
    </g>
   </g>
   <g id="PolyCollection_3">
    <defs>
     <path id="m6012761b19" d="M 73.912281 -124.654078 
L 73.912281 -133.518389 
L 76.927292 -130.246562 
L 79.942302 -132.279349 
L 82.957313 -128.8806 
L 85.972323 -127.609461 
L 88.987334 -125.78041 
L 92.002345 -127.322727 
L 95.017355 -127.760778 
L 98.032366 -124.508792 
L 101.047376 -123.125452 
L 104.062387 -127.98197 
L 107.077397 -125.544818 
L 110.092408 -123.110912 
L 113.107418 -126.981914 
L 116.122429 -126.179752 
L 119.13744 -127.115658 
L 122.15245 -126.611001 
L 125.167461 -126.567735 
L 128.182471 -122.497614 
L 131.197482 -124.968574 
L 134.212492 -122.875176 
L 137.227503 -124.888283 
L 140.242513 -125.05418 
L 143.257524 -123.05568 
L 146.272535 -123.202861 
L 149.287545 -121.678692 
L 152.302556 -120.659978 
L 155.317566 -119.791141 
L 158.332577 -120.494568 
L 161.347587 -115.82854 
L 164.362598 -95.151297 
L 167.377608 -91.265284 
L 170.392619 -90.925366 
L 173.40763 -85.366798 
L 176.42264 -85.210429 
L 179.437651 -85.728811 
L 182.452661 -83.109692 
L 185.467672 -82.088121 
L 188.482682 -80.189857 
L 191.497693 -80.934462 
L 194.512704 -81.955651 
L 197.527714 -79.808423 
L 200.542725 -80.121148 
L 203.557735 -78.65972 
L 206.572746 -77.872687 
L 209.587756 -78.920153 
L 212.602767 -78.690552 
L 215.617777 -78.369989 
L 218.632788 -78.446939 
L 221.647799 -75.182085 
L 224.662809 -77.569244 
L 227.67782 -78.105605 
L 230.69283 -77.286208 
L 233.707841 -78.986733 
L 236.722851 -79.567889 
L 239.737862 -76.342008 
L 242.752872 -78.023943 
L 245.767883 -76.546521 
L 248.782894 -74.772636 
L 251.797904 -80.016479 
L 251.797904 -73.280717 
L 251.797904 -73.280717 
L 248.782894 -69.922827 
L 245.767883 -71.297267 
L 242.752872 -72.69459 
L 239.737862 -72.23929 
L 236.722851 -73.725016 
L 233.707841 -73.617073 
L 230.69283 -72.087251 
L 227.67782 -73.010354 
L 224.662809 -72.773897 
L 221.647799 -70.545301 
L 218.632788 -73.191139 
L 215.617777 -73.335524 
L 212.602767 -73.491518 
L 209.587756 -73.363618 
L 206.572746 -73.177196 
L 203.557735 -72.568479 
L 200.542725 -75.570673 
L 197.527714 -75.25447 
L 194.512704 -75.723629 
L 191.497693 -76.203406 
L 188.482682 -75.34373 
L 185.467672 -77.015965 
L 182.452661 -77.738478 
L 179.437651 -80.022475 
L 176.42264 -79.869004 
L 173.40763 -80.322163 
L 170.392619 -85.478421 
L 167.377608 -84.787859 
L 164.362598 -88.186817 
L 161.347587 -109.441894 
L 158.332577 -113.402345 
L 155.317566 -112.068645 
L 152.302556 -112.767129 
L 149.287545 -113.563325 
L 146.272535 -116.34698 
L 143.257524 -115.838378 
L 140.242513 -118.673048 
L 137.227503 -118.268153 
L 134.212492 -116.516184 
L 131.197482 -118.900544 
L 128.182471 -115.978724 
L 125.167461 -120.434962 
L 122.15245 -120.804406 
L 119.13744 -121.060813 
L 116.122429 -119.330644 
L 113.107418 -119.943339 
L 110.092408 -116.883756 
L 107.077397 -119.113821 
L 104.062387 -120.587861 
L 101.047376 -117.706158 
L 98.032366 -118.777085 
L 95.017355 -121.291043 
L 92.002345 -121.338637 
L 88.987334 -119.537504 
L 85.972323 -121.525255 
L 82.957313 -123.047075 
L 79.942302 -124.723038 
L 76.927292 -123.173532 
L 73.912281 -124.654078 
z
" style="stroke: #a288e3; stroke-opacity: 0.5"/>
    </defs>
    <g clip-path="url(#p089d4adbad)">
     <use xlink:href="#m6012761b19" x="0" y="195.12" style="fill: #a288e3; fill-opacity: 0.5; stroke: #a288e3; stroke-opacity: 0.5"/>
    </g>
   </g>
   <g id="matplotlib.axis_1">
    <g id="xtick_1">
     <g id="line2d_1">
      <defs>
       <path id="m85ab1e456e" d="M 0 0 
L 0 3.5 
" style="stroke: #000000; stroke-width: 0.8"/>
      </defs>
      <g>
       <use xlink:href="#m85ab1e456e" x="73.912281" y="149.56" style="stroke: #000000; stroke-width: 0.8"/>
      </g>
     </g>
     <g id="text_1">
      <text style="font: 12px 'DejaVu Sans', 'Bitstream Vera Sans', 'Computer Modern Sans Serif', 'Lucida Grande', 'Verdana', 'Geneva', 'Lucid', 'Arial', 'Helvetica', 'Avant Garde', sans-serif; text-anchor: middle" x="73.912281" y="165.678125" transform="rotate(-0 73.912281 165.678125)">0</text>
     </g>
    </g>
    <g id="xtick_2">
     <g id="line2d_2">
      <g>
       <use xlink:href="#m85ab1e456e" x="134.212492" y="149.56" style="stroke: #000000; stroke-width: 0.8"/>
      </g>
     </g>
     <g id="text_2">
      <text style="font: 12px 'DejaVu Sans', 'Bitstream Vera Sans', 'Computer Modern Sans Serif', 'Lucida Grande', 'Verdana', 'Geneva', 'Lucid', 'Arial', 'Helvetica', 'Avant Garde', sans-serif; text-anchor: middle" x="134.212492" y="165.678125" transform="rotate(-0 134.212492 165.678125)">20</text>
     </g>
    </g>
    <g id="xtick_3">
     <g id="line2d_3">
      <g>
       <use xlink:href="#m85ab1e456e" x="194.512704" y="149.56" style="stroke: #000000; stroke-width: 0.8"/>
      </g>
     </g>
     <g id="text_3">
      <text style="font: 12px 'DejaVu Sans', 'Bitstream Vera Sans', 'Computer Modern Sans Serif', 'Lucida Grande', 'Verdana', 'Geneva', 'Lucid', 'Arial', 'Helvetica', 'Avant Garde', sans-serif; text-anchor: middle" x="194.512704" y="165.678125" transform="rotate(-0 194.512704 165.678125)">40</text>
     </g>
    </g>
    <g id="xtick_4">
     <g id="line2d_4">
      <g>
       <use xlink:href="#m85ab1e456e" x="254.812915" y="149.56" style="stroke: #000000; stroke-width: 0.8"/>
      </g>
     </g>
     <g id="text_4">
      <text style="font: 12px 'DejaVu Sans', 'Bitstream Vera Sans', 'Computer Modern Sans Serif', 'Lucida Grande', 'Verdana', 'Geneva', 'Lucid', 'Arial', 'Helvetica', 'Avant Garde', sans-serif; text-anchor: middle" x="254.812915" y="165.678125" transform="rotate(-0 254.812915 165.678125)">60</text>
     </g>
    </g>
    <g id="text_5">
     <text style="font: 12px 'DejaVu Sans', 'Bitstream Vera Sans', 'Computer Modern Sans Serif', 'Lucida Grande', 'Verdana', 'Geneva', 'Lucid', 'Arial', 'Helvetica', 'Avant Garde', sans-serif; text-anchor: middle" x="162.855093" y="181.291875" transform="rotate(-0 162.855093 181.291875)">Times (bins)</text>
    </g>
   </g>
   <g id="matplotlib.axis_2">
    <g id="ytick_1">
     <g id="line2d_5">
      <defs>
       <path id="m0b1ad07bad" d="M 0 0 
L -3.5 0 
" style="stroke: #000000; stroke-width: 0.8"/>
      </defs>
      <g>
       <use xlink:href="#m0b1ad07bad" x="65.018" y="149.56" style="stroke: #000000; stroke-width: 0.8"/>
      </g>
     </g>
     <g id="text_6">
      <text style="font: 12px 'DejaVu Sans', 'Bitstream Vera Sans', 'Computer Modern Sans Serif', 'Lucida Grande', 'Verdana', 'Geneva', 'Lucid', 'Arial', 'Helvetica', 'Avant Garde', sans-serif; text-anchor: end" x="58.018" y="154.119063" transform="rotate(-0 58.018 154.119063)">−2</text>
     </g>
    </g>
    <g id="ytick_2">
     <g id="line2d_6">
      <g>
       <use xlink:href="#m0b1ad07bad" x="65.018" y="122.32803" style="stroke: #000000; stroke-width: 0.8"/>
      </g>
     </g>
     <g id="text_7">
      <text style="font: 12px 'DejaVu Sans', 'Bitstream Vera Sans', 'Computer Modern Sans Serif', 'Lucida Grande', 'Verdana', 'Geneva', 'Lucid', 'Arial', 'Helvetica', 'Avant Garde', sans-serif; text-anchor: end" x="58.018" y="126.887093" transform="rotate(-0 58.018 126.887093)">−1</text>
     </g>
    </g>
    <g id="ytick_3">
     <g id="line2d_7">
      <g>
       <use xlink:href="#m0b1ad07bad" x="65.018" y="95.09606" style="stroke: #000000; stroke-width: 0.8"/>
      </g>
     </g>
     <g id="text_8">
      <text style="font: 12px 'DejaVu Sans', 'Bitstream Vera Sans', 'Computer Modern Sans Serif', 'Lucida Grande', 'Verdana', 'Geneva', 'Lucid', 'Arial', 'Helvetica', 'Avant Garde', sans-serif; text-anchor: end" x="58.018" y="99.655123" transform="rotate(-0 58.018 99.655123)">0</text>
     </g>
    </g>
    <g id="ytick_4">
     <g id="line2d_8">
      <g>
       <use xlink:href="#m0b1ad07bad" x="65.018" y="67.86409" style="stroke: #000000; stroke-width: 0.8"/>
      </g>
     </g>
     <g id="text_9">
      <text style="font: 12px 'DejaVu Sans', 'Bitstream Vera Sans', 'Computer Modern Sans Serif', 'Lucida Grande', 'Verdana', 'Geneva', 'Lucid', 'Arial', 'Helvetica', 'Avant Garde', sans-serif; text-anchor: end" x="58.018" y="72.423153" transform="rotate(-0 58.018 72.423153)">1</text>
     </g>
    </g>
    <g id="ytick_5">
     <g id="line2d_9">
      <g>
       <use xlink:href="#m0b1ad07bad" x="65.018" y="40.63212" style="stroke: #000000; stroke-width: 0.8"/>
      </g>
     </g>
     <g id="text_10">
      <text style="font: 12px 'DejaVu Sans', 'Bitstream Vera Sans', 'Computer Modern Sans Serif', 'Lucida Grande', 'Verdana', 'Geneva', 'Lucid', 'Arial', 'Helvetica', 'Avant Garde', sans-serif; text-anchor: end" x="58.018" y="45.191183" transform="rotate(-0 58.018 45.191183)">2</text>
     </g>
    </g>
    <g id="text_11">
     <text style="font: 12px 'DejaVu Sans', 'Bitstream Vera Sans', 'Computer Modern Sans Serif', 'Lucida Grande', 'Verdana', 'Geneva', 'Lucid', 'Arial', 'Helvetica', 'Avant Garde', sans-serif" transform="translate(20.394375 143.833873) rotate(-90)">Network Metrics</text>
     <text style="font: 12px 'DejaVu Sans', 'Bitstream Vera Sans', 'Computer Modern Sans Serif', 'Lucida Grande', 'Verdana', 'Geneva', 'Lucid', 'Arial', 'Helvetica', 'Avant Garde', sans-serif" transform="translate(33.83175 119.046373) rotate(-90)">(zscore)</text>
    </g>
   </g>
   <g id="line2d_10">
    <path d="M 73.912281 104.825764 
L 76.927292 108.911283 
L 79.942302 111.162761 
L 82.957313 107.800008 
L 85.972323 109.084289 
L 88.987334 111.15825 
L 92.002345 109.629378 
L 95.017355 105.250559 
L 98.032366 106.937883 
L 101.047376 104.033428 
L 104.062387 103.373506 
L 107.077397 103.903432 
L 110.092408 106.743605 
L 113.107418 106.795069 
L 116.122429 109.344141 
L 119.13744 106.897042 
L 122.15245 107.797643 
L 125.167461 106.271705 
L 128.182471 105.747989 
L 131.197482 108.959288 
L 134.212492 104.74443 
L 137.227503 104.499126 
L 140.242513 102.367331 
L 143.257524 105.022521 
L 146.272535 104.300514 
L 149.287545 102.434712 
L 152.302556 102.313311 
L 155.317566 103.256147 
L 158.332577 104.725159 
L 161.347587 98.919843 
L 164.362598 93.366062 
L 167.377608 93.184152 
L 170.392619 90.421392 
L 173.40763 84.772196 
L 176.42264 91.211498 
L 179.437651 85.833602 
L 182.452661 85.706193 
L 185.467672 83.987314 
L 188.482682 86.621058 
L 191.497693 83.542371 
L 194.512704 88.164565 
L 197.527714 84.562761 
L 200.542725 80.60132 
L 203.557735 83.296594 
L 206.572746 84.379631 
L 209.587756 84.017732 
L 212.602767 84.613117 
L 215.617777 81.61249 
L 218.632788 81.677233 
L 221.647799 81.478739 
L 224.662809 84.029719 
L 227.67782 81.249754 
L 230.69283 80.561278 
L 233.707841 82.51575 
L 236.722851 75.334459 
L 239.737862 76.821794 
L 242.752872 79.996121 
L 245.767883 80.474777 
L 248.782894 85.575155 
L 251.797904 88.944655 
" clip-path="url(#p089d4adbad)" style="fill: none; stroke: #2c4251; stroke-width: 1.5; stroke-linecap: square"/>
   </g>
   <g id="line2d_11">
    <path d="M 73.912281 99.769847 
L 76.927292 104.034127 
L 79.942302 108.259191 
L 82.957313 104.064023 
L 85.972323 102.043427 
L 88.987334 106.910522 
L 92.002345 102.396006 
L 95.017355 105.99055 
L 98.032366 105.765506 
L 101.047376 105.544199 
L 104.062387 101.856787 
L 107.077397 99.554139 
L 110.092408 101.865801 
L 113.107418 101.425961 
L 116.122429 102.21337 
L 119.13744 103.114429 
L 122.15245 103.523614 
L 125.167461 102.627494 
L 128.182471 100.539196 
L 131.197482 105.090166 
L 134.212492 104.462345 
L 137.227503 101.509184 
L 140.242513 104.57047 
L 143.257524 103.656422 
L 146.272535 105.218325 
L 149.287545 102.893581 
L 152.302556 105.22693 
L 155.317566 101.794056 
L 158.332577 98.055569 
L 161.347587 100.676219 
L 164.362598 92.456632 
L 167.377608 89.750122 
L 170.392619 89.79854 
L 173.40763 89.927013 
L 176.42264 89.562732 
L 179.437651 89.107721 
L 182.452661 88.949388 
L 185.467672 91.384223 
L 188.482682 88.781303 
L 191.497693 91.367885 
L 194.512704 83.697119 
L 197.527714 82.448793 
L 200.542725 83.811359 
L 203.557735 87.34402 
L 206.572746 84.588381 
L 209.587756 88.666528 
L 212.602767 86.244716 
L 215.617777 86.169161 
L 218.632788 89.232242 
L 221.647799 91.152188 
L 224.662809 85.995226 
L 227.67782 86.65082 
L 230.69283 86.990062 
L 233.707841 83.925348 
L 236.722851 84.318728 
L 239.737862 85.633322 
L 242.752872 83.940201 
L 245.767883 83.762146 
L 248.782894 85.628848 
L 251.797904 79.827379 
" clip-path="url(#p089d4adbad)" style="fill: none; stroke: #d16666; stroke-width: 1.5; stroke-linecap: square"/>
   </g>
   <g id="line2d_12">
    <path d="M 73.912281 66.033766 
L 76.927292 68.409953 
L 79.942302 66.618807 
L 82.957313 69.156163 
L 85.972323 70.552642 
L 88.987334 72.461043 
L 92.002345 70.789318 
L 95.017355 70.594089 
L 98.032366 73.477061 
L 101.047376 74.704195 
L 104.062387 70.835084 
L 107.077397 72.790681 
L 110.092408 75.122666 
L 113.107418 71.657373 
L 116.122429 72.364802 
L 119.13744 71.031764 
L 122.15245 71.412296 
L 125.167461 71.618651 
L 128.182471 75.881831 
L 131.197482 73.185441 
L 134.212492 75.42432 
L 137.227503 73.541782 
L 140.242513 73.256386 
L 143.257524 75.672971 
L 146.272535 75.34508 
L 149.287545 77.498992 
L 152.302556 78.406447 
L 155.317566 79.190107 
L 158.332577 78.171543 
L 161.347587 82.484783 
L 164.362598 103.450943 
L 167.377608 107.093429 
L 170.392619 106.918106 
L 173.40763 112.275519 
L 176.42264 112.580283 
L 179.437651 112.244357 
L 182.452661 114.695915 
L 185.467672 115.567957 
L 188.482682 117.353206 
L 191.497693 116.551066 
L 194.512704 116.28036 
L 197.527714 117.588554 
L 200.542725 117.274089 
L 203.557735 119.5059 
L 206.572746 119.595058 
L 209.587756 118.978115 
L 212.602767 119.028965 
L 215.617777 119.267244 
L 218.632788 119.300961 
L 221.647799 122.256307 
L 224.662809 119.948429 
L 227.67782 119.562021 
L 230.69283 120.43327 
L 233.707841 118.818097 
L 236.722851 118.473548 
L 239.737862 120.829351 
L 242.752872 119.760733 
L 245.767883 121.198106 
L 248.782894 122.772268 
L 251.797904 118.471402 
" clip-path="url(#p089d4adbad)" style="fill: none; stroke: #a288e3; stroke-width: 1.5; stroke-linecap: square"/>
   </g>
   <g id="patch_5">
    <path d="M 65.018 149.56 
L 65.018 40.63212 
" style="fill: none; stroke: #000000; stroke-width: 0.8; stroke-linejoin: miter; stroke-linecap: square"/>
   </g>
   <g id="patch_6">
    <path d="M 65.018 149.56 
L 260.692185 149.56 
" style="fill: none; stroke: #000000; stroke-width: 0.8; stroke-linejoin: miter; stroke-linecap: square"/>
   </g>
   <g id="text_12">
    <text style="fill: #2c4251; font: 12px 'DejaVu Sans', 'Bitstream Vera Sans', 'Computer Modern Sans Serif', 'Lucida Grande', 'Verdana', 'Geneva', 'Lucid', 'Arial', 'Helvetica', 'Avant Garde', sans-serif; text-anchor: start" x="113.936546" y="62.417696" transform="rotate(-0 113.936546 62.417696)">r = 0.92 p = 7.5e-26</text>
   </g>
   <g id="text_13">
    <text style="fill: #d16666; font: 12px 'DejaVu Sans', 'Bitstream Vera Sans', 'Computer Modern Sans Serif', 'Lucida Grande', 'Verdana', 'Geneva', 'Lucid', 'Arial', 'Helvetica', 'Avant Garde', sans-serif; text-anchor: start" x="113.936546" y="51.524908" transform="rotate(-0 113.936546 51.524908)">r = 0.9 p = 2.1e-22</text>
   </g>
   <g id="text_14">
    <text style="fill: #a288e3; font: 12px 'DejaVu Sans', 'Bitstream Vera Sans', 'Computer Modern Sans Serif', 'Lucida Grande', 'Verdana', 'Geneva', 'Lucid', 'Arial', 'Helvetica', 'Avant Garde', sans-serif; text-anchor: start" x="113.936546" y="40.63212" transform="rotate(-0 113.936546 40.63212)">r = -0.93 p = 1.1e-26</text>
   </g>
   <g id="text_15">
    <text style="font: 700 20px 'DejaVu Sans', 'Bitstream Vera Sans', 'Computer Modern Sans Serif', 'Lucida Grande', 'Verdana', 'Geneva', 'Lucid', 'Arial', 'Helvetica', 'Avant Garde', sans-serif; text-anchor: start" x="45.450581" y="31.026351" transform="rotate(-0 45.450581 31.026351)">A</text>
   </g>
  </g>
  <g id="axes_2">
   <g id="patch_7">
    <path d="M 300.200605 149.56 
L 495.87479 149.56 
L 495.87479 40.63212 
L 300.200605 40.63212 
z
" style="fill: #ffffff"/>
   </g>
   <g id="patch_8">
    <path d="M 309.094886 149.56 
L 309.094886 40.63212 
L 434.916424 40.63212 
L 434.916424 149.56 
z
" clip-path="url(#pb6968abf22)" style="fill: #808080; opacity: 0.5"/>
   </g>
   <g id="patch_9">
    <path d="M 439.255098 149.56 
L 439.255098 40.63212 
L 486.980509 40.63212 
L 486.980509 149.56 
z
" clip-path="url(#pb6968abf22)" style="fill: #ffa500; opacity: 0.5"/>
   </g>
   <g id="PolyCollection_4">
    <defs>
     <path id="mfa3ae131c6" d="M 309.094886 -91.20488 
L 309.094886 -97.427043 
L 313.43356 -99.800749 
L 317.772234 -104.371275 
L 322.110907 -104.686012 
L 326.449581 -104.313876 
L 330.788255 -107.003948 
L 335.126928 -108.000268 
L 339.465602 -110.159474 
L 343.804276 -110.817596 
L 348.14295 -108.743726 
L 352.481623 -108.155593 
L 356.820297 -110.004772 
L 361.158971 -112.417571 
L 365.497645 -108.499685 
L 369.836318 -108.478399 
L 374.174992 -109.655527 
L 378.513666 -108.257829 
L 382.852339 -109.540353 
L 387.191013 -111.992552 
L 391.529687 -110.577582 
L 395.868361 -108.86053 
L 400.207034 -110.732161 
L 404.545708 -111.087771 
L 408.884382 -112.570472 
L 413.223056 -112.247513 
L 417.561729 -112.704029 
L 421.900403 -109.85739 
L 426.239077 -110.491672 
L 430.577751 -105.732819 
L 434.916424 -103.773002 
L 439.255098 -91.54233 
L 443.593772 -87.489448 
L 447.932445 -91.865191 
L 452.271119 -94.169617 
L 456.609793 -95.327773 
L 460.948467 -90.107634 
L 465.28714 -87.8788 
L 469.625814 -95.023829 
L 473.964488 -88.476393 
L 478.303162 -94.142811 
L 482.641835 -91.423992 
L 486.980509 -99.178585 
L 486.980509 -88.927357 
L 486.980509 -88.927357 
L 482.641835 -82.162521 
L 478.303162 -84.407851 
L 473.964488 -79.606571 
L 469.625814 -85.918575 
L 465.28714 -79.062938 
L 460.948467 -81.050446 
L 456.609793 -84.953115 
L 452.271119 -84.35551 
L 447.932445 -82.475869 
L 443.593772 -78.037938 
L 439.255098 -82.972149 
L 434.916424 -97.32898 
L 430.577751 -99.420843 
L 426.239077 -104.349641 
L 421.900403 -103.477285 
L 417.561729 -105.837681 
L 413.223056 -105.046157 
L 408.884382 -105.364842 
L 404.545708 -103.95278 
L 400.207034 -104.063916 
L 395.868361 -101.899698 
L 391.529687 -103.798991 
L 387.191013 -104.836053 
L 382.852339 -102.83408 
L 378.513666 -100.938346 
L 374.174992 -102.109347 
L 369.836318 -102.133415 
L 365.497645 -102.160085 
L 361.158971 -105.777653 
L 356.820297 -103.928217 
L 352.481623 -101.95453 
L 348.14295 -101.733813 
L 343.804276 -104.066377 
L 339.465602 -103.245757 
L 335.126928 -101.416663 
L 330.788255 -100.286152 
L 326.449581 -98.294335 
L 322.110907 -98.298879 
L 317.772234 -97.708253 
L 313.43356 -93.024881 
L 309.094886 -91.20488 
z
" style="stroke: #2c4251; stroke-opacity: 0.5"/>
    </defs>
    <g clip-path="url(#pb6968abf22)">
     <use xlink:href="#mfa3ae131c6" x="0" y="195.12" style="fill: #2c4251; fill-opacity: 0.5; stroke: #2c4251; stroke-opacity: 0.5"/>
    </g>
   </g>
   <g id="PolyCollection_5">
    <defs>
     <path id="mc3a3f1fcf6" d="M 309.094886 -88.86232 
L 309.094886 -97.586782 
L 313.43356 -100.175012 
L 317.772234 -102.858501 
L 322.110907 -104.103717 
L 326.449581 -104.718283 
L 330.788255 -102.801918 
L 335.126928 -105.456155 
L 339.465602 -104.259649 
L 343.804276 -103.793347 
L 348.14295 -106.052493 
L 352.481623 -104.733968 
L 356.820297 -107.982121 
L 361.158971 -108.589773 
L 365.497645 -104.87394 
L 369.836318 -108.194548 
L 374.174992 -107.581943 
L 378.513666 -107.818029 
L 382.852339 -106.805486 
L 387.191013 -105.760018 
L 391.529687 -105.41015 
L 395.868361 -107.584397 
L 400.207034 -105.628689 
L 404.545708 -105.747329 
L 408.884382 -107.739195 
L 413.223056 -109.039737 
L 417.561729 -111.232138 
L 421.900403 -111.527578 
L 426.239077 -111.066041 
L 430.577751 -112.830048 
L 434.916424 -115.264489 
L 439.255098 -105.659613 
L 443.593772 -99.908151 
L 447.932445 -101.973516 
L 452.271119 -98.297664 
L 456.609793 -95.092143 
L 460.948467 -99.180885 
L 465.28714 -101.580964 
L 469.625814 -100.366782 
L 473.964488 -99.688411 
L 478.303162 -93.703108 
L 482.641835 -95.910866 
L 486.980509 -97.353601 
L 486.980509 -85.710705 
L 486.980509 -85.710705 
L 482.641835 -82.721996 
L 478.303162 -81.254222 
L 473.964488 -87.374476 
L 469.625814 -87.665236 
L 465.28714 -88.225521 
L 460.948467 -86.594492 
L 456.609793 -83.091093 
L 452.271119 -84.391587 
L 447.932445 -89.830774 
L 443.593772 -88.242954 
L 439.255098 -92.364141 
L 434.916424 -106.428182 
L 430.577751 -105.415761 
L 426.239077 -103.496151 
L 421.900403 -104.030831 
L 417.561729 -104.026369 
L 413.223056 -101.277733 
L 408.884382 -99.349542 
L 404.545708 -98.303809 
L 400.207034 -99.11982 
L 395.868361 -101.029688 
L 391.529687 -98.898947 
L 387.191013 -99.08383 
L 382.852339 -99.094622 
L 378.513666 -100.049344 
L 374.174992 -99.713577 
L 369.836318 -101.017029 
L 365.497645 -98.590251 
L 361.158971 -101.628513 
L 356.820297 -101.704413 
L 352.481623 -97.326285 
L 348.14295 -99.017063 
L 343.804276 -97.916372 
L 339.465602 -97.075918 
L 335.126928 -98.41877 
L 330.788255 -95.512917 
L 326.449581 -97.465237 
L 322.110907 -96.646078 
L 317.772234 -95.781447 
L 313.43356 -92.331768 
L 309.094886 -88.86232 
z
" style="stroke: #d16666; stroke-opacity: 0.5"/>
    </defs>
    <g clip-path="url(#pb6968abf22)">
     <use xlink:href="#mc3a3f1fcf6" x="0" y="195.12" style="fill: #d16666; fill-opacity: 0.5; stroke: #d16666; stroke-opacity: 0.5"/>
    </g>
   </g>
   <g id="PolyCollection_6">
    <defs>
     <path id="mad7d650b13" d="M 309.094886 -98.72237 
L 309.094886 -104.845485 
L 313.43356 -101.044936 
L 317.772234 -94.624287 
L 322.110907 -92.749527 
L 326.449581 -90.619808 
L 330.788255 -92.921533 
L 335.126928 -92.217138 
L 339.465602 -90.895794 
L 343.804276 -89.111113 
L 348.14295 -91.026813 
L 352.481623 -88.829638 
L 356.820297 -87.715557 
L 361.158971 -88.595537 
L 365.497645 -88.716886 
L 369.836318 -86.150146 
L 374.174992 -90.552589 
L 378.513666 -86.891659 
L 382.852339 -90.747068 
L 387.191013 -91.44329 
L 391.529687 -91.265985 
L 395.868361 -89.733082 
L 400.207034 -89.531962 
L 404.545708 -89.804459 
L 408.884382 -89.828245 
L 413.223056 -93.483349 
L 417.561729 -86.158272 
L 421.900403 -89.211584 
L 426.239077 -86.240569 
L 430.577751 -86.100884 
L 434.916424 -94.2887 
L 439.255098 -125.906803 
L 443.593772 -132.655025 
L 447.932445 -132.289601 
L 452.271119 -136.886165 
L 456.609793 -132.669567 
L 460.948467 -134.693183 
L 465.28714 -131.549001 
L 469.625814 -133.011716 
L 473.964488 -132.230425 
L 478.303162 -135.898486 
L 482.641835 -133.871264 
L 486.980509 -132.498988 
L 486.980509 -124.991291 
L 486.980509 -124.991291 
L 482.641835 -126.145071 
L 478.303162 -128.349023 
L 473.964488 -125.008146 
L 469.625814 -125.547879 
L 465.28714 -124.053546 
L 460.948467 -126.029021 
L 456.609793 -125.773063 
L 452.271119 -128.85285 
L 447.932445 -124.841322 
L 443.593772 -124.686565 
L 439.255098 -118.099413 
L 434.916424 -88.16446 
L 430.577751 -81.92165 
L 426.239077 -82.184247 
L 421.900403 -84.614499 
L 417.561729 -82.074604 
L 413.223056 -87.315306 
L 408.884382 -84.986817 
L 404.545708 -85.188454 
L 400.207034 -85.046925 
L 395.868361 -84.896544 
L 391.529687 -86.342653 
L 387.191013 -86.300658 
L 382.852339 -85.795929 
L 378.513666 -82.614851 
L 374.174992 -85.665185 
L 369.836318 -82.008586 
L 365.497645 -84.076677 
L 361.158971 -84.313461 
L 356.820297 -82.986812 
L 352.481623 -84.004253 
L 348.14295 -86.25234 
L 343.804276 -84.415352 
L 339.465602 -85.884862 
L 335.126928 -87.20447 
L 330.788255 -87.306168 
L 326.449581 -86.449156 
L 322.110907 -87.862251 
L 317.772234 -90.206887 
L 313.43356 -95.321224 
L 309.094886 -98.72237 
z
" style="stroke: #a288e3; stroke-opacity: 0.5"/>
    </defs>
    <g clip-path="url(#pb6968abf22)">
     <use xlink:href="#mad7d650b13" x="0" y="195.12" style="fill: #a288e3; fill-opacity: 0.5; stroke: #a288e3; stroke-opacity: 0.5"/>
    </g>
   </g>
   <g id="matplotlib.axis_3">
    <g id="xtick_5">
     <g id="line2d_13">
      <g>
       <use xlink:href="#m85ab1e456e" x="309.094886" y="149.56" style="stroke: #000000; stroke-width: 0.8"/>
      </g>
     </g>
     <g id="text_16">
      <text style="font: 12px 'DejaVu Sans', 'Bitstream Vera Sans', 'Computer Modern Sans Serif', 'Lucida Grande', 'Verdana', 'Geneva', 'Lucid', 'Arial', 'Helvetica', 'Avant Garde', sans-serif; text-anchor: middle" x="309.094886" y="165.678125" transform="rotate(-0 309.094886 165.678125)">0</text>
     </g>
    </g>
    <g id="xtick_6">
     <g id="line2d_14">
      <g>
       <use xlink:href="#m85ab1e456e" x="352.481623" y="149.56" style="stroke: #000000; stroke-width: 0.8"/>
      </g>
     </g>
     <g id="text_17">
      <text style="font: 12px 'DejaVu Sans', 'Bitstream Vera Sans', 'Computer Modern Sans Serif', 'Lucida Grande', 'Verdana', 'Geneva', 'Lucid', 'Arial', 'Helvetica', 'Avant Garde', sans-serif; text-anchor: middle" x="352.481623" y="165.678125" transform="rotate(-0 352.481623 165.678125)">10</text>
     </g>
    </g>
    <g id="xtick_7">
     <g id="line2d_15">
      <g>
       <use xlink:href="#m85ab1e456e" x="395.868361" y="149.56" style="stroke: #000000; stroke-width: 0.8"/>
      </g>
     </g>
     <g id="text_18">
      <text style="font: 12px 'DejaVu Sans', 'Bitstream Vera Sans', 'Computer Modern Sans Serif', 'Lucida Grande', 'Verdana', 'Geneva', 'Lucid', 'Arial', 'Helvetica', 'Avant Garde', sans-serif; text-anchor: middle" x="395.868361" y="165.678125" transform="rotate(-0 395.868361 165.678125)">20</text>
     </g>
    </g>
    <g id="xtick_8">
     <g id="line2d_16">
      <g>
       <use xlink:href="#m85ab1e456e" x="439.255098" y="149.56" style="stroke: #000000; stroke-width: 0.8"/>
      </g>
     </g>
     <g id="text_19">
      <text style="font: 12px 'DejaVu Sans', 'Bitstream Vera Sans', 'Computer Modern Sans Serif', 'Lucida Grande', 'Verdana', 'Geneva', 'Lucid', 'Arial', 'Helvetica', 'Avant Garde', sans-serif; text-anchor: middle" x="439.255098" y="165.678125" transform="rotate(-0 439.255098 165.678125)">30</text>
     </g>
    </g>
    <g id="xtick_9">
     <g id="line2d_17">
      <g>
       <use xlink:href="#m85ab1e456e" x="482.641835" y="149.56" style="stroke: #000000; stroke-width: 0.8"/>
      </g>
     </g>
     <g id="text_20">
      <text style="font: 12px 'DejaVu Sans', 'Bitstream Vera Sans', 'Computer Modern Sans Serif', 'Lucida Grande', 'Verdana', 'Geneva', 'Lucid', 'Arial', 'Helvetica', 'Avant Garde', sans-serif; text-anchor: middle" x="482.641835" y="165.678125" transform="rotate(-0 482.641835 165.678125)">40</text>
     </g>
    </g>
    <g id="text_21">
     <text style="font: 12px 'DejaVu Sans', 'Bitstream Vera Sans', 'Computer Modern Sans Serif', 'Lucida Grande', 'Verdana', 'Geneva', 'Lucid', 'Arial', 'Helvetica', 'Avant Garde', sans-serif; text-anchor: middle" x="398.037698" y="181.291875" transform="rotate(-0 398.037698 181.291875)">Times (bins)</text>
    </g>
   </g>
   <g id="matplotlib.axis_4">
    <g id="ytick_6">
     <g id="line2d_18">
      <g>
       <use xlink:href="#m0b1ad07bad" x="300.200605" y="149.56" style="stroke: #000000; stroke-width: 0.8"/>
      </g>
     </g>
     <g id="text_22">
      <text style="font: 12px 'DejaVu Sans', 'Bitstream Vera Sans', 'Computer Modern Sans Serif', 'Lucida Grande', 'Verdana', 'Geneva', 'Lucid', 'Arial', 'Helvetica', 'Avant Garde', sans-serif; text-anchor: end" x="293.200605" y="154.119063" transform="rotate(-0 293.200605 154.119063)">−2</text>
     </g>
    </g>
    <g id="ytick_7">
     <g id="line2d_19">
      <g>
       <use xlink:href="#m0b1ad07bad" x="300.200605" y="122.32803" style="stroke: #000000; stroke-width: 0.8"/>
      </g>
     </g>
     <g id="text_23">
      <text style="font: 12px 'DejaVu Sans', 'Bitstream Vera Sans', 'Computer Modern Sans Serif', 'Lucida Grande', 'Verdana', 'Geneva', 'Lucid', 'Arial', 'Helvetica', 'Avant Garde', sans-serif; text-anchor: end" x="293.200605" y="126.887093" transform="rotate(-0 293.200605 126.887093)">−1</text>
     </g>
    </g>
    <g id="ytick_8">
     <g id="line2d_20">
      <g>
       <use xlink:href="#m0b1ad07bad" x="300.200605" y="95.09606" style="stroke: #000000; stroke-width: 0.8"/>
      </g>
     </g>
     <g id="text_24">
      <text style="font: 12px 'DejaVu Sans', 'Bitstream Vera Sans', 'Computer Modern Sans Serif', 'Lucida Grande', 'Verdana', 'Geneva', 'Lucid', 'Arial', 'Helvetica', 'Avant Garde', sans-serif; text-anchor: end" x="293.200605" y="99.655123" transform="rotate(-0 293.200605 99.655123)">0</text>
     </g>
    </g>
    <g id="ytick_9">
     <g id="line2d_21">
      <g>
       <use xlink:href="#m0b1ad07bad" x="300.200605" y="67.86409" style="stroke: #000000; stroke-width: 0.8"/>
      </g>
     </g>
     <g id="text_25">
      <text style="font: 12px 'DejaVu Sans', 'Bitstream Vera Sans', 'Computer Modern Sans Serif', 'Lucida Grande', 'Verdana', 'Geneva', 'Lucid', 'Arial', 'Helvetica', 'Avant Garde', sans-serif; text-anchor: end" x="293.200605" y="72.423153" transform="rotate(-0 293.200605 72.423153)">1</text>
     </g>
    </g>
    <g id="ytick_10">
     <g id="line2d_22">
      <g>
       <use xlink:href="#m0b1ad07bad" x="300.200605" y="40.63212" style="stroke: #000000; stroke-width: 0.8"/>
      </g>
     </g>
     <g id="text_26">
      <text style="font: 12px 'DejaVu Sans', 'Bitstream Vera Sans', 'Computer Modern Sans Serif', 'Lucida Grande', 'Verdana', 'Geneva', 'Lucid', 'Arial', 'Helvetica', 'Avant Garde', sans-serif; text-anchor: end" x="293.200605" y="45.191183" transform="rotate(-0 293.200605 45.191183)">2</text>
     </g>
    </g>
   </g>
   <g id="line2d_23">
    <path d="M 309.094886 100.804039 
L 313.43356 98.707185 
L 317.772234 94.080236 
L 322.110907 93.627555 
L 326.449581 93.815894 
L 330.788255 91.47495 
L 335.126928 90.411535 
L 339.465602 88.417384 
L 343.804276 87.678014 
L 348.14295 89.88123 
L 352.481623 90.064939 
L 356.820297 88.153506 
L 361.158971 86.022388 
L 365.497645 89.790115 
L 369.836318 89.814093 
L 374.174992 89.237563 
L 378.513666 90.521913 
L 382.852339 88.932784 
L 387.191013 86.705697 
L 391.529687 87.931713 
L 395.868361 89.739886 
L 400.207034 87.721962 
L 404.545708 87.599724 
L 408.884382 86.152343 
L 413.223056 86.473165 
L 417.561729 85.849145 
L 421.900403 88.452663 
L 426.239077 87.699343 
L 430.577751 92.543169 
L 434.916424 94.569009 
L 439.255098 107.86276 
L 443.593772 112.356307 
L 447.932445 107.94947 
L 452.271119 105.857437 
L 456.609793 104.979556 
L 460.948467 109.54096 
L 465.28714 111.649131 
L 469.625814 104.648798 
L 473.964488 111.078518 
L 478.303162 105.844669 
L 482.641835 108.326743 
L 486.980509 101.067029 
" clip-path="url(#pb6968abf22)" style="fill: none; stroke: #2c4251; stroke-width: 1.5; stroke-linecap: square"/>
   </g>
   <g id="line2d_24">
    <path d="M 309.094886 101.895449 
L 313.43356 98.86661 
L 317.772234 95.800026 
L 322.110907 94.745102 
L 326.449581 94.02824 
L 330.788255 95.962583 
L 335.126928 93.182538 
L 339.465602 94.452217 
L 343.804276 94.265141 
L 348.14295 92.585222 
L 352.481623 94.089874 
L 356.820297 90.276733 
L 361.158971 90.010857 
L 365.497645 93.387905 
L 369.836318 90.514211 
L 374.174992 91.47224 
L 378.513666 91.186313 
L 382.852339 92.169946 
L 387.191013 92.698076 
L 391.529687 92.965452 
L 395.868361 90.812958 
L 400.207034 92.745746 
L 404.545708 93.094431 
L 408.884382 91.575632 
L 413.223056 89.961265 
L 417.561729 87.490746 
L 421.900403 87.340795 
L 426.239077 87.838904 
L 430.577751 85.997095 
L 434.916424 84.273665 
L 439.255098 96.108123 
L 443.593772 101.044448 
L 447.932445 99.217855 
L 452.271119 103.775374 
L 456.609793 106.028382 
L 460.948467 102.232311 
L 465.28714 100.216757 
L 469.625814 101.103991 
L 473.964488 101.588556 
L 478.303162 107.641335 
L 482.641835 105.803569 
L 486.980509 103.587847 
" clip-path="url(#pb6968abf22)" style="fill: none; stroke: #d16666; stroke-width: 1.5; stroke-linecap: square"/>
   </g>
   <g id="line2d_25">
    <path d="M 309.094886 93.336072 
L 313.43356 96.93692 
L 317.772234 102.704413 
L 322.110907 104.814111 
L 326.449581 106.585518 
L 330.788255 105.006149 
L 335.126928 105.409196 
L 339.465602 106.729672 
L 343.804276 108.356768 
L 348.14295 106.480424 
L 352.481623 108.703054 
L 356.820297 109.768816 
L 361.158971 108.665501 
L 365.497645 108.723219 
L 369.836318 111.040634 
L 374.174992 107.011113 
L 378.513666 110.366745 
L 382.852339 106.848502 
L 387.191013 106.248026 
L 391.529687 106.315681 
L 395.868361 107.805187 
L 400.207034 107.830557 
L 404.545708 107.623543 
L 408.884382 107.712469 
L 413.223056 104.720672 
L 417.561729 111.003562 
L 421.900403 108.206958 
L 426.239077 110.907592 
L 430.577751 111.108733 
L 434.916424 103.89342 
L 439.255098 73.116892 
L 443.593772 66.449205 
L 447.932445 66.554538 
L 452.271119 62.250492 
L 456.609793 65.898685 
L 460.948467 64.758898 
L 465.28714 67.318726 
L 469.625814 65.840203 
L 473.964488 66.500715 
L 478.303162 62.996246 
L 482.641835 65.111832 
L 486.980509 66.374861 
" clip-path="url(#pb6968abf22)" style="fill: none; stroke: #a288e3; stroke-width: 1.5; stroke-linecap: square"/>
   </g>
   <g id="patch_10">
    <path d="M 300.200605 149.56 
L 300.200605 40.63212 
" style="fill: none; stroke: #000000; stroke-width: 0.8; stroke-linejoin: miter; stroke-linecap: square"/>
   </g>
   <g id="patch_11">
    <path d="M 300.200605 149.56 
L 495.87479 149.56 
" style="fill: none; stroke: #000000; stroke-width: 0.8; stroke-linejoin: miter; stroke-linecap: square"/>
   </g>
   <g id="text_27">
    <text style="fill: #2c4251; font: 12px 'DejaVu Sans', 'Bitstream Vera Sans', 'Computer Modern Sans Serif', 'Lucida Grande', 'Verdana', 'Geneva', 'Lucid', 'Arial', 'Helvetica', 'Avant Garde', sans-serif; text-anchor: start" x="349.119151" y="62.417696" transform="rotate(-0 349.119151 62.417696)">r = -0.59 p = 3.3e-05</text>
   </g>
   <g id="text_28">
    <text style="fill: #d16666; font: 12px 'DejaVu Sans', 'Bitstream Vera Sans', 'Computer Modern Sans Serif', 'Lucida Grande', 'Verdana', 'Geneva', 'Lucid', 'Arial', 'Helvetica', 'Avant Garde', sans-serif; text-anchor: start" x="349.119151" y="51.524908" transform="rotate(-0 349.119151 51.524908)">r = -0.39 p = 0.011</text>
   </g>
   <g id="text_29">
    <text style="fill: #a288e3; font: 12px 'DejaVu Sans', 'Bitstream Vera Sans', 'Computer Modern Sans Serif', 'Lucida Grande', 'Verdana', 'Geneva', 'Lucid', 'Arial', 'Helvetica', 'Avant Garde', sans-serif; text-anchor: start" x="349.119151" y="40.63212" transform="rotate(-0 349.119151 40.63212)">r = 0.72 p = 8.9e-08</text>
   </g>
  </g>
  <g id="axes_3">
   <g id="patch_12">
    <path d="M 535.38321 149.56 
L 731.057395 149.56 
L 731.057395 40.63212 
L 535.38321 40.63212 
z
" style="fill: #ffffff"/>
   </g>
   <g id="patch_13">
    <path d="M 544.277491 149.56 
L 544.277491 40.63212 
L 592.002902 40.63212 
L 592.002902 149.56 
z
" clip-path="url(#p9f21a08fd3)" style="fill: #ffa500; opacity: 0.5"/>
   </g>
   <g id="patch_14">
    <path d="M 596.341576 149.56 
L 596.341576 40.63212 
L 722.163114 40.63212 
L 722.163114 149.56 
z
" clip-path="url(#p9f21a08fd3)" style="fill: #808080; opacity: 0.5"/>
   </g>
   <g id="PolyCollection_7">
    <defs>
     <path id="m2b3613dd5d" d="M 544.277491 -76.129858 
L 544.277491 -90.767445 
L 548.616165 -92.250961 
L 552.954838 -100.398068 
L 557.293512 -101.740958 
L 561.632186 -91.77858 
L 565.97086 -89.426801 
L 570.309533 -93.518319 
L 574.648207 -97.678253 
L 578.986881 -99.086738 
L 583.325555 -100.993522 
L 587.664228 -89.992521 
L 592.002902 -99.112534 
L 596.341576 -95.287376 
L 600.680249 -97.198411 
L 605.018923 -106.574992 
L 609.357597 -101.699381 
L 613.696271 -103.047815 
L 618.034944 -103.084157 
L 622.373618 -106.423099 
L 626.712292 -110.708904 
L 631.050966 -107.659102 
L 635.389639 -118.257743 
L 639.728313 -115.843041 
L 644.066987 -107.177559 
L 648.405661 -111.979982 
L 652.744334 -109.685179 
L 657.083008 -112.337034 
L 661.421682 -115.762736 
L 665.760355 -117.602348 
L 670.099029 -110.627994 
L 674.437703 -116.546821 
L 678.776377 -108.402844 
L 683.11505 -115.193216 
L 687.453724 -121.167343 
L 691.792398 -115.051186 
L 696.131072 -114.467877 
L 700.469745 -118.895481 
L 704.808419 -115.102136 
L 709.147093 -116.374677 
L 713.485766 -115.50426 
L 717.82444 -115.285885 
L 722.163114 -110.693034 
L 722.163114 -99.372064 
L 722.163114 -99.372064 
L 717.82444 -102.760713 
L 713.485766 -101.826795 
L 709.147093 -104.827065 
L 704.808419 -103.335584 
L 700.469745 -104.012548 
L 696.131072 -103.601586 
L 691.792398 -102.59628 
L 687.453724 -108.385403 
L 683.11505 -101.853698 
L 678.776377 -97.122916 
L 674.437703 -102.032242 
L 670.099029 -98.175054 
L 665.760355 -104.16909 
L 661.421682 -103.627795 
L 657.083008 -100.370238 
L 652.744334 -98.85338 
L 648.405661 -101.381497 
L 644.066987 -98.820366 
L 639.728313 -103.306782 
L 635.389639 -105.506245 
L 631.050966 -97.570469 
L 626.712292 -98.160424 
L 622.373618 -94.643179 
L 618.034944 -91.777642 
L 613.696271 -93.97494 
L 609.357597 -89.498595 
L 605.018923 -93.827423 
L 600.680249 -87.393753 
L 596.341576 -82.145306 
L 592.002902 -83.180408 
L 587.664228 -77.041992 
L 583.325555 -82.290283 
L 578.986881 -80.111099 
L 574.648207 -80.30953 
L 570.309533 -77.194904 
L 565.97086 -72.152083 
L 561.632186 -75.900542 
L 557.293512 -84.629288 
L 552.954838 -82.497688 
L 548.616165 -75.257899 
L 544.277491 -76.129858 
z
" style="stroke: #2c4251; stroke-opacity: 0.5"/>
    </defs>
    <g clip-path="url(#p9f21a08fd3)">
     <use xlink:href="#m2b3613dd5d" x="0" y="195.12" style="fill: #2c4251; fill-opacity: 0.5; stroke: #2c4251; stroke-opacity: 0.5"/>
    </g>
   </g>
   <g id="PolyCollection_8">
    <defs>
     <path id="m4c285ac737" d="M 544.277491 -87.396522 
L 544.277491 -113.588585 
L 548.616165 -103.840891 
L 552.954838 -98.896903 
L 557.293512 -98.658524 
L 561.632186 -103.031336 
L 565.97086 -99.355233 
L 570.309533 -101.428402 
L 574.648207 -97.304084 
L 578.986881 -99.649035 
L 583.325555 -86.325327 
L 587.664228 -87.783704 
L 592.002902 -97.994713 
L 596.341576 -98.414284 
L 600.680249 -95.144785 
L 605.018923 -102.33685 
L 609.357597 -104.30087 
L 613.696271 -106.438879 
L 618.034944 -103.48241 
L 622.373618 -106.856071 
L 626.712292 -108.235751 
L 631.050966 -108.274574 
L 635.389639 -105.997708 
L 639.728313 -112.244608 
L 644.066987 -111.777565 
L 648.405661 -114.109029 
L 652.744334 -110.261666 
L 657.083008 -109.776126 
L 661.421682 -113.878252 
L 665.760355 -107.197069 
L 670.099029 -113.739547 
L 674.437703 -115.117846 
L 678.776377 -116.067488 
L 683.11505 -118.881591 
L 687.453724 -110.663293 
L 691.792398 -112.752318 
L 696.131072 -112.459215 
L 700.469745 -120.693739 
L 704.808419 -116.648946 
L 709.147093 -117.749643 
L 713.485766 -114.268785 
L 717.82444 -127.506348 
L 722.163114 -126.238473 
L 722.163114 -113.933571 
L 722.163114 -113.933571 
L 717.82444 -114.00811 
L 713.485766 -98.426876 
L 709.147093 -104.77443 
L 704.808419 -101.501609 
L 700.469745 -109.484432 
L 696.131072 -95.906943 
L 691.792398 -98.08828 
L 687.453724 -96.221927 
L 683.11505 -107.002105 
L 678.776377 -99.646174 
L 674.437703 -102.152588 
L 670.099029 -98.682357 
L 665.760355 -93.466563 
L 661.421682 -100.290138 
L 657.083008 -96.944533 
L 652.744334 -99.231451 
L 648.405661 -100.435318 
L 644.066987 -100.429424 
L 639.728313 -99.542751 
L 635.389639 -94.785443 
L 631.050966 -96.792996 
L 626.712292 -95.494723 
L 622.373618 -93.855701 
L 618.034944 -90.464336 
L 613.696271 -95.131705 
L 609.357597 -89.782165 
L 605.018923 -89.039097 
L 600.680249 -78.905667 
L 596.341576 -81.075855 
L 592.002902 -76.752879 
L 587.664228 -68.029167 
L 583.325555 -68.89332 
L 578.986881 -80.126641 
L 574.648207 -77.030698 
L 570.309533 -79.006784 
L 565.97086 -79.605277 
L 561.632186 -81.06959 
L 557.293512 -76.067134 
L 552.954838 -80.179774 
L 548.616165 -82.98544 
L 544.277491 -87.396522 
z
" style="stroke: #d16666; stroke-opacity: 0.5"/>
    </defs>
    <g clip-path="url(#p9f21a08fd3)">
     <use xlink:href="#m4c285ac737" x="0" y="195.12" style="fill: #d16666; fill-opacity: 0.5; stroke: #d16666; stroke-opacity: 0.5"/>
    </g>
   </g>
   <g id="PolyCollection_9">
    <defs>
     <path id="m67a0b5b329" d="M 544.277491 -118.921528 
L 544.277491 -135.831521 
L 548.616165 -137.057778 
L 552.954838 -135.922464 
L 557.293512 -130.453883 
L 561.632186 -125.284051 
L 565.97086 -133.766438 
L 570.309533 -136.390817 
L 574.648207 -143.019135 
L 578.986881 -131.754544 
L 583.325555 -137.941333 
L 587.664228 -137.894076 
L 592.002902 -131.547556 
L 596.341576 -108.22348 
L 600.680249 -100.80331 
L 605.018923 -103.992879 
L 609.357597 -95.443906 
L 613.696271 -93.039142 
L 618.034944 -95.312021 
L 622.373618 -96.332303 
L 626.712292 -93.68743 
L 631.050966 -96.907416 
L 635.389639 -94.301624 
L 639.728313 -93.66396 
L 644.066987 -92.999723 
L 648.405661 -91.265188 
L 652.744334 -99.61479 
L 657.083008 -89.834578 
L 661.421682 -88.592917 
L 665.760355 -89.767892 
L 670.099029 -92.373598 
L 674.437703 -89.225791 
L 678.776377 -90.211332 
L 683.11505 -94.397387 
L 687.453724 -88.148085 
L 691.792398 -91.161566 
L 696.131072 -92.508294 
L 700.469745 -91.18513 
L 704.808419 -84.827111 
L 709.147093 -88.237402 
L 713.485766 -92.538815 
L 717.82444 -90.590521 
L 722.163114 -95.903539 
L 722.163114 -84.77901 
L 722.163114 -84.77901 
L 717.82444 -80.809221 
L 713.485766 -82.617103 
L 709.147093 -79.989943 
L 704.808419 -78.570152 
L 700.469745 -82.312543 
L 696.131072 -84.989274 
L 691.792398 -82.125705 
L 687.453724 -81.703438 
L 683.11505 -83.15738 
L 678.776377 -81.975485 
L 674.437703 -82.021021 
L 670.099029 -83.509102 
L 665.760355 -83.032532 
L 661.421682 -80.817458 
L 657.083008 -81.815444 
L 652.744334 -84.413416 
L 648.405661 -82.812544 
L 644.066987 -81.548366 
L 639.728313 -84.183006 
L 635.389639 -86.658423 
L 631.050966 -86.374548 
L 626.712292 -84.749883 
L 622.373618 -86.451029 
L 618.034944 -88.364385 
L 613.696271 -83.699906 
L 609.357597 -87.935837 
L 605.018923 -92.71186 
L 600.680249 -92.657432 
L 596.341576 -97.337419 
L 592.002902 -116.982447 
L 587.664228 -123.37909 
L 583.325555 -124.248296 
L 578.986881 -117.80643 
L 574.648207 -127.294086 
L 570.309533 -122.182948 
L 565.97086 -118.295739 
L 561.632186 -114.08588 
L 557.293512 -118.207864 
L 552.954838 -121.707689 
L 548.616165 -122.821375 
L 544.277491 -118.921528 
z
" style="stroke: #a288e3; stroke-opacity: 0.5"/>
    </defs>
    <g clip-path="url(#p9f21a08fd3)">
     <use xlink:href="#m67a0b5b329" x="0" y="195.12" style="fill: #a288e3; fill-opacity: 0.5; stroke: #a288e3; stroke-opacity: 0.5"/>
    </g>
   </g>
   <g id="matplotlib.axis_5">
    <g id="xtick_10">
     <g id="line2d_26">
      <g>
       <use xlink:href="#m85ab1e456e" x="544.277491" y="149.56" style="stroke: #000000; stroke-width: 0.8"/>
      </g>
     </g>
     <g id="text_30">
      <text style="font: 12px 'DejaVu Sans', 'Bitstream Vera Sans', 'Computer Modern Sans Serif', 'Lucida Grande', 'Verdana', 'Geneva', 'Lucid', 'Arial', 'Helvetica', 'Avant Garde', sans-serif; text-anchor: middle" x="544.277491" y="165.678125" transform="rotate(-0 544.277491 165.678125)">0</text>
     </g>
    </g>
    <g id="xtick_11">
     <g id="line2d_27">
      <g>
       <use xlink:href="#m85ab1e456e" x="587.664228" y="149.56" style="stroke: #000000; stroke-width: 0.8"/>
      </g>
     </g>
     <g id="text_31">
      <text style="font: 12px 'DejaVu Sans', 'Bitstream Vera Sans', 'Computer Modern Sans Serif', 'Lucida Grande', 'Verdana', 'Geneva', 'Lucid', 'Arial', 'Helvetica', 'Avant Garde', sans-serif; text-anchor: middle" x="587.664228" y="165.678125" transform="rotate(-0 587.664228 165.678125)">10</text>
     </g>
    </g>
    <g id="xtick_12">
     <g id="line2d_28">
      <g>
       <use xlink:href="#m85ab1e456e" x="631.050966" y="149.56" style="stroke: #000000; stroke-width: 0.8"/>
      </g>
     </g>
     <g id="text_32">
      <text style="font: 12px 'DejaVu Sans', 'Bitstream Vera Sans', 'Computer Modern Sans Serif', 'Lucida Grande', 'Verdana', 'Geneva', 'Lucid', 'Arial', 'Helvetica', 'Avant Garde', sans-serif; text-anchor: middle" x="631.050966" y="165.678125" transform="rotate(-0 631.050966 165.678125)">20</text>
     </g>
    </g>
    <g id="xtick_13">
     <g id="line2d_29">
      <g>
       <use xlink:href="#m85ab1e456e" x="674.437703" y="149.56" style="stroke: #000000; stroke-width: 0.8"/>
      </g>
     </g>
     <g id="text_33">
      <text style="font: 12px 'DejaVu Sans', 'Bitstream Vera Sans', 'Computer Modern Sans Serif', 'Lucida Grande', 'Verdana', 'Geneva', 'Lucid', 'Arial', 'Helvetica', 'Avant Garde', sans-serif; text-anchor: middle" x="674.437703" y="165.678125" transform="rotate(-0 674.437703 165.678125)">30</text>
     </g>
    </g>
    <g id="xtick_14">
     <g id="line2d_30">
      <g>
       <use xlink:href="#m85ab1e456e" x="717.82444" y="149.56" style="stroke: #000000; stroke-width: 0.8"/>
      </g>
     </g>
     <g id="text_34">
      <text style="font: 12px 'DejaVu Sans', 'Bitstream Vera Sans', 'Computer Modern Sans Serif', 'Lucida Grande', 'Verdana', 'Geneva', 'Lucid', 'Arial', 'Helvetica', 'Avant Garde', sans-serif; text-anchor: middle" x="717.82444" y="165.678125" transform="rotate(-0 717.82444 165.678125)">40</text>
     </g>
    </g>
    <g id="text_35">
     <text style="font: 12px 'DejaVu Sans', 'Bitstream Vera Sans', 'Computer Modern Sans Serif', 'Lucida Grande', 'Verdana', 'Geneva', 'Lucid', 'Arial', 'Helvetica', 'Avant Garde', sans-serif; text-anchor: middle" x="633.220302" y="181.291875" transform="rotate(-0 633.220302 181.291875)">Times (bins)</text>
    </g>
   </g>
   <g id="matplotlib.axis_6">
    <g id="ytick_11">
     <g id="line2d_31">
      <g>
       <use xlink:href="#m0b1ad07bad" x="535.38321" y="149.56" style="stroke: #000000; stroke-width: 0.8"/>
      </g>
     </g>
     <g id="text_36">
      <text style="font: 12px 'DejaVu Sans', 'Bitstream Vera Sans', 'Computer Modern Sans Serif', 'Lucida Grande', 'Verdana', 'Geneva', 'Lucid', 'Arial', 'Helvetica', 'Avant Garde', sans-serif; text-anchor: end" x="528.38321" y="154.119063" transform="rotate(-0 528.38321 154.119063)">−2</text>
     </g>
    </g>
    <g id="ytick_12">
     <g id="line2d_32">
      <g>
       <use xlink:href="#m0b1ad07bad" x="535.38321" y="122.32803" style="stroke: #000000; stroke-width: 0.8"/>
      </g>
     </g>
     <g id="text_37">
      <text style="font: 12px 'DejaVu Sans', 'Bitstream Vera Sans', 'Computer Modern Sans Serif', 'Lucida Grande', 'Verdana', 'Geneva', 'Lucid', 'Arial', 'Helvetica', 'Avant Garde', sans-serif; text-anchor: end" x="528.38321" y="126.887093" transform="rotate(-0 528.38321 126.887093)">−1</text>
     </g>
    </g>
    <g id="ytick_13">
     <g id="line2d_33">
      <g>
       <use xlink:href="#m0b1ad07bad" x="535.38321" y="95.09606" style="stroke: #000000; stroke-width: 0.8"/>
      </g>
     </g>
     <g id="text_38">
      <text style="font: 12px 'DejaVu Sans', 'Bitstream Vera Sans', 'Computer Modern Sans Serif', 'Lucida Grande', 'Verdana', 'Geneva', 'Lucid', 'Arial', 'Helvetica', 'Avant Garde', sans-serif; text-anchor: end" x="528.38321" y="99.655123" transform="rotate(-0 528.38321 99.655123)">0</text>
     </g>
    </g>
    <g id="ytick_14">
     <g id="line2d_34">
      <g>
       <use xlink:href="#m0b1ad07bad" x="535.38321" y="67.86409" style="stroke: #000000; stroke-width: 0.8"/>
      </g>
     </g>
     <g id="text_39">
      <text style="font: 12px 'DejaVu Sans', 'Bitstream Vera Sans', 'Computer Modern Sans Serif', 'Lucida Grande', 'Verdana', 'Geneva', 'Lucid', 'Arial', 'Helvetica', 'Avant Garde', sans-serif; text-anchor: end" x="528.38321" y="72.423153" transform="rotate(-0 528.38321 72.423153)">1</text>
     </g>
    </g>
    <g id="ytick_15">
     <g id="line2d_35">
      <g>
       <use xlink:href="#m0b1ad07bad" x="535.38321" y="40.63212" style="stroke: #000000; stroke-width: 0.8"/>
      </g>
     </g>
     <g id="text_40">
      <text style="font: 12px 'DejaVu Sans', 'Bitstream Vera Sans', 'Computer Modern Sans Serif', 'Lucida Grande', 'Verdana', 'Geneva', 'Lucid', 'Arial', 'Helvetica', 'Avant Garde', sans-serif; text-anchor: end" x="528.38321" y="45.191183" transform="rotate(-0 528.38321 45.191183)">2</text>
     </g>
    </g>
   </g>
   <g id="line2d_36">
    <path d="M 544.277491 111.671348 
L 548.616165 111.36557 
L 552.954838 103.672122 
L 557.293512 101.934877 
L 561.632186 111.280439 
L 565.97086 114.330558 
L 570.309533 109.763389 
L 574.648207 106.126109 
L 578.986881 105.521082 
L 583.325555 103.478097 
L 587.664228 111.602743 
L 592.002902 103.973529 
L 596.341576 106.403659 
L 600.680249 102.823918 
L 605.018923 94.918793 
L 609.357597 99.521012 
L 613.696271 96.608622 
L 618.034944 97.6891 
L 622.373618 94.586861 
L 626.712292 90.685336 
L 631.050966 92.505215 
L 635.389639 83.238006 
L 639.728313 85.545088 
L 644.066987 92.121038 
L 648.405661 88.439261 
L 652.744334 90.85072 
L 657.083008 88.766364 
L 661.421682 85.424734 
L 665.760355 84.234281 
L 670.099029 90.718476 
L 674.437703 85.830469 
L 678.776377 92.35712 
L 683.11505 86.596543 
L 687.453724 80.343627 
L 691.792398 86.296267 
L 696.131072 86.085269 
L 700.469745 83.665986 
L 704.808419 85.90114 
L 709.147093 84.519129 
L 713.485766 86.454473 
L 717.82444 86.096701 
L 722.163114 90.087451 
" clip-path="url(#p9f21a08fd3)" style="fill: none; stroke: #2c4251; stroke-width: 1.5; stroke-linecap: square"/>
   </g>
   <g id="line2d_37">
    <path d="M 544.277491 94.627447 
L 548.616165 101.706835 
L 552.954838 105.581661 
L 557.293512 107.757171 
L 561.632186 103.069537 
L 565.97086 105.639745 
L 570.309533 104.902407 
L 574.648207 107.952609 
L 578.986881 105.232162 
L 583.325555 117.510677 
L 587.664228 117.213565 
L 592.002902 107.746204 
L 596.341576 105.37493 
L 600.680249 108.094774 
L 605.018923 99.432026 
L 609.357597 98.078482 
L 613.696271 94.334708 
L 618.034944 98.146627 
L 622.373618 94.764114 
L 626.712292 93.254763 
L 631.050966 92.586215 
L 635.389639 94.728424 
L 639.728313 89.226321 
L 644.066987 89.016505 
L 648.405661 87.847826 
L 652.744334 90.373442 
L 657.083008 91.759671 
L 661.421682 88.035805 
L 665.760355 94.788184 
L 670.099029 88.909048 
L 674.437703 86.484783 
L 678.776377 87.263169 
L 683.11505 82.178152 
L 687.453724 91.67739 
L 691.792398 89.699701 
L 696.131072 90.936921 
L 700.469745 80.030915 
L 704.808419 86.044722 
L 709.147093 83.857964 
L 713.485766 88.77217 
L 717.82444 74.362771 
L 722.163114 75.033978 
" clip-path="url(#p9f21a08fd3)" style="fill: none; stroke: #d16666; stroke-width: 1.5; stroke-linecap: square"/>
   </g>
   <g id="line2d_38">
    <path d="M 544.277491 67.743476 
L 548.616165 65.180424 
L 552.954838 66.304924 
L 557.293512 70.789126 
L 561.632186 75.435035 
L 565.97086 69.088912 
L 570.309533 65.833117 
L 574.648207 59.963389 
L 578.986881 70.339513 
L 583.325555 64.025186 
L 587.664228 64.483417 
L 592.002902 70.854999 
L 596.341576 92.33955 
L 600.680249 98.389629 
L 605.018923 96.767631 
L 609.357597 103.430129 
L 613.696271 106.750476 
L 618.034944 103.281797 
L 622.373618 103.728334 
L 626.712292 105.901344 
L 631.050966 103.479018 
L 635.389639 104.639977 
L 639.728313 106.196517 
L 644.066987 107.845956 
L 648.405661 108.081134 
L 652.744334 103.105897 
L 657.083008 109.294989 
L 661.421682 110.414813 
L 665.760355 108.719788 
L 670.099029 107.17865 
L 674.437703 109.496594 
L 678.776377 109.026591 
L 683.11505 106.342617 
L 687.453724 110.194238 
L 691.792398 108.476365 
L 696.131072 106.371216 
L 700.469745 108.371164 
L 704.808419 113.421368 
L 709.147093 111.006327 
L 713.485766 107.542041 
L 717.82444 109.420129 
L 722.163114 104.778726 
" clip-path="url(#p9f21a08fd3)" style="fill: none; stroke: #a288e3; stroke-width: 1.5; stroke-linecap: square"/>
   </g>
   <g id="patch_15">
    <path d="M 535.38321 149.56 
L 535.38321 40.63212 
" style="fill: none; stroke: #000000; stroke-width: 0.8; stroke-linejoin: miter; stroke-linecap: square"/>
   </g>
   <g id="patch_16">
    <path d="M 535.38321 149.56 
L 731.057395 149.56 
" style="fill: none; stroke: #000000; stroke-width: 0.8; stroke-linejoin: miter; stroke-linecap: square"/>
   </g>
   <g id="text_41">
    <text style="fill: #2c4251; font: 12px 'DejaVu Sans', 'Bitstream Vera Sans', 'Computer Modern Sans Serif', 'Lucida Grande', 'Verdana', 'Geneva', 'Lucid', 'Arial', 'Helvetica', 'Avant Garde', sans-serif; text-anchor: start" x="584.301756" y="62.417696" transform="rotate(-0 584.301756 62.417696)">r = 0.89 p = 5.9e-15</text>
   </g>
   <g id="text_42">
    <text style="fill: #d16666; font: 12px 'DejaVu Sans', 'Bitstream Vera Sans', 'Computer Modern Sans Serif', 'Lucida Grande', 'Verdana', 'Geneva', 'Lucid', 'Arial', 'Helvetica', 'Avant Garde', sans-serif; text-anchor: start" x="584.301756" y="51.524908" transform="rotate(-0 584.301756 51.524908)">r = 0.84 p = 2.9e-12</text>
   </g>
   <g id="text_43">
    <text style="fill: #a288e3; font: 12px 'DejaVu Sans', 'Bitstream Vera Sans', 'Computer Modern Sans Serif', 'Lucida Grande', 'Verdana', 'Geneva', 'Lucid', 'Arial', 'Helvetica', 'Avant Garde', sans-serif; text-anchor: start" x="584.301756" y="40.63212" transform="rotate(-0 584.301756 40.63212)">r = -0.85 p = 1.9e-12</text>
   </g>
  </g>
  <g id="axes_4">
   <g id="patch_17">
    <path d="M 770.565815 149.56 
L 966.24 149.56 
L 966.24 40.63212 
L 770.565815 40.63212 
z
" style="fill: #ffffff"/>
   </g>
   <g id="patch_18">
    <path d="M 779.460096 149.56 
L 779.460096 40.63212 
L 827.185507 40.63212 
L 827.185507 149.56 
z
" clip-path="url(#p834565da80)" style="fill: #ffa500; opacity: 0.5"/>
   </g>
   <g id="patch_19">
    <path d="M 831.524181 149.56 
L 831.524181 40.63212 
L 957.345719 40.63212 
L 957.345719 149.56 
z
" clip-path="url(#p834565da80)" style="fill: #008bc8; opacity: 0.5"/>
   </g>
   <g id="PolyCollection_10">
    <defs>
     <path id="med0e89a29a" d="M 779.460096 -90.198647 
L 779.460096 -107.516329 
L 783.79877 -115.435588 
L 788.137443 -110.191292 
L 792.476117 -101.323836 
L 796.814791 -104.649565 
L 801.153465 -111.638775 
L 805.492138 -101.237883 
L 809.830812 -115.747056 
L 814.169486 -98.704718 
L 818.508159 -102.394266 
L 822.846833 -101.504152 
L 827.185507 -109.081374 
L 831.524181 -110.592754 
L 835.862854 -105.473583 
L 840.201528 -107.83742 
L 844.540202 -104.390268 
L 848.878876 -104.171003 
L 853.217549 -109.989377 
L 857.556223 -110.024616 
L 861.894897 -108.034468 
L 866.233571 -100.755452 
L 870.572244 -108.143521 
L 874.910918 -101.34372 
L 879.249592 -101.049252 
L 883.588265 -100.960447 
L 887.926939 -105.771135 
L 892.265613 -102.934847 
L 896.604287 -99.508751 
L 900.94296 -106.129894 
L 905.281634 -112.936262 
L 909.620308 -108.886348 
L 913.958982 -104.222001 
L 918.297655 -113.10424 
L 922.636329 -106.298571 
L 926.975003 -111.31504 
L 931.313676 -106.809637 
L 935.65235 -108.672679 
L 939.991024 -111.092373 
L 944.329698 -108.155181 
L 948.668371 -109.040656 
L 953.007045 -107.417327 
L 957.345719 -119.08745 
L 957.345719 -101.746861 
L 957.345719 -101.746861 
L 953.007045 -96.088886 
L 948.668371 -96.832648 
L 944.329698 -94.49134 
L 939.991024 -97.591266 
L 935.65235 -96.194693 
L 931.313676 -94.141206 
L 926.975003 -99.287961 
L 922.636329 -92.09346 
L 918.297655 -98.556459 
L 913.958982 -91.319656 
L 909.620308 -95.993019 
L 905.281634 -100.206364 
L 900.94296 -93.096325 
L 896.604287 -89.950855 
L 892.265613 -90.909232 
L 887.926939 -93.985309 
L 883.588265 -89.283718 
L 879.249592 -89.64199 
L 874.910918 -90.277973 
L 870.572244 -96.497715 
L 866.233571 -89.525885 
L 861.894897 -96.806848 
L 857.556223 -96.982055 
L 853.217549 -97.9843 
L 848.878876 -91.448673 
L 844.540202 -89.046816 
L 840.201528 -96.546107 
L 835.862854 -92.171534 
L 831.524181 -99.296651 
L 827.185507 -88.356271 
L 822.846833 -85.378116 
L 818.508159 -85.328091 
L 814.169486 -83.70942 
L 809.830812 -97.361699 
L 805.492138 -83.801598 
L 801.153465 -94.521726 
L 796.814791 -87.674059 
L 792.476117 -88.452848 
L 788.137443 -89.963724 
L 783.79877 -95.69585 
L 779.460096 -90.198647 
z
" style="stroke: #2c4251; stroke-opacity: 0.5"/>
    </defs>
    <g clip-path="url(#p834565da80)">
     <use xlink:href="#med0e89a29a" x="0" y="195.12" style="fill: #2c4251; fill-opacity: 0.5; stroke: #2c4251; stroke-opacity: 0.5"/>
    </g>
   </g>
   <g id="PolyCollection_11">
    <defs>
     <path id="m01cafddfde" d="M 779.460096 -99.246332 
L 779.460096 -116.33487 
L 783.79877 -119.832096 
L 788.137443 -115.845728 
L 792.476117 -111.894345 
L 796.814791 -113.135636 
L 801.153465 -116.145454 
L 805.492138 -124.906457 
L 809.830812 -114.666497 
L 814.169486 -118.079574 
L 818.508159 -119.075452 
L 822.846833 -119.031201 
L 827.185507 -121.110191 
L 831.524181 -106.444517 
L 835.862854 -104.638765 
L 840.201528 -99.711778 
L 844.540202 -102.241859 
L 848.878876 -105.650681 
L 853.217549 -99.139345 
L 857.556223 -105.595095 
L 861.894897 -103.198081 
L 866.233571 -105.020467 
L 870.572244 -102.495782 
L 874.910918 -100.5676 
L 879.249592 -102.456138 
L 883.588265 -102.991049 
L 887.926939 -98.368099 
L 892.265613 -98.828352 
L 896.604287 -97.488228 
L 900.94296 -97.954495 
L 905.281634 -101.268826 
L 909.620308 -104.199762 
L 913.958982 -102.675541 
L 918.297655 -105.264474 
L 922.636329 -109.254547 
L 926.975003 -104.605675 
L 931.313676 -109.374572 
L 935.65235 -107.48377 
L 939.991024 -108.428077 
L 944.329698 -103.091608 
L 948.668371 -106.053395 
L 953.007045 -109.764224 
L 957.345719 -111.876094 
L 957.345719 -96.659568 
L 957.345719 -96.659568 
L 953.007045 -96.426118 
L 948.668371 -92.199383 
L 944.329698 -90.846631 
L 939.991024 -94.087651 
L 935.65235 -94.188444 
L 931.313676 -94.102738 
L 926.975003 -90.12855 
L 922.636329 -95.886493 
L 918.297655 -92.540492 
L 913.958982 -89.692222 
L 909.620308 -92.729707 
L 905.281634 -87.895716 
L 900.94296 -83.839902 
L 896.604287 -86.199816 
L 892.265613 -87.407606 
L 887.926939 -86.676213 
L 883.588265 -88.231434 
L 879.249592 -89.177684 
L 874.910918 -89.097166 
L 870.572244 -89.004333 
L 866.233571 -93.691639 
L 861.894897 -88.675471 
L 857.556223 -89.070947 
L 853.217549 -85.184999 
L 848.878876 -90.578177 
L 844.540202 -89.502578 
L 840.201528 -86.727111 
L 835.862854 -88.847958 
L 831.524181 -94.632188 
L 827.185507 -102.244153 
L 822.846833 -98.717283 
L 818.508159 -99.094205 
L 814.169486 -94.75134 
L 809.830812 -96.209294 
L 805.492138 -100.985541 
L 801.153465 -97.940096 
L 796.814791 -92.224463 
L 792.476117 -92.726419 
L 788.137443 -92.278056 
L 783.79877 -95.476445 
L 779.460096 -99.246332 
z
" style="stroke: #d16666; stroke-opacity: 0.5"/>
    </defs>
    <g clip-path="url(#p834565da80)">
     <use xlink:href="#m01cafddfde" x="0" y="195.12" style="fill: #d16666; fill-opacity: 0.5; stroke: #d16666; stroke-opacity: 0.5"/>
    </g>
   </g>
   <g id="PolyCollection_12">
    <defs>
     <path id="mbce06da69e" d="M 779.460096 -67.34313 
L 779.460096 -84.072349 
L 783.79877 -91.569176 
L 788.137443 -92.385501 
L 792.476117 -92.693453 
L 796.814791 -95.977792 
L 801.153465 -93.436787 
L 805.492138 -96.184679 
L 809.830812 -99.709328 
L 814.169486 -103.563784 
L 818.508159 -99.820788 
L 822.846833 -92.500659 
L 827.185507 -98.707265 
L 831.524181 -108.285971 
L 835.862854 -114.003855 
L 840.201528 -111.830398 
L 844.540202 -115.348872 
L 848.878876 -115.729788 
L 853.217549 -114.259824 
L 857.556223 -112.897658 
L 861.894897 -115.817965 
L 866.233571 -111.522285 
L 870.572244 -107.298869 
L 874.910918 -111.294539 
L 879.249592 -116.235687 
L 883.588265 -111.978271 
L 887.926939 -115.114723 
L 892.265613 -113.352276 
L 896.604287 -112.067653 
L 900.94296 -111.451224 
L 905.281634 -108.477897 
L 909.620308 -109.035487 
L 913.958982 -113.67896 
L 918.297655 -107.539205 
L 922.636329 -112.243858 
L 926.975003 -110.98781 
L 931.313676 -112.12395 
L 935.65235 -107.508472 
L 939.991024 -107.167157 
L 944.329698 -110.531301 
L 948.668371 -109.990202 
L 953.007045 -109.314452 
L 957.345719 -104.321255 
L 957.345719 -92.845722 
L 957.345719 -92.845722 
L 953.007045 -96.246629 
L 948.668371 -95.234572 
L 944.329698 -96.033324 
L 939.991024 -93.844363 
L 935.65235 -96.917693 
L 931.313676 -100.033616 
L 926.975003 -100.071294 
L 922.636329 -100.74118 
L 918.297655 -95.740086 
L 913.958982 -100.933137 
L 909.620308 -97.494469 
L 905.281634 -98.207841 
L 900.94296 -100.954734 
L 896.604287 -101.962939 
L 892.265613 -103.047456 
L 887.926939 -101.357499 
L 883.588265 -99.897129 
L 879.249592 -102.435705 
L 874.910918 -99.171484 
L 870.572244 -96.023614 
L 866.233571 -99.909338 
L 861.894897 -102.926318 
L 857.556223 -101.428425 
L 853.217549 -100.438167 
L 848.878876 -102.493293 
L 844.540202 -103.5164 
L 840.201528 -98.248 
L 835.862854 -101.554676 
L 831.524181 -97.263268 
L 827.185507 -80.818111 
L 822.846833 -76.374199 
L 818.508159 -83.383494 
L 814.169486 -86.806287 
L 809.830812 -83.081098 
L 805.492138 -79.235523 
L 801.153465 -76.712261 
L 796.814791 -80.249144 
L 792.476117 -77.754356 
L 788.137443 -74.985193 
L 783.79877 -76.264367 
L 779.460096 -67.34313 
z
" style="stroke: #a288e3; stroke-opacity: 0.5"/>
    </defs>
    <g clip-path="url(#p834565da80)">
     <use xlink:href="#mbce06da69e" x="0" y="195.12" style="fill: #a288e3; fill-opacity: 0.5; stroke: #a288e3; stroke-opacity: 0.5"/>
    </g>
   </g>
   <g id="matplotlib.axis_7">
    <g id="xtick_15">
     <g id="line2d_39">
      <g>
       <use xlink:href="#m85ab1e456e" x="779.460096" y="149.56" style="stroke: #000000; stroke-width: 0.8"/>
      </g>
     </g>
     <g id="text_44">
      <text style="font: 12px 'DejaVu Sans', 'Bitstream Vera Sans', 'Computer Modern Sans Serif', 'Lucida Grande', 'Verdana', 'Geneva', 'Lucid', 'Arial', 'Helvetica', 'Avant Garde', sans-serif; text-anchor: middle" x="779.460096" y="165.678125" transform="rotate(-0 779.460096 165.678125)">0</text>
     </g>
    </g>
    <g id="xtick_16">
     <g id="line2d_40">
      <g>
       <use xlink:href="#m85ab1e456e" x="822.846833" y="149.56" style="stroke: #000000; stroke-width: 0.8"/>
      </g>
     </g>
     <g id="text_45">
      <text style="font: 12px 'DejaVu Sans', 'Bitstream Vera Sans', 'Computer Modern Sans Serif', 'Lucida Grande', 'Verdana', 'Geneva', 'Lucid', 'Arial', 'Helvetica', 'Avant Garde', sans-serif; text-anchor: middle" x="822.846833" y="165.678125" transform="rotate(-0 822.846833 165.678125)">10</text>
     </g>
    </g>
    <g id="xtick_17">
     <g id="line2d_41">
      <g>
       <use xlink:href="#m85ab1e456e" x="866.233571" y="149.56" style="stroke: #000000; stroke-width: 0.8"/>
      </g>
     </g>
     <g id="text_46">
      <text style="font: 12px 'DejaVu Sans', 'Bitstream Vera Sans', 'Computer Modern Sans Serif', 'Lucida Grande', 'Verdana', 'Geneva', 'Lucid', 'Arial', 'Helvetica', 'Avant Garde', sans-serif; text-anchor: middle" x="866.233571" y="165.678125" transform="rotate(-0 866.233571 165.678125)">20</text>
     </g>
    </g>
    <g id="xtick_18">
     <g id="line2d_42">
      <g>
       <use xlink:href="#m85ab1e456e" x="909.620308" y="149.56" style="stroke: #000000; stroke-width: 0.8"/>
      </g>
     </g>
     <g id="text_47">
      <text style="font: 12px 'DejaVu Sans', 'Bitstream Vera Sans', 'Computer Modern Sans Serif', 'Lucida Grande', 'Verdana', 'Geneva', 'Lucid', 'Arial', 'Helvetica', 'Avant Garde', sans-serif; text-anchor: middle" x="909.620308" y="165.678125" transform="rotate(-0 909.620308 165.678125)">30</text>
     </g>
    </g>
    <g id="xtick_19">
     <g id="line2d_43">
      <g>
       <use xlink:href="#m85ab1e456e" x="953.007045" y="149.56" style="stroke: #000000; stroke-width: 0.8"/>
      </g>
     </g>
     <g id="text_48">
      <text style="font: 12px 'DejaVu Sans', 'Bitstream Vera Sans', 'Computer Modern Sans Serif', 'Lucida Grande', 'Verdana', 'Geneva', 'Lucid', 'Arial', 'Helvetica', 'Avant Garde', sans-serif; text-anchor: middle" x="953.007045" y="165.678125" transform="rotate(-0 953.007045 165.678125)">40</text>
     </g>
    </g>
    <g id="text_49">
     <text style="font: 12px 'DejaVu Sans', 'Bitstream Vera Sans', 'Computer Modern Sans Serif', 'Lucida Grande', 'Verdana', 'Geneva', 'Lucid', 'Arial', 'Helvetica', 'Avant Garde', sans-serif; text-anchor: middle" x="868.402907" y="181.291875" transform="rotate(-0 868.402907 181.291875)">Times (bins)</text>
    </g>
   </g>
   <g id="matplotlib.axis_8">
    <g id="ytick_16">
     <g id="line2d_44">
      <g>
       <use xlink:href="#m0b1ad07bad" x="770.565815" y="149.56" style="stroke: #000000; stroke-width: 0.8"/>
      </g>
     </g>
     <g id="text_50">
      <text style="font: 12px 'DejaVu Sans', 'Bitstream Vera Sans', 'Computer Modern Sans Serif', 'Lucida Grande', 'Verdana', 'Geneva', 'Lucid', 'Arial', 'Helvetica', 'Avant Garde', sans-serif; text-anchor: end" x="763.565815" y="154.119063" transform="rotate(-0 763.565815 154.119063)">−2</text>
     </g>
    </g>
    <g id="ytick_17">
     <g id="line2d_45">
      <g>
       <use xlink:href="#m0b1ad07bad" x="770.565815" y="122.32803" style="stroke: #000000; stroke-width: 0.8"/>
      </g>
     </g>
     <g id="text_51">
      <text style="font: 12px 'DejaVu Sans', 'Bitstream Vera Sans', 'Computer Modern Sans Serif', 'Lucida Grande', 'Verdana', 'Geneva', 'Lucid', 'Arial', 'Helvetica', 'Avant Garde', sans-serif; text-anchor: end" x="763.565815" y="126.887093" transform="rotate(-0 763.565815 126.887093)">−1</text>
     </g>
    </g>
    <g id="ytick_18">
     <g id="line2d_46">
      <g>
       <use xlink:href="#m0b1ad07bad" x="770.565815" y="95.09606" style="stroke: #000000; stroke-width: 0.8"/>
      </g>
     </g>
     <g id="text_52">
      <text style="font: 12px 'DejaVu Sans', 'Bitstream Vera Sans', 'Computer Modern Sans Serif', 'Lucida Grande', 'Verdana', 'Geneva', 'Lucid', 'Arial', 'Helvetica', 'Avant Garde', sans-serif; text-anchor: end" x="763.565815" y="99.655123" transform="rotate(-0 763.565815 99.655123)">0</text>
     </g>
    </g>
    <g id="ytick_19">
     <g id="line2d_47">
      <g>
       <use xlink:href="#m0b1ad07bad" x="770.565815" y="67.86409" style="stroke: #000000; stroke-width: 0.8"/>
      </g>
     </g>
     <g id="text_53">
      <text style="font: 12px 'DejaVu Sans', 'Bitstream Vera Sans', 'Computer Modern Sans Serif', 'Lucida Grande', 'Verdana', 'Geneva', 'Lucid', 'Arial', 'Helvetica', 'Avant Garde', sans-serif; text-anchor: end" x="763.565815" y="72.423153" transform="rotate(-0 763.565815 72.423153)">1</text>
     </g>
    </g>
    <g id="ytick_20">
     <g id="line2d_48">
      <g>
       <use xlink:href="#m0b1ad07bad" x="770.565815" y="40.63212" style="stroke: #000000; stroke-width: 0.8"/>
      </g>
     </g>
     <g id="text_54">
      <text style="font: 12px 'DejaVu Sans', 'Bitstream Vera Sans', 'Computer Modern Sans Serif', 'Lucida Grande', 'Verdana', 'Geneva', 'Lucid', 'Arial', 'Helvetica', 'Avant Garde', sans-serif; text-anchor: end" x="763.565815" y="45.191183" transform="rotate(-0 763.565815 45.191183)">2</text>
     </g>
    </g>
   </g>
   <g id="line2d_49">
    <path d="M 779.460096 96.262512 
L 783.79877 89.554281 
L 788.137443 95.042492 
L 792.476117 100.231658 
L 796.814791 98.958188 
L 801.153465 92.039749 
L 805.492138 102.600259 
L 809.830812 88.565622 
L 814.169486 103.912931 
L 818.508159 101.258822 
L 822.846833 101.678866 
L 827.185507 96.401178 
L 831.524181 90.175298 
L 835.862854 96.297441 
L 840.201528 92.928236 
L 844.540202 98.401458 
L 848.878876 97.310162 
L 853.217549 91.133161 
L 857.556223 91.616665 
L 861.894897 92.699342 
L 866.233571 99.979332 
L 870.572244 92.799382 
L 874.910918 99.309154 
L 879.249592 99.774379 
L 883.588265 99.997918 
L 887.926939 95.241778 
L 892.265613 98.19796 
L 896.604287 100.390197 
L 900.94296 95.50689 
L 905.281634 88.548687 
L 909.620308 92.680317 
L 913.958982 97.349171 
L 918.297655 89.28965 
L 922.636329 95.923984 
L 926.975003 89.818499 
L 931.313676 94.644579 
L 935.65235 92.686314 
L 939.991024 90.77818 
L 944.329698 93.79674 
L 948.668371 92.183348 
L 953.007045 93.366893 
L 957.345719 84.702844 
" clip-path="url(#p834565da80)" style="fill: none; stroke: #2c4251; stroke-width: 1.5; stroke-linecap: square"/>
   </g>
   <g id="line2d_50">
    <path d="M 779.460096 87.329399 
L 783.79877 87.46573 
L 788.137443 91.058108 
L 792.476117 92.809618 
L 796.814791 92.439951 
L 801.153465 88.077225 
L 805.492138 82.174001 
L 809.830812 89.682104 
L 814.169486 88.704543 
L 818.508159 86.035172 
L 822.846833 86.245758 
L 827.185507 83.442828 
L 831.524181 94.581648 
L 835.862854 98.376638 
L 840.201528 101.900555 
L 844.540202 99.247781 
L 848.878876 97.005571 
L 853.217549 102.957828 
L 857.556223 97.786979 
L 861.894897 99.183224 
L 866.233571 95.763947 
L 870.572244 99.369942 
L 874.910918 100.287617 
L 879.249592 99.303089 
L 883.588265 99.508758 
L 887.926939 102.597844 
L 892.265613 102.002021 
L 896.604287 103.275978 
L 900.94296 104.222802 
L 905.281634 100.537729 
L 909.620308 96.655265 
L 913.958982 98.936118 
L 918.297655 96.217517 
L 922.636329 92.54948 
L 926.975003 97.752888 
L 931.313676 93.381345 
L 935.65235 94.283893 
L 939.991024 93.862136 
L 944.329698 98.15088 
L 948.668371 95.993611 
L 953.007045 92.024829 
L 957.345719 90.852169 
" clip-path="url(#p834565da80)" style="fill: none; stroke: #d16666; stroke-width: 1.5; stroke-linecap: square"/>
   </g>
   <g id="line2d_51">
    <path d="M 779.460096 119.412261 
L 783.79877 111.203229 
L 788.137443 111.434653 
L 792.476117 109.896096 
L 796.814791 107.006532 
L 801.153465 110.045476 
L 805.492138 107.409899 
L 809.830812 103.724787 
L 814.169486 99.934964 
L 818.508159 103.517859 
L 822.846833 110.682571 
L 827.185507 105.357312 
L 831.524181 92.34538 
L 835.862854 87.340734 
L 840.201528 90.080801 
L 844.540202 85.687364 
L 848.878876 86.008459 
L 853.217549 87.771004 
L 857.556223 87.956958 
L 861.894897 85.747859 
L 866.233571 89.404189 
L 870.572244 93.458758 
L 874.910918 89.886989 
L 879.249592 85.784304 
L 883.588265 89.1823 
L 887.926939 86.883889 
L 892.265613 86.920134 
L 896.604287 88.104704 
L 900.94296 88.917021 
L 905.281634 91.777131 
L 909.620308 91.855022 
L 913.958982 87.813951 
L 918.297655 93.480354 
L 922.636329 88.627481 
L 926.975003 89.590448 
L 931.313676 89.041217 
L 935.65235 92.906917 
L 939.991024 94.61424 
L 944.329698 91.837688 
L 948.668371 92.507613 
L 953.007045 92.339459 
L 957.345719 96.536512 
" clip-path="url(#p834565da80)" style="fill: none; stroke: #a288e3; stroke-width: 1.5; stroke-linecap: square"/>
   </g>
   <g id="patch_20">
    <path d="M 770.565815 149.56 
L 770.565815 40.63212 
" style="fill: none; stroke: #000000; stroke-width: 0.8; stroke-linejoin: miter; stroke-linecap: square"/>
   </g>
   <g id="patch_21">
    <path d="M 770.565815 149.56 
L 966.24 149.56 
" style="fill: none; stroke: #000000; stroke-width: 0.8; stroke-linejoin: miter; stroke-linecap: square"/>
   </g>
   <g id="text_55">
    <text style="fill: #2c4251; font: 12px 'DejaVu Sans', 'Bitstream Vera Sans', 'Computer Modern Sans Serif', 'Lucida Grande', 'Verdana', 'Geneva', 'Lucid', 'Arial', 'Helvetica', 'Avant Garde', sans-serif; text-anchor: start" x="819.484361" y="62.417696" transform="rotate(-0 819.484361 62.417696)">r = 0.35 p = 0.021</text>
   </g>
   <g id="text_56">
    <text style="fill: #d16666; font: 12px 'DejaVu Sans', 'Bitstream Vera Sans', 'Computer Modern Sans Serif', 'Lucida Grande', 'Verdana', 'Geneva', 'Lucid', 'Arial', 'Helvetica', 'Avant Garde', sans-serif; text-anchor: start" x="819.484361" y="51.524908" transform="rotate(-0 819.484361 51.524908)">r = -0.45 p = 0.0026</text>
   </g>
   <g id="text_57">
    <text style="fill: #a288e3; font: 12px 'DejaVu Sans', 'Bitstream Vera Sans', 'Computer Modern Sans Serif', 'Lucida Grande', 'Verdana', 'Geneva', 'Lucid', 'Arial', 'Helvetica', 'Avant Garde', sans-serif; text-anchor: start" x="819.484361" y="40.63212" transform="rotate(-0 819.484361 40.63212)">r = 0.66 p = 2e-06</text>
   </g>
   <g id="legend_1">
    <g id="patch_22">
     <path d="M 974.64 156.24837 
L 1123.57125 156.24837 
Q 1125.97125 156.24837 1125.97125 153.84837 
L 1125.97125 49.03212 
Q 1125.97125 46.63212 1123.57125 46.63212 
L 974.64 46.63212 
Q 972.24 46.63212 972.24 49.03212 
L 972.24 153.84837 
Q 972.24 156.24837 974.64 156.24837 
z
" style="fill: #ffffff; opacity: 0.8; stroke: #cccccc; stroke-linejoin: miter"/>
    </g>
    <g id="patch_23">
     <path d="M 977.04 60.550245 
L 1001.04 60.550245 
L 1001.04 52.150245 
L 977.04 52.150245 
z
" style="fill: #008bc8"/>
    </g>
    <g id="text_58">
     <text style="font: 12px 'DejaVu Sans', 'Bitstream Vera Sans', 'Computer Modern Sans Serif', 'Lucida Grande', 'Verdana', 'Geneva', 'Lucid', 'Arial', 'Helvetica', 'Avant Garde', sans-serif; text-anchor: start" x="1010.64" y="60.550245" transform="rotate(-0 1010.64 60.550245)">WAKE_HOMECAGE</text>
    </g>
    <g id="patch_24">
     <path d="M 977.04 78.497745 
L 1001.04 78.497745 
L 1001.04 70.097745 
L 977.04 70.097745 
z
" style="fill: #808080"/>
    </g>
    <g id="text_59">
     <text style="font: 12px 'DejaVu Sans', 'Bitstream Vera Sans', 'Computer Modern Sans Serif', 'Lucida Grande', 'Verdana', 'Geneva', 'Lucid', 'Arial', 'Helvetica', 'Avant Garde', sans-serif; text-anchor: start" x="1010.64" y="78.497745" transform="rotate(-0 1010.64 78.497745)">NREM</text>
    </g>
    <g id="patch_25">
     <path d="M 977.04 96.111495 
L 1001.04 96.111495 
L 1001.04 87.711495 
L 977.04 87.711495 
z
" style="fill: #ffa500"/>
    </g>
    <g id="text_60">
     <text style="font: 12px 'DejaVu Sans', 'Bitstream Vera Sans', 'Computer Modern Sans Serif', 'Lucida Grande', 'Verdana', 'Geneva', 'Lucid', 'Arial', 'Helvetica', 'Avant Garde', sans-serif; text-anchor: start" x="1010.64" y="96.111495" transform="rotate(-0 1010.64 96.111495)">REM</text>
    </g>
    <g id="line2d_52">
     <path d="M 977.04 109.525245 
L 989.04 109.525245 
L 1001.04 109.525245 
" style="fill: none; stroke: #d16666; stroke-width: 2; stroke-linecap: square"/>
    </g>
    <g id="text_61">
     <text style="font: 12px 'DejaVu Sans', 'Bitstream Vera Sans', 'Computer Modern Sans Serif', 'Lucida Grande', 'Verdana', 'Geneva', 'Lucid', 'Arial', 'Helvetica', 'Avant Garde', sans-serif; text-anchor: start" x="1010.64" y="113.725245" transform="rotate(-0 1010.64 113.725245)">EIB</text>
    </g>
    <g id="line2d_53">
     <path d="M 977.04 127.138995 
L 989.04 127.138995 
L 1001.04 127.138995 
" style="fill: none; stroke: #a288e3; stroke-width: 2; stroke-linecap: square"/>
    </g>
    <g id="text_62">
     <text style="font: 12px 'DejaVu Sans', 'Bitstream Vera Sans', 'Computer Modern Sans Serif', 'Lucida Grande', 'Verdana', 'Geneva', 'Lucid', 'Arial', 'Helvetica', 'Avant Garde', sans-serif; text-anchor: start" x="1010.64" y="131.338995" transform="rotate(-0 1010.64 131.338995)">CV</text>
    </g>
    <g id="line2d_54">
     <path d="M 977.04 144.752745 
L 989.04 144.752745 
L 1001.04 144.752745 
" style="fill: none; stroke: #2c4251; stroke-width: 2; stroke-linecap: square"/>
    </g>
    <g id="text_63">
     <text style="font: 12px 'DejaVu Sans', 'Bitstream Vera Sans', 'Computer Modern Sans Serif', 'Lucida Grande', 'Verdana', 'Geneva', 'Lucid', 'Arial', 'Helvetica', 'Avant Garde', sans-serif; text-anchor: start" x="1010.64" y="148.952745" transform="rotate(-0 1010.64 148.952745)">Sync</text>
    </g>
   </g>
  </g>
 </g>
 <defs>
  <clipPath id="p089d4adbad">
   <rect x="65.018" y="40.63212" width="195.674185" height="108.92788"/>
  </clipPath>
  <clipPath id="pb6968abf22">
   <rect x="300.200605" y="40.63212" width="195.674185" height="108.92788"/>
  </clipPath>
  <clipPath id="p9f21a08fd3">
   <rect x="535.38321" y="40.63212" width="195.674185" height="108.92788"/>
  </clipPath>
  <clipPath id="p834565da80">
   <rect x="770.565815" y="40.63212" width="195.674185" height="108.92788"/>
  </clipPath>
 </defs>
</svg>
