<?xml version="1.0" encoding="utf-8" standalone="no"?>
<!DOCTYPE svg PUBLIC "-//W3C//DTD SVG 1.1//EN"
  "http://www.w3.org/Graphics/SVG/1.1/DTD/svg11.dtd">
<svg xmlns:xlink="http://www.w3.org/1999/xlink" width="1152pt" height="576pt" viewBox="0 0 1152 576" xmlns="http://www.w3.org/2000/svg" version="1.1">
 <metadata>
  <rdf:RDF xmlns:dc="http://purl.org/dc/elements/1.1/" xmlns:cc="http://creativecommons.org/ns#" xmlns:rdf="http://www.w3.org/1999/02/22-rdf-syntax-ns#">
   <cc:Work>
    <dc:type rdf:resource="http://purl.org/dc/dcmitype/StillImage"/>
    <dc:date>2023-05-12T17:05:41.391882</dc:date>
    <dc:format>image/svg+xml</dc:format>
    <dc:creator>
     <cc:Agent>
      <dc:title>Matplotlib v3.6.2, https://matplotlib.org/</dc:title>
     </cc:Agent>
    </dc:creator>
   </cc:Work>
  </rdf:RDF>
 </metadata>
 <defs>
  <style type="text/css">*{stroke-linejoin: round; stroke-linecap: butt}</style>
 </defs>
 <g id="figure_1">
  <g id="patch_1">
   <path d="M 0 576 
L 1152 576 
L 1152 0 
L 0 0 
z
" style="fill: #ffffff"/>
  </g>
  <g id="axes_1">
   <g id="patch_2">
    <path d="M 72.816488 178.44 
L 1141.2 178.44 
L 1141.2 25.44 
L 72.816488 25.44 
z
" style="fill: #ffffff"/>
   </g>
   <g id="PolyCollection_1">
    <defs>
     <path id="me0d4a19c2a" d="M 121.379375 -420.901829 
L 121.379375 -483.036671 
L 127.854426 -494.577139 
L 134.329478 -490.609936 
L 140.804529 -477.749445 
L 147.279581 -478.085987 
L 153.754633 -476.861735 
L 160.229684 -477.039645 
L 166.704736 -472.167771 
L 173.179787 -489.406156 
L 179.654839 -480.889555 
L 186.129891 -483.256355 
L 192.604942 -484.17466 
L 199.079994 -487.136797 
L 205.555045 -480.611512 
L 212.030097 -480.880684 
L 218.505149 -486.184758 
L 224.9802 -500.236024 
L 231.455252 -497.100821 
L 237.930303 -493.228056 
L 244.405355 -495.424256 
L 250.880406 -492.917558 
L 257.355458 -502.227296 
L 263.83051 -505.153371 
L 270.305561 -507.807478 
L 276.780613 -488.041941 
L 283.255664 -469.357616 
L 289.730716 -487.211335 
L 296.205768 -502.203504 
L 302.680819 -492.148887 
L 309.155871 -494.606101 
L 315.630922 -515.259895 
L 322.105974 -513.684688 
L 328.581026 -517.210287 
L 335.056077 -522.087701 
L 341.531129 -521.780491 
L 348.00618 -514.547618 
L 354.481232 -510.640948 
L 360.956283 -507.789463 
L 367.431335 -515.301017 
L 373.906387 -511.036006 
L 380.381438 -507.834673 
L 386.85649 -522.433926 
L 393.331541 -520.908399 
L 399.806593 -524.985269 
L 406.281645 -521.668188 
L 412.756696 -511.787796 
L 419.231748 -510.335959 
L 425.706799 -516.538788 
L 432.181851 -510.225939 
L 438.656903 -504.924624 
L 445.131954 -517.144153 
L 451.607006 -507.085543 
L 458.082057 -512.218371 
L 464.557109 -515.070001 
L 471.03216 -519.624453 
L 477.507212 -503.959379 
L 483.982264 -494.743659 
L 490.457315 -500.627447 
L 496.932367 -499.669206 
L 503.407418 -492.788592 
L 509.88247 -500.274707 
L 516.357522 -511.741037 
L 522.832573 -523.346663 
L 529.307625 -511.094028 
L 535.782676 -499.900321 
L 542.257728 -511.753086 
L 548.73278 -504.043 
L 555.207831 -504.841789 
L 561.682883 -510.610722 
L 568.157934 -497.873422 
L 574.632986 -505.555634 
L 581.108038 -510.150961 
L 587.583089 -519.455306 
L 594.058141 -525.781486 
L 600.533192 -520.988014 
L 607.008244 -525.906968 
L 613.483295 -507.245655 
L 619.958347 -520.997938 
L 626.433399 -510.045851 
L 632.90845 -514.749539 
L 639.383502 -507.918738 
L 645.858553 -501.417488 
L 652.333605 -511.80992 
L 658.808657 -500.418008 
L 665.283708 -504.555226 
L 671.75876 -509.025791 
L 678.233811 -515.086044 
L 684.708863 -517.615894 
L 691.183915 -512.873754 
L 697.658966 -507.320014 
L 704.134018 -518.020736 
L 710.609069 -524.302511 
L 717.084121 -505.50009 
L 723.559172 -501.664551 
L 730.034224 -511.76959 
L 736.509276 -497.616271 
L 742.984327 -498.729 
L 749.459379 -504.159779 
L 755.93443 -497.338813 
L 762.409482 -492.894763 
L 768.884534 -495.978538 
L 775.359585 -487.522814 
L 781.834637 -502.346456 
L 788.309688 -499.688027 
L 794.78474 -502.380481 
L 801.259792 -494.792543 
L 807.734843 -491.134973 
L 814.209895 -505.448974 
L 820.684946 -506.573849 
L 827.159998 -500.738315 
L 833.63505 -505.163368 
L 840.110101 -508.371712 
L 846.585153 -527.794417 
L 853.060204 -535.436162 
L 859.535256 -531.889608 
L 866.010307 -533.156054 
L 872.485359 -520.915373 
L 878.960411 -543.605455 
L 885.435462 -542.727894 
L 891.910514 -523.223568 
L 898.385565 -452.668002 
L 904.860617 -467.790691 
L 911.335669 -481.447251 
L 917.81072 -465.656725 
L 924.285772 -475.103831 
L 930.760823 -487.636031 
L 937.235875 -492.43745 
L 943.710927 -495.13743 
L 950.185978 -495.922897 
L 956.66103 -489.211291 
L 963.136081 -511.597773 
L 969.611133 -509.847146 
L 976.086184 -501.129852 
L 982.561236 -496.535898 
L 989.036288 -503.384411 
L 995.511339 -504.30888 
L 1001.986391 -495.96431 
L 1008.461442 -502.216136 
L 1014.936494 -516.478739 
L 1021.411546 -517.201149 
L 1027.886597 -514.800782 
L 1034.361649 -507.82887 
L 1040.8367 -502.028884 
L 1047.311752 -503.583826 
L 1053.786804 -501.708214 
L 1060.261855 -507.810542 
L 1066.736907 -513.815335 
L 1073.211958 -506.174638 
L 1079.68701 -502.520189 
L 1086.162061 -509.499006 
L 1086.162061 -465.659741 
L 1086.162061 -465.659741 
L 1079.68701 -451.041261 
L 1073.211958 -455.40517 
L 1066.736907 -470.052478 
L 1060.261855 -464.284949 
L 1053.786804 -458.264603 
L 1047.311752 -458.976263 
L 1040.8367 -450.151139 
L 1034.361649 -457.454097 
L 1027.886597 -463.042684 
L 1021.411546 -467.398564 
L 1014.936494 -464.159554 
L 1008.461442 -449.5758 
L 1001.986391 -443.217393 
L 995.511339 -454.682115 
L 989.036288 -448.089633 
L 982.561236 -440.929549 
L 976.086184 -443.512178 
L 969.611133 -457.111256 
L 963.136081 -460.985124 
L 956.66103 -441.655048 
L 950.185978 -442.668441 
L 943.710927 -443.488678 
L 937.235875 -442.820859 
L 930.760823 -435.188542 
L 924.285772 -425.846516 
L 917.81072 -416.089588 
L 911.335669 -432.545519 
L 904.860617 -413.291999 
L 898.385565 -404.514545 
L 891.910514 -491.195212 
L 885.435462 -510.573984 
L 878.960411 -509.430189 
L 872.485359 -489.247832 
L 866.010307 -496.682247 
L 859.535256 -501.817276 
L 853.060204 -503.417778 
L 846.585153 -497.334438 
L 840.110101 -478.891351 
L 833.63505 -476.697274 
L 827.159998 -473.552465 
L 820.684946 -477.796857 
L 814.209895 -475.193755 
L 807.734843 -465.520546 
L 801.259792 -467.673118 
L 794.78474 -475.132164 
L 788.309688 -472.263531 
L 781.834637 -474.919559 
L 775.359585 -454.592117 
L 768.884534 -467.544332 
L 762.409482 -464.506467 
L 755.93443 -467.295809 
L 749.459379 -468.255581 
L 742.984327 -470.105972 
L 736.509276 -470.335784 
L 730.034224 -483.164919 
L 723.559172 -473.578405 
L 717.084121 -474.214068 
L 710.609069 -494.14052 
L 704.134018 -489.432012 
L 697.658966 -475.575338 
L 691.183915 -482.482562 
L 684.708863 -486.559024 
L 678.233811 -485.821884 
L 671.75876 -478.017367 
L 665.283708 -477.84313 
L 658.808657 -473.540551 
L 652.333605 -483.230169 
L 645.858553 -473.034261 
L 639.383502 -481.094508 
L 632.90845 -483.412954 
L 626.433399 -477.901402 
L 619.958347 -486.414429 
L 613.483295 -476.11678 
L 607.008244 -492.186978 
L 600.533192 -482.993231 
L 594.058141 -495.935125 
L 587.583089 -490.467258 
L 581.108038 -480.459046 
L 574.632986 -473.561847 
L 568.157934 -468.207285 
L 561.682883 -483.703162 
L 555.207831 -476.426521 
L 548.73278 -474.679725 
L 542.257728 -484.638074 
L 535.782676 -473.852135 
L 529.307625 -481.897866 
L 522.832573 -490.748826 
L 516.357522 -481.035863 
L 509.88247 -471.464842 
L 503.407418 -465.916483 
L 496.932367 -472.790088 
L 490.457315 -473.108788 
L 483.982264 -467.140097 
L 477.507212 -475.784502 
L 471.03216 -492.474247 
L 464.557109 -488.247258 
L 458.082057 -486.842732 
L 451.607006 -480.479298 
L 445.131954 -492.222278 
L 438.656903 -477.798059 
L 432.181851 -483.39105 
L 425.706799 -489.228058 
L 419.231748 -481.775966 
L 412.756696 -483.154171 
L 406.281645 -494.661729 
L 399.806593 -497.792363 
L 393.331541 -496.167022 
L 386.85649 -497.081018 
L 380.381438 -480.885839 
L 373.906387 -482.585044 
L 367.431335 -488.438721 
L 360.956283 -481.551152 
L 354.481232 -482.63833 
L 348.00618 -486.939549 
L 341.531129 -494.308499 
L 335.056077 -495.404108 
L 328.581026 -490.559117 
L 322.105974 -484.203024 
L 315.630922 -485.537848 
L 309.155871 -453.804219 
L 302.680819 -446.75503 
L 296.205768 -457.011927 
L 289.730716 -436.089681 
L 283.255664 -423.318313 
L 276.780613 -443.972003 
L 270.305561 -459.047922 
L 263.83051 -456.657929 
L 257.355458 -453.459363 
L 250.880406 -443.749365 
L 244.405355 -444.612211 
L 237.930303 -443.195839 
L 231.455252 -443.007492 
L 224.9802 -451.548117 
L 218.505149 -434.480489 
L 212.030097 -432.594744 
L 205.555045 -425.596872 
L 199.079994 -436.410253 
L 192.604942 -430.269456 
L 186.129891 -433.524253 
L 179.654839 -428.654092 
L 173.179787 -440.357507 
L 166.704736 -424.113104 
L 160.229684 -429.226557 
L 153.754633 -423.276643 
L 147.279581 -423.450143 
L 140.804529 -426.235823 
L 134.329478 -434.727304 
L 127.854426 -438.406479 
L 121.379375 -420.901829 
z
" style="stroke: #85ad8b; stroke-opacity: 0.2"/>
    </defs>
    <g clip-path="url(#p387fc7feca)">
     <use xlink:href="#me0d4a19c2a" x="0" y="576" style="fill: #85ad8b; fill-opacity: 0.2; stroke: #85ad8b; stroke-opacity: 0.2"/>
    </g>
   </g>
   <g id="patch_3">
    <path d="M 121.379375 178.44 
L 121.379375 25.44 
L 315.630922 25.44 
L 315.630922 178.44 
z
" clip-path="url(#p387fc7feca)" style="fill: #008bc8; opacity: 0.5"/>
   </g>
   <g id="patch_4">
    <path d="M 315.630922 178.44 
L 315.630922 25.44 
L 898.385565 25.44 
L 898.385565 178.44 
z
" clip-path="url(#p387fc7feca)" style="fill: #ffeeaa; opacity: 0.5"/>
   </g>
   <g id="patch_5">
    <path d="M 898.385565 178.44 
L 898.385565 25.44 
L 1092.637113 25.44 
L 1092.637113 178.44 
z
" clip-path="url(#p387fc7feca)" style="fill: #008bc8; opacity: 0.5"/>
   </g>
   <g id="matplotlib.axis_1">
    <g id="xtick_1">
     <g id="line2d_1">
      <defs>
       <path id="mb12c7d8764" d="M 0 0 
L 0 3.5 
" style="stroke: #000000; stroke-width: 0.8"/>
      </defs>
      <g>
       <use xlink:href="#mb12c7d8764" x="121.379375" y="178.44" style="stroke: #000000; stroke-width: 0.8"/>
      </g>
     </g>
     <g id="text_1">
      <!-- 0 -->
      <g transform="translate(118.198125 193.038438) scale(0.1 -0.1)">
       <defs>
        <path id="DejaVuSans-30" d="M 2034 4250 
Q 1547 4250 1301 3770 
Q 1056 3291 1056 2328 
Q 1056 1369 1301 889 
Q 1547 409 2034 409 
Q 2525 409 2770 889 
Q 3016 1369 3016 2328 
Q 3016 3291 2770 3770 
Q 2525 4250 2034 4250 
z
M 2034 4750 
Q 2819 4750 3233 4129 
Q 3647 3509 3647 2328 
Q 3647 1150 3233 529 
Q 2819 -91 2034 -91 
Q 1250 -91 836 529 
Q 422 1150 422 2328 
Q 422 3509 836 4129 
Q 1250 4750 2034 4750 
z
" transform="scale(0.015625)"/>
       </defs>
       <use xlink:href="#DejaVuSans-30"/>
      </g>
     </g>
    </g>
    <g id="xtick_2">
     <g id="line2d_2">
      <g>
       <use xlink:href="#mb12c7d8764" x="250.880406" y="178.44" style="stroke: #000000; stroke-width: 0.8"/>
      </g>
     </g>
     <g id="text_2">
      <!-- 20 -->
      <g transform="translate(244.517906 193.038438) scale(0.1 -0.1)">
       <defs>
        <path id="DejaVuSans-32" d="M 1228 531 
L 3431 531 
L 3431 0 
L 469 0 
L 469 531 
Q 828 903 1448 1529 
Q 2069 2156 2228 2338 
Q 2531 2678 2651 2914 
Q 2772 3150 2772 3378 
Q 2772 3750 2511 3984 
Q 2250 4219 1831 4219 
Q 1534 4219 1204 4116 
Q 875 4013 500 3803 
L 500 4441 
Q 881 4594 1212 4672 
Q 1544 4750 1819 4750 
Q 2544 4750 2975 4387 
Q 3406 4025 3406 3419 
Q 3406 3131 3298 2873 
Q 3191 2616 2906 2266 
Q 2828 2175 2409 1742 
Q 1991 1309 1228 531 
z
" transform="scale(0.015625)"/>
       </defs>
       <use xlink:href="#DejaVuSans-32"/>
       <use xlink:href="#DejaVuSans-30" x="63.623047"/>
      </g>
     </g>
    </g>
    <g id="xtick_3">
     <g id="line2d_3">
      <g>
       <use xlink:href="#mb12c7d8764" x="380.381438" y="178.44" style="stroke: #000000; stroke-width: 0.8"/>
      </g>
     </g>
     <g id="text_3">
      <!-- 40 -->
      <g transform="translate(374.018938 193.038438) scale(0.1 -0.1)">
       <defs>
        <path id="DejaVuSans-34" d="M 2419 4116 
L 825 1625 
L 2419 1625 
L 2419 4116 
z
M 2253 4666 
L 3047 4666 
L 3047 1625 
L 3713 1625 
L 3713 1100 
L 3047 1100 
L 3047 0 
L 2419 0 
L 2419 1100 
L 313 1100 
L 313 1709 
L 2253 4666 
z
" transform="scale(0.015625)"/>
       </defs>
       <use xlink:href="#DejaVuSans-34"/>
       <use xlink:href="#DejaVuSans-30" x="63.623047"/>
      </g>
     </g>
    </g>
    <g id="xtick_4">
     <g id="line2d_4">
      <g>
       <use xlink:href="#mb12c7d8764" x="509.88247" y="178.44" style="stroke: #000000; stroke-width: 0.8"/>
      </g>
     </g>
     <g id="text_4">
      <!-- 60 -->
      <g transform="translate(503.51997 193.038438) scale(0.1 -0.1)">
       <defs>
        <path id="DejaVuSans-36" d="M 2113 2584 
Q 1688 2584 1439 2293 
Q 1191 2003 1191 1497 
Q 1191 994 1439 701 
Q 1688 409 2113 409 
Q 2538 409 2786 701 
Q 3034 994 3034 1497 
Q 3034 2003 2786 2293 
Q 2538 2584 2113 2584 
z
M 3366 4563 
L 3366 3988 
Q 3128 4100 2886 4159 
Q 2644 4219 2406 4219 
Q 1781 4219 1451 3797 
Q 1122 3375 1075 2522 
Q 1259 2794 1537 2939 
Q 1816 3084 2150 3084 
Q 2853 3084 3261 2657 
Q 3669 2231 3669 1497 
Q 3669 778 3244 343 
Q 2819 -91 2113 -91 
Q 1303 -91 875 529 
Q 447 1150 447 2328 
Q 447 3434 972 4092 
Q 1497 4750 2381 4750 
Q 2619 4750 2861 4703 
Q 3103 4656 3366 4563 
z
" transform="scale(0.015625)"/>
       </defs>
       <use xlink:href="#DejaVuSans-36"/>
       <use xlink:href="#DejaVuSans-30" x="63.623047"/>
      </g>
     </g>
    </g>
    <g id="xtick_5">
     <g id="line2d_5">
      <g>
       <use xlink:href="#mb12c7d8764" x="639.383502" y="178.44" style="stroke: #000000; stroke-width: 0.8"/>
      </g>
     </g>
     <g id="text_5">
      <!-- 80 -->
      <g transform="translate(633.021002 193.038438) scale(0.1 -0.1)">
       <defs>
        <path id="DejaVuSans-38" d="M 2034 2216 
Q 1584 2216 1326 1975 
Q 1069 1734 1069 1313 
Q 1069 891 1326 650 
Q 1584 409 2034 409 
Q 2484 409 2743 651 
Q 3003 894 3003 1313 
Q 3003 1734 2745 1975 
Q 2488 2216 2034 2216 
z
M 1403 2484 
Q 997 2584 770 2862 
Q 544 3141 544 3541 
Q 544 4100 942 4425 
Q 1341 4750 2034 4750 
Q 2731 4750 3128 4425 
Q 3525 4100 3525 3541 
Q 3525 3141 3298 2862 
Q 3072 2584 2669 2484 
Q 3125 2378 3379 2068 
Q 3634 1759 3634 1313 
Q 3634 634 3220 271 
Q 2806 -91 2034 -91 
Q 1263 -91 848 271 
Q 434 634 434 1313 
Q 434 1759 690 2068 
Q 947 2378 1403 2484 
z
M 1172 3481 
Q 1172 3119 1398 2916 
Q 1625 2713 2034 2713 
Q 2441 2713 2670 2916 
Q 2900 3119 2900 3481 
Q 2900 3844 2670 4047 
Q 2441 4250 2034 4250 
Q 1625 4250 1398 4047 
Q 1172 3844 1172 3481 
z
" transform="scale(0.015625)"/>
       </defs>
       <use xlink:href="#DejaVuSans-38"/>
       <use xlink:href="#DejaVuSans-30" x="63.623047"/>
      </g>
     </g>
    </g>
    <g id="xtick_6">
     <g id="line2d_6">
      <g>
       <use xlink:href="#mb12c7d8764" x="768.884534" y="178.44" style="stroke: #000000; stroke-width: 0.8"/>
      </g>
     </g>
     <g id="text_6">
      <!-- 100 -->
      <g transform="translate(759.340784 193.038438) scale(0.1 -0.1)">
       <defs>
        <path id="DejaVuSans-31" d="M 794 531 
L 1825 531 
L 1825 4091 
L 703 3866 
L 703 4441 
L 1819 4666 
L 2450 4666 
L 2450 531 
L 3481 531 
L 3481 0 
L 794 0 
L 794 531 
z
" transform="scale(0.015625)"/>
       </defs>
       <use xlink:href="#DejaVuSans-31"/>
       <use xlink:href="#DejaVuSans-30" x="63.623047"/>
       <use xlink:href="#DejaVuSans-30" x="127.246094"/>
      </g>
     </g>
    </g>
    <g id="xtick_7">
     <g id="line2d_7">
      <g>
       <use xlink:href="#mb12c7d8764" x="898.385565" y="178.44" style="stroke: #000000; stroke-width: 0.8"/>
      </g>
     </g>
     <g id="text_7">
      <!-- 120 -->
      <g transform="translate(888.841815 193.038438) scale(0.1 -0.1)">
       <use xlink:href="#DejaVuSans-31"/>
       <use xlink:href="#DejaVuSans-32" x="63.623047"/>
       <use xlink:href="#DejaVuSans-30" x="127.246094"/>
      </g>
     </g>
    </g>
    <g id="xtick_8">
     <g id="line2d_8">
      <g>
       <use xlink:href="#mb12c7d8764" x="1027.886597" y="178.44" style="stroke: #000000; stroke-width: 0.8"/>
      </g>
     </g>
     <g id="text_8">
      <!-- 140 -->
      <g transform="translate(1018.342847 193.038438) scale(0.1 -0.1)">
       <use xlink:href="#DejaVuSans-31"/>
       <use xlink:href="#DejaVuSans-34" x="63.623047"/>
       <use xlink:href="#DejaVuSans-30" x="127.246094"/>
      </g>
     </g>
    </g>
   </g>
   <g id="matplotlib.axis_2">
    <g id="ytick_1">
     <g id="line2d_9">
      <defs>
       <path id="m47f70483d9" d="M 0 0 
L -2 0 
" style="stroke: #000000; stroke-width: 0.6"/>
      </defs>
      <g>
       <use xlink:href="#m47f70483d9" x="72.816488" y="173.199962" style="stroke: #000000; stroke-width: 0.6"/>
      </g>
     </g>
     <g id="text_9">
      <!-- $\mathdefault{4\times10^{-1}}$ -->
      <g transform="translate(25.316488 176.999181) scale(0.1 -0.1)">
       <defs>
        <path id="DejaVuSans-d7" d="M 4488 3438 
L 3059 2003 
L 4488 575 
L 4116 197 
L 2681 1631 
L 1247 197 
L 878 575 
L 2303 2003 
L 878 3438 
L 1247 3816 
L 2681 2381 
L 4116 3816 
L 4488 3438 
z
" transform="scale(0.015625)"/>
        <path id="DejaVuSans-2212" d="M 678 2272 
L 4684 2272 
L 4684 1741 
L 678 1741 
L 678 2272 
z
" transform="scale(0.015625)"/>
       </defs>
       <use xlink:href="#DejaVuSans-34" transform="translate(0 0.684375)"/>
       <use xlink:href="#DejaVuSans-d7" transform="translate(83.105469 0.684375)"/>
       <use xlink:href="#DejaVuSans-31" transform="translate(186.376953 0.684375)"/>
       <use xlink:href="#DejaVuSans-30" transform="translate(250 0.684375)"/>
       <use xlink:href="#DejaVuSans-2212" transform="translate(314.580078 38.965625) scale(0.7)"/>
       <use xlink:href="#DejaVuSans-31" transform="translate(373.232422 38.965625) scale(0.7)"/>
      </g>
     </g>
    </g>
    <g id="ytick_2">
     <g id="line2d_10">
      <g>
       <use xlink:href="#m47f70483d9" x="72.816488" y="136.34286" style="stroke: #000000; stroke-width: 0.6"/>
      </g>
     </g>
    </g>
    <g id="ytick_3">
     <g id="line2d_11">
      <g>
       <use xlink:href="#m47f70483d9" x="72.816488" y="106.228415" style="stroke: #000000; stroke-width: 0.6"/>
      </g>
     </g>
     <g id="text_10">
      <!-- $\mathdefault{6\times10^{-1}}$ -->
      <g transform="translate(25.316488 110.027634) scale(0.1 -0.1)">
       <use xlink:href="#DejaVuSans-36" transform="translate(0 0.684375)"/>
       <use xlink:href="#DejaVuSans-d7" transform="translate(83.105469 0.684375)"/>
       <use xlink:href="#DejaVuSans-31" transform="translate(186.376953 0.684375)"/>
       <use xlink:href="#DejaVuSans-30" transform="translate(250 0.684375)"/>
       <use xlink:href="#DejaVuSans-2212" transform="translate(314.580078 38.965625) scale(0.7)"/>
       <use xlink:href="#DejaVuSans-31" transform="translate(373.232422 38.965625) scale(0.7)"/>
      </g>
     </g>
    </g>
    <g id="ytick_4">
     <g id="line2d_12">
      <g>
       <use xlink:href="#m47f70483d9" x="72.816488" y="80.767015" style="stroke: #000000; stroke-width: 0.6"/>
      </g>
     </g>
    </g>
    <g id="ytick_5">
     <g id="line2d_13">
      <g>
       <use xlink:href="#m47f70483d9" x="72.816488" y="58.711347" style="stroke: #000000; stroke-width: 0.6"/>
      </g>
     </g>
    </g>
    <g id="ytick_6">
     <g id="line2d_14">
      <g>
       <use xlink:href="#m47f70483d9" x="72.816488" y="39.256869" style="stroke: #000000; stroke-width: 0.6"/>
      </g>
     </g>
    </g>
    <g id="text_11">
     <!-- FR -->
     <g transform="translate(19.2368 108.29) rotate(-90) scale(0.1 -0.1)">
      <defs>
       <path id="DejaVuSans-46" d="M 628 4666 
L 3309 4666 
L 3309 4134 
L 1259 4134 
L 1259 2759 
L 3109 2759 
L 3109 2228 
L 1259 2228 
L 1259 0 
L 628 0 
L 628 4666 
z
" transform="scale(0.015625)"/>
       <path id="DejaVuSans-52" d="M 2841 2188 
Q 3044 2119 3236 1894 
Q 3428 1669 3622 1275 
L 4263 0 
L 3584 0 
L 2988 1197 
Q 2756 1666 2539 1819 
Q 2322 1972 1947 1972 
L 1259 1972 
L 1259 0 
L 628 0 
L 628 4666 
L 2053 4666 
Q 2853 4666 3247 4331 
Q 3641 3997 3641 3322 
Q 3641 2881 3436 2590 
Q 3231 2300 2841 2188 
z
M 1259 4147 
L 1259 2491 
L 2053 2491 
Q 2509 2491 2742 2702 
Q 2975 2913 2975 3322 
Q 2975 3731 2742 3939 
Q 2509 4147 2053 4147 
L 1259 4147 
z
" transform="scale(0.015625)"/>
      </defs>
      <use xlink:href="#DejaVuSans-46"/>
      <use xlink:href="#DejaVuSans-52" x="57.519531"/>
     </g>
    </g>
   </g>
   <g id="line2d_15">
    <path d="M 121.379375 121.126063 
L 127.854426 107.131841 
L 134.329478 110.979223 
L 140.804529 122.007205 
L 147.279581 122.983096 
L 153.754633 123.767267 
L 160.229684 121.142823 
L 166.704736 126.118082 
L 173.179787 109.304165 
L 179.654839 119.1718 
L 186.129891 115.744978 
L 192.604942 116.588585 
L 199.079994 112.286731 
L 205.555045 120.615821 
L 212.030097 117.504062 
L 218.505149 113.652443 
L 224.9802 98.320416 
L 231.455252 103.741246 
L 237.930303 105.900847 
L 244.405355 104.035504 
L 250.880406 105.843715 
L 257.355458 96.363298 
L 263.83051 93.320891 
L 270.305561 90.779541 
L 276.780613 108.527568 
L 283.255664 128.063105 
L 289.730716 112.379534 
L 296.205768 94.851513 
L 302.680819 104.993489 
L 309.155871 100.538138 
L 315.630922 74.933483 
L 322.105974 76.399241 
L 335.056077 66.715838 
L 341.531129 67.385008 
L 348.00618 74.68026 
L 354.481232 78.767639 
L 360.956283 80.809231 
L 367.431335 73.584647 
L 373.906387 78.577645 
L 380.381438 81.090744 
L 386.85649 65.756566 
L 393.331541 66.999466 
L 399.806593 64.052206 
L 406.281645 67.283694 
L 412.756696 77.909315 
L 419.231748 79.327515 
L 425.706799 72.55275 
L 432.181851 78.647133 
L 438.656903 84.082401 
L 445.131954 70.84719 
L 451.607006 81.682435 
L 458.082057 75.982615 
L 464.557109 73.797491 
L 471.03216 69.393424 
L 477.507212 85.528032 
L 483.982264 94.482154 
L 490.457315 88.559448 
L 496.932367 89.224187 
L 503.407418 96.101581 
L 509.88247 89.502882 
L 522.832573 68.149382 
L 529.307625 78.859795 
L 535.782676 88.610818 
L 542.257728 77.248636 
L 548.73278 85.986992 
L 555.207831 84.755547 
L 561.682883 78.295737 
L 568.157934 92.294508 
L 574.632986 85.667819 
L 581.108038 80.028703 
L 587.583089 70.4036 
L 594.058141 64.468461 
L 600.533192 72.919278 
L 607.008244 66.094023 
L 613.483295 83.586535 
L 619.958347 71.390334 
L 626.433399 81.245643 
L 632.90845 76.176715 
L 639.383502 80.949437 
L 645.858553 88.165202 
L 652.333605 77.86258 
L 658.808657 88.474622 
L 665.283708 84.261415 
L 671.75876 81.75182 
L 678.233811 74.898777 
L 684.708863 73.183671 
L 691.183915 77.62384 
L 697.658966 83.790863 
L 704.134018 71.655864 
L 710.609069 66.090956 
L 717.084121 85.403272 
L 723.559172 87.782263 
L 730.034224 77.914295 
L 736.509276 91.461392 
L 742.984327 90.96327 
L 749.459379 88.818653 
L 755.93443 93.000567 
L 762.409482 96.690244 
L 768.884534 93.627454 
L 775.359585 104.123208 
L 781.834637 86.798365 
L 788.309688 89.455692 
L 794.78474 86.682422 
L 801.259792 94.211205 
L 807.734843 97.176211 
L 814.209895 84.986856 
L 820.684946 83.188731 
L 827.159998 88.295922 
L 833.63505 84.457199 
L 840.110101 81.711623 
L 846.585153 62.734411 
L 853.060204 55.798402 
L 859.535256 58.463105 
L 866.010307 60.076107 
L 872.485359 70.160627 
L 878.960411 48.599863 
L 885.435462 48.567872 
L 891.910514 68.0155 
L 898.385565 145.660104 
L 904.860617 133.221041 
L 911.335669 117.200423 
L 917.81072 133.27443 
L 924.285772 123.695413 
L 930.760823 112.51468 
L 937.235875 106.514748 
L 943.710927 104.67632 
L 950.185978 104.56729 
L 956.66103 108.861165 
L 963.136081 87.777475 
L 969.611133 90.425 
L 976.086184 101.179245 
L 982.561236 104.938211 
L 989.036288 97.95982 
L 995.511339 94.647646 
L 1001.986391 104.312476 
L 1008.461442 98.015789 
L 1014.936494 83.617908 
L 1021.411546 81.830156 
L 1027.886597 85.059153 
L 1040.8367 97.881567 
L 1047.311752 93.218631 
L 1053.786804 94.589371 
L 1060.261855 88.522669 
L 1066.736907 82.620926 
L 1073.211958 93.267081 
L 1079.68701 97.221796 
L 1086.162061 86.970423 
L 1086.162061 86.970423 
" clip-path="url(#p387fc7feca)" style="fill: none; stroke: #85ad8b; stroke-width: 1.5; stroke-linecap: square"/>
   </g>
   <g id="patch_6">
    <path d="M 72.816488 178.44 
L 72.816488 25.44 
" style="fill: none; stroke: #000000; stroke-width: 0.8; stroke-linejoin: miter; stroke-linecap: square"/>
   </g>
   <g id="patch_7">
    <path d="M 72.816488 178.44 
L 1141.2 178.44 
" style="fill: none; stroke: #000000; stroke-width: 0.8; stroke-linejoin: miter; stroke-linecap: square"/>
   </g>
   <g id="text_12">
    <!-- WAKE_HOMECAGE-extended_sleep-WAKE_HOMECAGE -->
    <g transform="translate(445.107619 19.44) scale(0.12 -0.12)">
     <defs>
      <path id="DejaVuSans-57" d="M 213 4666 
L 850 4666 
L 1831 722 
L 2809 4666 
L 3519 4666 
L 4500 722 
L 5478 4666 
L 6119 4666 
L 4947 0 
L 4153 0 
L 3169 4050 
L 2175 0 
L 1381 0 
L 213 4666 
z
" transform="scale(0.015625)"/>
      <path id="DejaVuSans-41" d="M 2188 4044 
L 1331 1722 
L 3047 1722 
L 2188 4044 
z
M 1831 4666 
L 2547 4666 
L 4325 0 
L 3669 0 
L 3244 1197 
L 1141 1197 
L 716 0 
L 50 0 
L 1831 4666 
z
" transform="scale(0.015625)"/>
      <path id="DejaVuSans-4b" d="M 628 4666 
L 1259 4666 
L 1259 2694 
L 3353 4666 
L 4166 4666 
L 1850 2491 
L 4331 0 
L 3500 0 
L 1259 2247 
L 1259 0 
L 628 0 
L 628 4666 
z
" transform="scale(0.015625)"/>
      <path id="DejaVuSans-45" d="M 628 4666 
L 3578 4666 
L 3578 4134 
L 1259 4134 
L 1259 2753 
L 3481 2753 
L 3481 2222 
L 1259 2222 
L 1259 531 
L 3634 531 
L 3634 0 
L 628 0 
L 628 4666 
z
" transform="scale(0.015625)"/>
      <path id="DejaVuSans-5f" d="M 3263 -1063 
L 3263 -1509 
L -63 -1509 
L -63 -1063 
L 3263 -1063 
z
" transform="scale(0.015625)"/>
      <path id="DejaVuSans-48" d="M 628 4666 
L 1259 4666 
L 1259 2753 
L 3553 2753 
L 3553 4666 
L 4184 4666 
L 4184 0 
L 3553 0 
L 3553 2222 
L 1259 2222 
L 1259 0 
L 628 0 
L 628 4666 
z
" transform="scale(0.015625)"/>
      <path id="DejaVuSans-4f" d="M 2522 4238 
Q 1834 4238 1429 3725 
Q 1025 3213 1025 2328 
Q 1025 1447 1429 934 
Q 1834 422 2522 422 
Q 3209 422 3611 934 
Q 4013 1447 4013 2328 
Q 4013 3213 3611 3725 
Q 3209 4238 2522 4238 
z
M 2522 4750 
Q 3503 4750 4090 4092 
Q 4678 3434 4678 2328 
Q 4678 1225 4090 567 
Q 3503 -91 2522 -91 
Q 1538 -91 948 565 
Q 359 1222 359 2328 
Q 359 3434 948 4092 
Q 1538 4750 2522 4750 
z
" transform="scale(0.015625)"/>
      <path id="DejaVuSans-4d" d="M 628 4666 
L 1569 4666 
L 2759 1491 
L 3956 4666 
L 4897 4666 
L 4897 0 
L 4281 0 
L 4281 4097 
L 3078 897 
L 2444 897 
L 1241 4097 
L 1241 0 
L 628 0 
L 628 4666 
z
" transform="scale(0.015625)"/>
      <path id="DejaVuSans-43" d="M 4122 4306 
L 4122 3641 
Q 3803 3938 3442 4084 
Q 3081 4231 2675 4231 
Q 1875 4231 1450 3742 
Q 1025 3253 1025 2328 
Q 1025 1406 1450 917 
Q 1875 428 2675 428 
Q 3081 428 3442 575 
Q 3803 722 4122 1019 
L 4122 359 
Q 3791 134 3420 21 
Q 3050 -91 2638 -91 
Q 1578 -91 968 557 
Q 359 1206 359 2328 
Q 359 3453 968 4101 
Q 1578 4750 2638 4750 
Q 3056 4750 3426 4639 
Q 3797 4528 4122 4306 
z
" transform="scale(0.015625)"/>
      <path id="DejaVuSans-47" d="M 3809 666 
L 3809 1919 
L 2778 1919 
L 2778 2438 
L 4434 2438 
L 4434 434 
Q 4069 175 3628 42 
Q 3188 -91 2688 -91 
Q 1594 -91 976 548 
Q 359 1188 359 2328 
Q 359 3472 976 4111 
Q 1594 4750 2688 4750 
Q 3144 4750 3555 4637 
Q 3966 4525 4313 4306 
L 4313 3634 
Q 3963 3931 3569 4081 
Q 3175 4231 2741 4231 
Q 1884 4231 1454 3753 
Q 1025 3275 1025 2328 
Q 1025 1384 1454 906 
Q 1884 428 2741 428 
Q 3075 428 3337 486 
Q 3600 544 3809 666 
z
" transform="scale(0.015625)"/>
      <path id="DejaVuSans-2d" d="M 313 2009 
L 1997 2009 
L 1997 1497 
L 313 1497 
L 313 2009 
z
" transform="scale(0.015625)"/>
      <path id="DejaVuSans-65" d="M 3597 1894 
L 3597 1613 
L 953 1613 
Q 991 1019 1311 708 
Q 1631 397 2203 397 
Q 2534 397 2845 478 
Q 3156 559 3463 722 
L 3463 178 
Q 3153 47 2828 -22 
Q 2503 -91 2169 -91 
Q 1331 -91 842 396 
Q 353 884 353 1716 
Q 353 2575 817 3079 
Q 1281 3584 2069 3584 
Q 2775 3584 3186 3129 
Q 3597 2675 3597 1894 
z
M 3022 2063 
Q 3016 2534 2758 2815 
Q 2500 3097 2075 3097 
Q 1594 3097 1305 2825 
Q 1016 2553 972 2059 
L 3022 2063 
z
" transform="scale(0.015625)"/>
      <path id="DejaVuSans-78" d="M 3513 3500 
L 2247 1797 
L 3578 0 
L 2900 0 
L 1881 1375 
L 863 0 
L 184 0 
L 1544 1831 
L 300 3500 
L 978 3500 
L 1906 2253 
L 2834 3500 
L 3513 3500 
z
" transform="scale(0.015625)"/>
      <path id="DejaVuSans-74" d="M 1172 4494 
L 1172 3500 
L 2356 3500 
L 2356 3053 
L 1172 3053 
L 1172 1153 
Q 1172 725 1289 603 
Q 1406 481 1766 481 
L 2356 481 
L 2356 0 
L 1766 0 
Q 1100 0 847 248 
Q 594 497 594 1153 
L 594 3053 
L 172 3053 
L 172 3500 
L 594 3500 
L 594 4494 
L 1172 4494 
z
" transform="scale(0.015625)"/>
      <path id="DejaVuSans-6e" d="M 3513 2113 
L 3513 0 
L 2938 0 
L 2938 2094 
Q 2938 2591 2744 2837 
Q 2550 3084 2163 3084 
Q 1697 3084 1428 2787 
Q 1159 2491 1159 1978 
L 1159 0 
L 581 0 
L 581 3500 
L 1159 3500 
L 1159 2956 
Q 1366 3272 1645 3428 
Q 1925 3584 2291 3584 
Q 2894 3584 3203 3211 
Q 3513 2838 3513 2113 
z
" transform="scale(0.015625)"/>
      <path id="DejaVuSans-64" d="M 2906 2969 
L 2906 4863 
L 3481 4863 
L 3481 0 
L 2906 0 
L 2906 525 
Q 2725 213 2448 61 
Q 2172 -91 1784 -91 
Q 1150 -91 751 415 
Q 353 922 353 1747 
Q 353 2572 751 3078 
Q 1150 3584 1784 3584 
Q 2172 3584 2448 3432 
Q 2725 3281 2906 2969 
z
M 947 1747 
Q 947 1113 1208 752 
Q 1469 391 1925 391 
Q 2381 391 2643 752 
Q 2906 1113 2906 1747 
Q 2906 2381 2643 2742 
Q 2381 3103 1925 3103 
Q 1469 3103 1208 2742 
Q 947 2381 947 1747 
z
" transform="scale(0.015625)"/>
      <path id="DejaVuSans-73" d="M 2834 3397 
L 2834 2853 
Q 2591 2978 2328 3040 
Q 2066 3103 1784 3103 
Q 1356 3103 1142 2972 
Q 928 2841 928 2578 
Q 928 2378 1081 2264 
Q 1234 2150 1697 2047 
L 1894 2003 
Q 2506 1872 2764 1633 
Q 3022 1394 3022 966 
Q 3022 478 2636 193 
Q 2250 -91 1575 -91 
Q 1294 -91 989 -36 
Q 684 19 347 128 
L 347 722 
Q 666 556 975 473 
Q 1284 391 1588 391 
Q 1994 391 2212 530 
Q 2431 669 2431 922 
Q 2431 1156 2273 1281 
Q 2116 1406 1581 1522 
L 1381 1569 
Q 847 1681 609 1914 
Q 372 2147 372 2553 
Q 372 3047 722 3315 
Q 1072 3584 1716 3584 
Q 2034 3584 2315 3537 
Q 2597 3491 2834 3397 
z
" transform="scale(0.015625)"/>
      <path id="DejaVuSans-6c" d="M 603 4863 
L 1178 4863 
L 1178 0 
L 603 0 
L 603 4863 
z
" transform="scale(0.015625)"/>
      <path id="DejaVuSans-70" d="M 1159 525 
L 1159 -1331 
L 581 -1331 
L 581 3500 
L 1159 3500 
L 1159 2969 
Q 1341 3281 1617 3432 
Q 1894 3584 2278 3584 
Q 2916 3584 3314 3078 
Q 3713 2572 3713 1747 
Q 3713 922 3314 415 
Q 2916 -91 2278 -91 
Q 1894 -91 1617 61 
Q 1341 213 1159 525 
z
M 3116 1747 
Q 3116 2381 2855 2742 
Q 2594 3103 2138 3103 
Q 1681 3103 1420 2742 
Q 1159 2381 1159 1747 
Q 1159 1113 1420 752 
Q 1681 391 2138 391 
Q 2594 391 2855 752 
Q 3116 1113 3116 1747 
z
" transform="scale(0.015625)"/>
     </defs>
     <use xlink:href="#DejaVuSans-57"/>
     <use xlink:href="#DejaVuSans-41" x="93.376953"/>
     <use xlink:href="#DejaVuSans-4b" x="161.785156"/>
     <use xlink:href="#DejaVuSans-45" x="227.361328"/>
     <use xlink:href="#DejaVuSans-5f" x="290.544922"/>
     <use xlink:href="#DejaVuSans-48" x="340.544922"/>
     <use xlink:href="#DejaVuSans-4f" x="415.740234"/>
     <use xlink:href="#DejaVuSans-4d" x="494.451172"/>
     <use xlink:href="#DejaVuSans-45" x="580.730469"/>
     <use xlink:href="#DejaVuSans-43" x="643.914062"/>
     <use xlink:href="#DejaVuSans-41" x="713.738281"/>
     <use xlink:href="#DejaVuSans-47" x="780.396484"/>
     <use xlink:href="#DejaVuSans-45" x="857.886719"/>
     <use xlink:href="#DejaVuSans-2d" x="921.070312"/>
     <use xlink:href="#DejaVuSans-65" x="957.154297"/>
     <use xlink:href="#DejaVuSans-78" x="1016.927734"/>
     <use xlink:href="#DejaVuSans-74" x="1076.107422"/>
     <use xlink:href="#DejaVuSans-65" x="1115.316406"/>
     <use xlink:href="#DejaVuSans-6e" x="1176.839844"/>
     <use xlink:href="#DejaVuSans-64" x="1240.21875"/>
     <use xlink:href="#DejaVuSans-65" x="1303.695312"/>
     <use xlink:href="#DejaVuSans-64" x="1365.21875"/>
     <use xlink:href="#DejaVuSans-5f" x="1428.695312"/>
     <use xlink:href="#DejaVuSans-73" x="1478.695312"/>
     <use xlink:href="#DejaVuSans-6c" x="1530.794922"/>
     <use xlink:href="#DejaVuSans-65" x="1558.578125"/>
     <use xlink:href="#DejaVuSans-65" x="1620.101562"/>
     <use xlink:href="#DejaVuSans-70" x="1681.625"/>
     <use xlink:href="#DejaVuSans-2d" x="1745.101562"/>
     <use xlink:href="#DejaVuSans-57" x="1777.185547"/>
     <use xlink:href="#DejaVuSans-41" x="1870.5625"/>
     <use xlink:href="#DejaVuSans-4b" x="1938.970703"/>
     <use xlink:href="#DejaVuSans-45" x="2004.546875"/>
     <use xlink:href="#DejaVuSans-5f" x="2067.730469"/>
     <use xlink:href="#DejaVuSans-48" x="2117.730469"/>
     <use xlink:href="#DejaVuSans-4f" x="2192.925781"/>
     <use xlink:href="#DejaVuSans-4d" x="2271.636719"/>
     <use xlink:href="#DejaVuSans-45" x="2357.916016"/>
     <use xlink:href="#DejaVuSans-43" x="2421.099609"/>
     <use xlink:href="#DejaVuSans-41" x="2490.923828"/>
     <use xlink:href="#DejaVuSans-47" x="2557.582031"/>
     <use xlink:href="#DejaVuSans-45" x="2635.072266"/>
    </g>
   </g>
  </g>
  <g id="axes_2">
   <g id="patch_8">
    <path d="M 72.816488 363.28 
L 1141.2 363.28 
L 1141.2 210.28 
L 72.816488 210.28 
z
" style="fill: #ffffff"/>
   </g>
   <g id="PolyCollection_2">
    <defs>
     <path id="m59fe8059f9" d="M 121.379375 -269.929441 
L 121.379375 -278.340058 
L 127.854426 -280.366469 
L 134.329478 -279.686025 
L 140.804529 -277.689584 
L 147.279581 -273.784214 
L 153.754633 -275.076654 
L 160.229684 -278.307345 
L 166.704736 -276.595677 
L 173.179787 -279.543335 
L 179.654839 -276.389513 
L 186.129891 -278.731643 
L 192.604942 -274.181564 
L 199.079994 -275.903267 
L 205.555045 -273.311975 
L 212.030097 -277.273785 
L 218.505149 -277.96235 
L 224.9802 -280.821004 
L 231.455252 -277.231812 
L 237.930303 -278.850077 
L 244.405355 -278.30094 
L 250.880406 -278.251816 
L 257.355458 -283.991508 
L 263.83051 -285.674141 
L 270.305561 -284.121099 
L 276.780613 -281.589862 
L 283.255664 -278.294793 
L 289.730716 -278.840341 
L 296.205768 -283.622784 
L 302.680819 -284.879635 
L 309.155871 -287.000411 
L 315.630922 -301.647202 
L 322.105974 -301.122843 
L 328.581026 -302.818052 
L 335.056077 -305.065103 
L 341.531129 -304.039572 
L 348.00618 -301.952685 
L 354.481232 -299.217423 
L 360.956283 -298.747744 
L 367.431335 -300.712029 
L 373.906387 -299.174641 
L 380.381438 -299.22095 
L 386.85649 -306.48502 
L 393.331541 -308.72948 
L 399.806593 -308.34962 
L 406.281645 -305.642657 
L 412.756696 -300.427084 
L 419.231748 -302.213545 
L 425.706799 -301.277214 
L 432.181851 -300.550018 
L 438.656903 -299.329231 
L 445.131954 -306.420036 
L 451.607006 -300.983729 
L 458.082057 -302.106985 
L 464.557109 -304.388983 
L 471.03216 -308.133237 
L 477.507212 -300.176121 
L 483.982264 -294.892144 
L 490.457315 -296.26144 
L 496.932367 -296.866904 
L 503.407418 -295.766348 
L 509.88247 -300.08821 
L 516.357522 -299.370121 
L 522.832573 -304.811338 
L 529.307625 -298.678226 
L 535.782676 -297.003357 
L 542.257728 -302.952519 
L 548.73278 -299.052017 
L 555.207831 -297.720501 
L 561.682883 -300.273727 
L 568.157934 -292.495418 
L 574.632986 -296.532803 
L 581.108038 -297.669925 
L 587.583089 -303.219784 
L 594.058141 -306.306909 
L 600.533192 -305.030088 
L 607.008244 -306.349432 
L 613.483295 -298.358276 
L 619.958347 -302.838409 
L 626.433399 -300.91012 
L 632.90845 -303.104701 
L 639.383502 -301.152936 
L 645.858553 -296.906251 
L 652.333605 -298.118942 
L 658.808657 -296.976166 
L 665.283708 -297.653774 
L 671.75876 -301.64304 
L 678.233811 -303.276895 
L 684.708863 -305.724553 
L 691.183915 -301.021564 
L 697.658966 -300.941988 
L 704.134018 -301.774108 
L 710.609069 -307.633553 
L 717.084121 -297.803893 
L 723.559172 -296.826228 
L 730.034224 -300.166338 
L 736.509276 -295.748798 
L 742.984327 -295.185219 
L 749.459379 -295.482905 
L 755.93443 -296.210236 
L 762.409482 -292.96426 
L 768.884534 -296.206554 
L 775.359585 -289.248962 
L 781.834637 -298.002611 
L 788.309688 -296.77478 
L 794.78474 -297.995803 
L 801.259792 -294.90085 
L 807.734843 -294.447732 
L 814.209895 -299.763295 
L 820.684946 -300.06987 
L 827.159998 -299.437294 
L 833.63505 -298.173032 
L 840.110101 -299.522772 
L 846.585153 -307.639024 
L 853.060204 -308.082118 
L 859.535256 -308.454211 
L 866.010307 -306.920326 
L 872.485359 -304.054608 
L 878.960411 -313.235051 
L 885.435462 -314.205173 
L 891.910514 -306.166177 
L 898.385565 -274.667431 
L 904.860617 -275.592588 
L 911.335669 -280.652461 
L 917.81072 -276.061222 
L 924.285772 -276.154301 
L 930.760823 -278.69005 
L 937.235875 -279.020244 
L 943.710927 -279.622684 
L 950.185978 -278.131926 
L 956.66103 -278.735852 
L 963.136081 -281.863456 
L 969.611133 -282.108974 
L 976.086184 -276.801719 
L 982.561236 -277.467042 
L 989.036288 -279.211592 
L 995.511339 -281.502672 
L 1001.986391 -279.151804 
L 1008.461442 -281.040143 
L 1014.936494 -284.658445 
L 1021.411546 -284.804521 
L 1027.886597 -284.537799 
L 1034.361649 -282.433687 
L 1040.8367 -281.45645 
L 1047.311752 -285.767057 
L 1053.786804 -284.881111 
L 1060.261855 -288.818682 
L 1066.736907 -290.210166 
L 1073.211958 -282.318503 
L 1079.68701 -282.979622 
L 1086.162061 -289.626917 
L 1086.162061 -281.845948 
L 1086.162061 -281.845948 
L 1079.68701 -275.794428 
L 1073.211958 -275.357279 
L 1066.736907 -283.192711 
L 1060.261855 -281.266129 
L 1053.786804 -278.139327 
L 1047.311752 -278.667133 
L 1040.8367 -274.446278 
L 1034.361649 -275.735445 
L 1027.886597 -277.206152 
L 1021.411546 -277.369799 
L 1014.936494 -277.011589 
L 1008.461442 -273.94174 
L 1001.986391 -271.65212 
L 995.511339 -274.455015 
L 989.036288 -272.665601 
L 982.561236 -271.07488 
L 976.086184 -270.131139 
L 969.611133 -274.276066 
L 963.136081 -274.487212 
L 956.66103 -272.281355 
L 950.185978 -271.266706 
L 943.710927 -271.958625 
L 937.235875 -272.175221 
L 930.760823 -271.272014 
L 924.285772 -269.911186 
L 917.81072 -268.994458 
L 911.335669 -272.562805 
L 904.860617 -268.045187 
L 898.385565 -267.751768 
L 891.910514 -296.918618 
L 885.435462 -304.255683 
L 878.960411 -303.645767 
L 872.485359 -295.458784 
L 866.010307 -297.389884 
L 859.535256 -299.765374 
L 853.060204 -299.205031 
L 846.585153 -299.453869 
L 840.110101 -292.63337 
L 833.63505 -292.030088 
L 827.159998 -292.611969 
L 820.684946 -293.963931 
L 814.209895 -292.927653 
L 807.734843 -289.423936 
L 801.259792 -288.958459 
L 794.78474 -292.231281 
L 788.309688 -290.86825 
L 781.834637 -292.665437 
L 775.359585 -284.392536 
L 768.884534 -290.025316 
L 762.409482 -287.008657 
L 755.93443 -290.21051 
L 749.459379 -289.346701 
L 742.984327 -289.615957 
L 736.509276 -289.538126 
L 730.034224 -294.187248 
L 723.559172 -290.922068 
L 717.084121 -290.483209 
L 710.609069 -299.306525 
L 704.134018 -295.760614 
L 697.658966 -292.513996 
L 691.183915 -293.663302 
L 684.708863 -297.523571 
L 678.233811 -295.718652 
L 671.75876 -293.3229 
L 665.283708 -291.771777 
L 658.808657 -290.914054 
L 652.333605 -292.286602 
L 645.858553 -290.575294 
L 639.383502 -294.515872 
L 632.90845 -296.046957 
L 626.433399 -292.429538 
L 619.958347 -293.363246 
L 613.483295 -290.970163 
L 607.008244 -298.628801 
L 600.533192 -295.853071 
L 594.058141 -298.131701 
L 587.583089 -296.095465 
L 581.108038 -291.331963 
L 574.632986 -289.733054 
L 568.157934 -286.951225 
L 561.682883 -294.550263 
L 555.207831 -292.249367 
L 548.73278 -292.026979 
L 542.257728 -296.378444 
L 535.782676 -291.512656 
L 529.307625 -292.45736 
L 522.832573 -297.478026 
L 516.357522 -292.87025 
L 509.88247 -292.573614 
L 503.407418 -289.834189 
L 496.932367 -291.466793 
L 490.457315 -290.748192 
L 483.982264 -289.036127 
L 477.507212 -293.431923 
L 471.03216 -300.481629 
L 464.557109 -297.236758 
L 458.082057 -296.407927 
L 451.607006 -294.7423 
L 445.131954 -299.563111 
L 438.656903 -293.264315 
L 432.181851 -294.59556 
L 425.706799 -295.632475 
L 419.231748 -295.505572 
L 412.756696 -294.376468 
L 406.281645 -298.858356 
L 399.806593 -300.239142 
L 393.331541 -301.783768 
L 386.85649 -300.264811 
L 380.381438 -294.245597 
L 373.906387 -293.655102 
L 367.431335 -295.104506 
L 360.956283 -293.493727 
L 354.481232 -293.551559 
L 348.00618 -295.736923 
L 341.531129 -298.352825 
L 335.056077 -298.962039 
L 328.581026 -297.227607 
L 322.105974 -295.011333 
L 315.630922 -295.178381 
L 309.155871 -280.637006 
L 302.680819 -278.573242 
L 296.205768 -277.534798 
L 289.730716 -272.411563 
L 283.255664 -271.479339 
L 276.780613 -275.249713 
L 270.305561 -277.439993 
L 263.83051 -277.712884 
L 257.355458 -276.395763 
L 250.880406 -271.615142 
L 244.405355 -271.17889 
L 237.930303 -271.829011 
L 231.455252 -269.808781 
L 224.9802 -273.404423 
L 218.505149 -271.103313 
L 212.030097 -270.885753 
L 205.555045 -267.076987 
L 199.079994 -269.558148 
L 192.604942 -268.010473 
L 186.129891 -271.985191 
L 179.654839 -269.61216 
L 173.179787 -272.93175 
L 166.704736 -270.092164 
L 160.229684 -271.589213 
L 153.754633 -268.465017 
L 147.279581 -267.108905 
L 140.804529 -270.277951 
L 134.329478 -271.625796 
L 127.854426 -272.33123 
L 121.379375 -269.929441 
z
" style="stroke: #85ad8b; stroke-opacity: 0.2"/>
    </defs>
    <g clip-path="url(#p02983c6426)">
     <use xlink:href="#m59fe8059f9" x="0" y="576" style="fill: #85ad8b; fill-opacity: 0.2; stroke: #85ad8b; stroke-opacity: 0.2"/>
    </g>
   </g>
   <g id="patch_9">
    <path d="M 121.379375 363.28 
L 121.379375 210.28 
L 315.630922 210.28 
L 315.630922 363.28 
z
" clip-path="url(#p02983c6426)" style="fill: #008bc8; opacity: 0.5"/>
   </g>
   <g id="patch_10">
    <path d="M 315.630922 363.28 
L 315.630922 210.28 
L 898.385565 210.28 
L 898.385565 363.28 
z
" clip-path="url(#p02983c6426)" style="fill: #ffeeaa; opacity: 0.5"/>
   </g>
   <g id="patch_11">
    <path d="M 898.385565 363.28 
L 898.385565 210.28 
L 1092.637113 210.28 
L 1092.637113 363.28 
z
" clip-path="url(#p02983c6426)" style="fill: #008bc8; opacity: 0.5"/>
   </g>
   <g id="matplotlib.axis_3">
    <g id="xtick_9">
     <g id="line2d_16">
      <g>
       <use xlink:href="#mb12c7d8764" x="121.379375" y="363.28" style="stroke: #000000; stroke-width: 0.8"/>
      </g>
     </g>
     <g id="text_13">
      <!-- 0 -->
      <g transform="translate(118.198125 377.878438) scale(0.1 -0.1)">
       <use xlink:href="#DejaVuSans-30"/>
      </g>
     </g>
    </g>
    <g id="xtick_10">
     <g id="line2d_17">
      <g>
       <use xlink:href="#mb12c7d8764" x="250.880406" y="363.28" style="stroke: #000000; stroke-width: 0.8"/>
      </g>
     </g>
     <g id="text_14">
      <!-- 20 -->
      <g transform="translate(244.517906 377.878438) scale(0.1 -0.1)">
       <use xlink:href="#DejaVuSans-32"/>
       <use xlink:href="#DejaVuSans-30" x="63.623047"/>
      </g>
     </g>
    </g>
    <g id="xtick_11">
     <g id="line2d_18">
      <g>
       <use xlink:href="#mb12c7d8764" x="380.381438" y="363.28" style="stroke: #000000; stroke-width: 0.8"/>
      </g>
     </g>
     <g id="text_15">
      <!-- 40 -->
      <g transform="translate(374.018938 377.878438) scale(0.1 -0.1)">
       <use xlink:href="#DejaVuSans-34"/>
       <use xlink:href="#DejaVuSans-30" x="63.623047"/>
      </g>
     </g>
    </g>
    <g id="xtick_12">
     <g id="line2d_19">
      <g>
       <use xlink:href="#mb12c7d8764" x="509.88247" y="363.28" style="stroke: #000000; stroke-width: 0.8"/>
      </g>
     </g>
     <g id="text_16">
      <!-- 60 -->
      <g transform="translate(503.51997 377.878438) scale(0.1 -0.1)">
       <use xlink:href="#DejaVuSans-36"/>
       <use xlink:href="#DejaVuSans-30" x="63.623047"/>
      </g>
     </g>
    </g>
    <g id="xtick_13">
     <g id="line2d_20">
      <g>
       <use xlink:href="#mb12c7d8764" x="639.383502" y="363.28" style="stroke: #000000; stroke-width: 0.8"/>
      </g>
     </g>
     <g id="text_17">
      <!-- 80 -->
      <g transform="translate(633.021002 377.878438) scale(0.1 -0.1)">
       <use xlink:href="#DejaVuSans-38"/>
       <use xlink:href="#DejaVuSans-30" x="63.623047"/>
      </g>
     </g>
    </g>
    <g id="xtick_14">
     <g id="line2d_21">
      <g>
       <use xlink:href="#mb12c7d8764" x="768.884534" y="363.28" style="stroke: #000000; stroke-width: 0.8"/>
      </g>
     </g>
     <g id="text_18">
      <!-- 100 -->
      <g transform="translate(759.340784 377.878438) scale(0.1 -0.1)">
       <use xlink:href="#DejaVuSans-31"/>
       <use xlink:href="#DejaVuSans-30" x="63.623047"/>
       <use xlink:href="#DejaVuSans-30" x="127.246094"/>
      </g>
     </g>
    </g>
    <g id="xtick_15">
     <g id="line2d_22">
      <g>
       <use xlink:href="#mb12c7d8764" x="898.385565" y="363.28" style="stroke: #000000; stroke-width: 0.8"/>
      </g>
     </g>
     <g id="text_19">
      <!-- 120 -->
      <g transform="translate(888.841815 377.878438) scale(0.1 -0.1)">
       <use xlink:href="#DejaVuSans-31"/>
       <use xlink:href="#DejaVuSans-32" x="63.623047"/>
       <use xlink:href="#DejaVuSans-30" x="127.246094"/>
      </g>
     </g>
    </g>
    <g id="xtick_16">
     <g id="line2d_23">
      <g>
       <use xlink:href="#mb12c7d8764" x="1027.886597" y="363.28" style="stroke: #000000; stroke-width: 0.8"/>
      </g>
     </g>
     <g id="text_20">
      <!-- 140 -->
      <g transform="translate(1018.342847 377.878438) scale(0.1 -0.1)">
       <use xlink:href="#DejaVuSans-31"/>
       <use xlink:href="#DejaVuSans-34" x="63.623047"/>
       <use xlink:href="#DejaVuSans-30" x="127.246094"/>
      </g>
     </g>
    </g>
   </g>
   <g id="matplotlib.axis_4">
    <g id="ytick_7">
     <g id="line2d_24">
      <defs>
       <path id="mf133168116" d="M 0 0 
L -3.5 0 
" style="stroke: #000000; stroke-width: 0.8"/>
      </defs>
      <g>
       <use xlink:href="#mf133168116" x="72.816488" y="363.28" style="stroke: #000000; stroke-width: 0.8"/>
      </g>
     </g>
     <g id="text_21">
      <!-- −1.5 -->
      <g transform="translate(41.533675 367.079219) scale(0.1 -0.1)">
       <defs>
        <path id="DejaVuSans-2e" d="M 684 794 
L 1344 794 
L 1344 0 
L 684 0 
L 684 794 
z
" transform="scale(0.015625)"/>
        <path id="DejaVuSans-35" d="M 691 4666 
L 3169 4666 
L 3169 4134 
L 1269 4134 
L 1269 2991 
Q 1406 3038 1543 3061 
Q 1681 3084 1819 3084 
Q 2600 3084 3056 2656 
Q 3513 2228 3513 1497 
Q 3513 744 3044 326 
Q 2575 -91 1722 -91 
Q 1428 -91 1123 -41 
Q 819 9 494 109 
L 494 744 
Q 775 591 1075 516 
Q 1375 441 1709 441 
Q 2250 441 2565 725 
Q 2881 1009 2881 1497 
Q 2881 1984 2565 2268 
Q 2250 2553 1709 2553 
Q 1456 2553 1204 2497 
Q 953 2441 691 2322 
L 691 4666 
z
" transform="scale(0.015625)"/>
       </defs>
       <use xlink:href="#DejaVuSans-2212"/>
       <use xlink:href="#DejaVuSans-31" x="83.789062"/>
       <use xlink:href="#DejaVuSans-2e" x="147.412109"/>
       <use xlink:href="#DejaVuSans-35" x="179.199219"/>
      </g>
     </g>
    </g>
    <g id="ytick_8">
     <g id="line2d_25">
      <g>
       <use xlink:href="#mf133168116" x="72.816488" y="337.78" style="stroke: #000000; stroke-width: 0.8"/>
      </g>
     </g>
     <g id="text_22">
      <!-- −1.0 -->
      <g transform="translate(41.533675 341.579219) scale(0.1 -0.1)">
       <use xlink:href="#DejaVuSans-2212"/>
       <use xlink:href="#DejaVuSans-31" x="83.789062"/>
       <use xlink:href="#DejaVuSans-2e" x="147.412109"/>
       <use xlink:href="#DejaVuSans-30" x="179.199219"/>
      </g>
     </g>
    </g>
    <g id="ytick_9">
     <g id="line2d_26">
      <g>
       <use xlink:href="#mf133168116" x="72.816488" y="312.28" style="stroke: #000000; stroke-width: 0.8"/>
      </g>
     </g>
     <g id="text_23">
      <!-- −0.5 -->
      <g transform="translate(41.533675 316.079219) scale(0.1 -0.1)">
       <use xlink:href="#DejaVuSans-2212"/>
       <use xlink:href="#DejaVuSans-30" x="83.789062"/>
       <use xlink:href="#DejaVuSans-2e" x="147.412109"/>
       <use xlink:href="#DejaVuSans-35" x="179.199219"/>
      </g>
     </g>
    </g>
    <g id="ytick_10">
     <g id="line2d_27">
      <g>
       <use xlink:href="#mf133168116" x="72.816488" y="286.78" style="stroke: #000000; stroke-width: 0.8"/>
      </g>
     </g>
     <g id="text_24">
      <!-- 0.0 -->
      <g transform="translate(49.913363 290.579219) scale(0.1 -0.1)">
       <use xlink:href="#DejaVuSans-30"/>
       <use xlink:href="#DejaVuSans-2e" x="63.623047"/>
       <use xlink:href="#DejaVuSans-30" x="95.410156"/>
      </g>
     </g>
    </g>
    <g id="ytick_11">
     <g id="line2d_28">
      <g>
       <use xlink:href="#mf133168116" x="72.816488" y="261.28" style="stroke: #000000; stroke-width: 0.8"/>
      </g>
     </g>
     <g id="text_25">
      <!-- 0.5 -->
      <g transform="translate(49.913363 265.079219) scale(0.1 -0.1)">
       <use xlink:href="#DejaVuSans-30"/>
       <use xlink:href="#DejaVuSans-2e" x="63.623047"/>
       <use xlink:href="#DejaVuSans-35" x="95.410156"/>
      </g>
     </g>
    </g>
    <g id="ytick_12">
     <g id="line2d_29">
      <g>
       <use xlink:href="#mf133168116" x="72.816488" y="235.78" style="stroke: #000000; stroke-width: 0.8"/>
      </g>
     </g>
     <g id="text_26">
      <!-- 1.0 -->
      <g transform="translate(49.913363 239.579219) scale(0.1 -0.1)">
       <use xlink:href="#DejaVuSans-31"/>
       <use xlink:href="#DejaVuSans-2e" x="63.623047"/>
       <use xlink:href="#DejaVuSans-30" x="95.410156"/>
      </g>
     </g>
    </g>
    <g id="ytick_13">
     <g id="line2d_30">
      <g>
       <use xlink:href="#mf133168116" x="72.816488" y="210.28" style="stroke: #000000; stroke-width: 0.8"/>
      </g>
     </g>
     <g id="text_27">
      <!-- 1.5 -->
      <g transform="translate(49.913363 214.079219) scale(0.1 -0.1)">
       <use xlink:href="#DejaVuSans-31"/>
       <use xlink:href="#DejaVuSans-2e" x="63.623047"/>
       <use xlink:href="#DejaVuSans-35" x="95.410156"/>
      </g>
     </g>
    </g>
    <g id="text_28">
     <!-- FR(zscore) -->
     <g transform="translate(35.453988 313.088594) rotate(-90) scale(0.1 -0.1)">
      <defs>
       <path id="DejaVuSans-28" d="M 1984 4856 
Q 1566 4138 1362 3434 
Q 1159 2731 1159 2009 
Q 1159 1288 1364 580 
Q 1569 -128 1984 -844 
L 1484 -844 
Q 1016 -109 783 600 
Q 550 1309 550 2009 
Q 550 2706 781 3412 
Q 1013 4119 1484 4856 
L 1984 4856 
z
" transform="scale(0.015625)"/>
       <path id="DejaVuSans-7a" d="M 353 3500 
L 3084 3500 
L 3084 2975 
L 922 459 
L 3084 459 
L 3084 0 
L 275 0 
L 275 525 
L 2438 3041 
L 353 3041 
L 353 3500 
z
" transform="scale(0.015625)"/>
       <path id="DejaVuSans-63" d="M 3122 3366 
L 3122 2828 
Q 2878 2963 2633 3030 
Q 2388 3097 2138 3097 
Q 1578 3097 1268 2742 
Q 959 2388 959 1747 
Q 959 1106 1268 751 
Q 1578 397 2138 397 
Q 2388 397 2633 464 
Q 2878 531 3122 666 
L 3122 134 
Q 2881 22 2623 -34 
Q 2366 -91 2075 -91 
Q 1284 -91 818 406 
Q 353 903 353 1747 
Q 353 2603 823 3093 
Q 1294 3584 2113 3584 
Q 2378 3584 2631 3529 
Q 2884 3475 3122 3366 
z
" transform="scale(0.015625)"/>
       <path id="DejaVuSans-6f" d="M 1959 3097 
Q 1497 3097 1228 2736 
Q 959 2375 959 1747 
Q 959 1119 1226 758 
Q 1494 397 1959 397 
Q 2419 397 2687 759 
Q 2956 1122 2956 1747 
Q 2956 2369 2687 2733 
Q 2419 3097 1959 3097 
z
M 1959 3584 
Q 2709 3584 3137 3096 
Q 3566 2609 3566 1747 
Q 3566 888 3137 398 
Q 2709 -91 1959 -91 
Q 1206 -91 779 398 
Q 353 888 353 1747 
Q 353 2609 779 3096 
Q 1206 3584 1959 3584 
z
" transform="scale(0.015625)"/>
       <path id="DejaVuSans-72" d="M 2631 2963 
Q 2534 3019 2420 3045 
Q 2306 3072 2169 3072 
Q 1681 3072 1420 2755 
Q 1159 2438 1159 1844 
L 1159 0 
L 581 0 
L 581 3500 
L 1159 3500 
L 1159 2956 
Q 1341 3275 1631 3429 
Q 1922 3584 2338 3584 
Q 2397 3584 2469 3576 
Q 2541 3569 2628 3553 
L 2631 2963 
z
" transform="scale(0.015625)"/>
       <path id="DejaVuSans-29" d="M 513 4856 
L 1013 4856 
Q 1481 4119 1714 3412 
Q 1947 2706 1947 2009 
Q 1947 1309 1714 600 
Q 1481 -109 1013 -844 
L 513 -844 
Q 928 -128 1133 580 
Q 1338 1288 1338 2009 
Q 1338 2731 1133 3434 
Q 928 4138 513 4856 
z
" transform="scale(0.015625)"/>
      </defs>
      <use xlink:href="#DejaVuSans-46"/>
      <use xlink:href="#DejaVuSans-52" x="57.519531"/>
      <use xlink:href="#DejaVuSans-28" x="127.001953"/>
      <use xlink:href="#DejaVuSans-7a" x="166.015625"/>
      <use xlink:href="#DejaVuSans-73" x="218.505859"/>
      <use xlink:href="#DejaVuSans-63" x="270.605469"/>
      <use xlink:href="#DejaVuSans-6f" x="325.585938"/>
      <use xlink:href="#DejaVuSans-72" x="386.767578"/>
      <use xlink:href="#DejaVuSans-65" x="425.630859"/>
      <use xlink:href="#DejaVuSans-29" x="487.154297"/>
     </g>
    </g>
   </g>
   <g id="line2d_31">
    <path d="M 121.379375 301.865251 
L 127.854426 299.651151 
L 134.329478 300.344089 
L 140.804529 302.016232 
L 147.279581 305.55344 
L 153.754633 304.229165 
L 160.229684 301.051721 
L 166.704736 302.65608 
L 173.179787 299.762458 
L 179.654839 302.999164 
L 186.129891 300.641583 
L 192.604942 304.903981 
L 199.079994 303.269292 
L 205.555045 305.805519 
L 212.030097 301.920231 
L 218.505149 301.467169 
L 224.9802 298.887286 
L 231.455252 302.479703 
L 237.930303 300.660456 
L 244.405355 301.260085 
L 250.880406 301.066521 
L 257.355458 295.806364 
L 263.83051 294.306487 
L 270.305561 295.219454 
L 276.780613 297.580213 
L 283.255664 301.112934 
L 289.730716 300.374048 
L 296.205768 295.421209 
L 302.680819 294.273562 
L 309.155871 292.181291 
L 315.630922 277.587209 
L 322.105974 277.932912 
L 335.056077 273.986429 
L 341.531129 274.803801 
L 354.481232 279.615509 
L 360.956283 279.879264 
L 367.431335 278.091733 
L 373.906387 279.585128 
L 380.381438 279.266727 
L 386.85649 272.625085 
L 393.331541 270.743376 
L 399.806593 271.705619 
L 406.281645 273.749494 
L 412.756696 278.598224 
L 419.231748 277.140441 
L 425.706799 277.545156 
L 432.181851 278.427211 
L 438.656903 279.703227 
L 445.131954 273.008427 
L 451.607006 278.136986 
L 458.082057 276.742544 
L 464.557109 275.187129 
L 471.03216 271.692567 
L 477.507212 279.195978 
L 483.982264 284.035864 
L 490.457315 282.495184 
L 496.932367 281.833151 
L 503.407418 283.199731 
L 509.88247 279.669088 
L 516.357522 279.879814 
L 522.832573 274.855318 
L 529.307625 280.432207 
L 535.782676 281.741994 
L 542.257728 276.334519 
L 548.73278 280.460502 
L 555.207831 281.015066 
L 561.682883 278.588005 
L 568.157934 286.276679 
L 574.632986 282.867072 
L 581.108038 281.499056 
L 587.583089 276.342376 
L 594.058141 273.780695 
L 600.533192 275.55842 
L 607.008244 273.510883 
L 613.483295 281.33578 
L 619.958347 277.899173 
L 626.433399 279.330171 
L 632.90845 276.424171 
L 639.383502 278.165596 
L 645.858553 282.259228 
L 652.333605 280.797228 
L 658.808657 282.05489 
L 665.283708 281.287225 
L 671.75876 278.51703 
L 684.708863 274.375938 
L 691.183915 278.657567 
L 697.658966 279.272008 
L 704.134018 277.232639 
L 710.609069 272.529961 
L 717.084121 281.856449 
L 723.559172 282.125852 
L 730.034224 278.823207 
L 736.509276 283.356538 
L 742.984327 283.599412 
L 749.459379 283.585197 
L 755.93443 282.789627 
L 762.409482 286.013541 
L 768.884534 282.884065 
L 775.359585 289.179251 
L 781.834637 280.665976 
L 788.309688 282.178485 
L 794.78474 280.886458 
L 801.259792 284.070346 
L 807.734843 284.064166 
L 814.209895 279.654526 
L 820.684946 278.9831 
L 833.63505 280.89844 
L 840.110101 279.921929 
L 846.585153 272.453553 
L 853.060204 272.356426 
L 859.535256 271.890207 
L 866.010307 273.844895 
L 872.485359 276.243304 
L 878.960411 267.559591 
L 885.435462 266.769572 
L 891.910514 274.457603 
L 898.385565 304.7904 
L 904.860617 304.181112 
L 911.335669 299.392367 
L 917.81072 303.47216 
L 924.285772 302.967257 
L 930.760823 301.018968 
L 937.235875 300.402267 
L 943.710927 300.209345 
L 950.185978 301.300684 
L 956.66103 300.491397 
L 963.136081 297.824666 
L 969.611133 297.80748 
L 976.086184 302.533571 
L 982.561236 301.729039 
L 989.036288 300.061404 
L 995.511339 298.021156 
L 1001.986391 300.598038 
L 1008.461442 298.509058 
L 1014.936494 295.164983 
L 1021.411546 294.91284 
L 1027.886597 295.128025 
L 1034.361649 296.915434 
L 1040.8367 298.048636 
L 1047.311752 293.782905 
L 1053.786804 294.489781 
L 1060.261855 290.957595 
L 1066.736907 289.298562 
L 1073.211958 297.162109 
L 1079.68701 296.612975 
L 1086.162061 290.263567 
L 1086.162061 290.263567 
" clip-path="url(#p02983c6426)" style="fill: none; stroke: #85ad8b; stroke-width: 1.5; stroke-linecap: square"/>
   </g>
   <g id="patch_12">
    <path d="M 72.816488 363.28 
L 72.816488 210.28 
" style="fill: none; stroke: #000000; stroke-width: 0.8; stroke-linejoin: miter; stroke-linecap: square"/>
   </g>
   <g id="patch_13">
    <path d="M 72.816488 363.28 
L 1141.2 363.28 
" style="fill: none; stroke: #000000; stroke-width: 0.8; stroke-linejoin: miter; stroke-linecap: square"/>
   </g>
  </g>
  <g id="axes_3">
   <g id="patch_14">
    <path d="M 72.816488 548.12 
L 1141.2 548.12 
L 1141.2 395.12 
L 72.816488 395.12 
z
" style="fill: #ffffff"/>
   </g>
   <g id="PolyCollection_3">
    <path d="M 121.379375 515.174211 
L 121.379375 466.948681 
L 127.854426 469.574664 
L 134.329478 491.563989 
L 140.804529 459.480724 
L 147.279581 456.637478 
L 153.754633 474.536167 
L 160.229684 477.986506 
L 166.704736 483.029781 
L 173.179787 481.08976 
L 179.654839 442.712324 
L 186.129891 500.685551 
L 192.604942 521.892156 
L 199.079994 515.240243 
L 205.555045 529.578747 
L 212.030097 500.784802 
L 218.505149 512.32869 
L 224.9802 485.814046 
L 231.455252 497.865442 
L 237.930303 475.131725 
L 244.405355 505.825174 
L 250.880406 530.877919 
L 257.355458 527.517076 
L 263.83051 524.351317 
L 270.305561 524.237592 
L 276.780613 524.941513 
L 283.255664 528.776734 
L 289.730716 533.187597 
L 296.205768 510.741215 
L 302.680819 506.086979 
L 309.155871 492.531763 
L 315.630922 327.973839 
L 322.105974 342.46477 
L 328.581026 251.402007 
L 335.056077 277.724363 
L 341.531129 270.64059 
L 348.00618 274.236269 
L 354.481232 317.291634 
L 360.956283 282.938164 
L 367.431335 243.842254 
L 373.906387 229.98953 
L 380.381438 163.307638 
L 386.85649 143.917846 
L 393.331541 84.169087 
L 399.806593 141.595254 
L 406.281645 221.638293 
L 412.756696 224.663252 
L 419.231748 206.186604 
L 425.706799 96.587604 
L 432.181851 120.099775 
L 438.656903 245.533057 
L 445.131954 203.147528 
L 451.607006 231.60334 
L 458.082057 143.382378 
L 464.557109 137.071634 
L 471.03216 112.090089 
L 477.507212 187.759735 
L 483.982264 282.826017 
L 490.457315 279.550002 
L 496.932367 255.903247 
L 503.407418 247.966588 
L 509.88247 202.290053 
L 516.357522 224.484811 
L 522.832573 237.397916 
L 529.307625 227.587291 
L 535.782676 189.88497 
L 542.257728 43.421758 
L 548.73278 236.521802 
L 555.207831 279.882494 
L 561.682883 69.801425 
L 568.157934 153.06206 
L 574.632986 184.785108 
L 581.108038 145.579657 
L 587.583089 244.741212 
L 594.058141 233.635486 
L 600.533192 211.054168 
L 607.008244 226.355282 
L 613.483295 237.608824 
L 619.958347 85.684482 
L 626.433399 80.375935 
L 632.90845 222.263963 
L 639.383502 133.815096 
L 645.858553 200.529204 
L 652.333605 85.152866 
L 658.808657 210.141832 
L 665.283708 218.665368 
L 671.75876 80.568181 
L 678.233811 102.248499 
L 684.708863 79.621497 
L 691.183915 80.397068 
L 697.658966 243.523273 
L 704.134018 99.776002 
L 710.609069 96.47999 
L 717.084121 114.120874 
L 723.559172 -174.577346 
L 730.034224 204.950492 
L 736.509276 161.160461 
L 742.984327 214.8636 
L 749.459379 289.132192 
L 755.93443 222.369759 
L 762.409482 47.589801 
L 768.884534 112.149728 
L 775.359585 218.545436 
L 781.834637 -62.482955 
L 788.309688 141.959511 
L 794.78474 31.695039 
L 801.259792 204.100308 
L 807.734843 227.046325 
L 814.209895 48.785781 
L 820.684946 115.818256 
L 827.159998 241.955736 
L 833.63505 164.266027 
L 840.110101 -117.401907 
L 846.585153 -196.746901 
L 853.060204 131.010191 
L 859.535256 33.151184 
L 866.010307 194.086674 
L 872.485359 60.171898 
L 878.960411 -373.354868 
L 885.435462 29.659914 
L 891.910514 -66.571617 
L 898.385565 423.699148 
L 904.860617 410.989238 
L 911.335669 323.500614 
L 917.81072 358.255274 
L 924.285772 460.684142 
L 930.760823 394.418925 
L 937.235875 357.826353 
L 943.710927 352.198784 
L 950.185978 414.63974 
L 956.66103 452.518385 
L 963.136081 418.881576 
L 969.611133 434.439406 
L 976.086184 479.972919 
L 982.561236 446.823241 
L 989.036288 421.036048 
L 995.511339 416.664943 
L 1001.986391 239.007468 
L 1008.461442 425.310577 
L 1014.936494 376.418215 
L 1021.411546 347.978527 
L 1027.886597 357.321344 
L 1034.361649 421.392386 
L 1040.8367 419.103081 
L 1047.311752 202.238839 
L 1053.786804 271.186072 
L 1060.261855 283.347417 
L 1066.736907 284.771265 
L 1073.211958 446.939536 
L 1079.68701 444.04983 
L 1086.162061 273.688238 
L 1086.162061 447.262101 
L 1086.162061 447.262101 
L 1079.68701 493.728963 
L 1073.211958 502.312423 
L 1066.736907 432.823515 
L 1060.261855 467.056224 
L 1053.786804 512.979441 
L 1047.311752 523.666517 
L 1040.8367 498.023046 
L 1034.361649 490.964706 
L 1027.886597 479.882146 
L 1021.411546 469.026459 
L 1014.936494 498.529182 
L 1008.461442 507.543986 
L 1001.986391 543.35249 
L 995.511339 507.496862 
L 989.036288 517.87165 
L 982.561236 510.679569 
L 976.086184 527.17949 
L 969.611133 504.289488 
L 963.136081 504.089562 
L 956.66103 513.353026 
L 950.185978 510.366446 
L 943.710927 516.966613 
L 937.235875 535.907805 
L 930.760823 505.837832 
L 924.285772 518.776231 
L 917.81072 528.391842 
L 911.335669 471.23109 
L 904.860617 498.952562 
L 898.385565 495.322844 
L 891.910514 327.22772 
L 885.435462 236.951317 
L 878.960411 324.504378 
L 872.485359 289.754044 
L 866.010307 317.023706 
L 859.535256 264.652073 
L 853.060204 281.685907 
L 846.585153 287.633207 
L 840.110101 383.458709 
L 833.63505 338.809145 
L 827.159998 351.169023 
L 820.684946 300.144465 
L 814.209895 371.434941 
L 807.734843 366.337822 
L 801.259792 338.715504 
L 794.78474 339.552021 
L 788.309688 318.712107 
L 781.834637 353.934581 
L 775.359585 378.045949 
L 768.884534 305.668883 
L 762.409482 341.738631 
L 755.93443 341.063598 
L 749.459379 368.724013 
L 742.984327 333.546575 
L 736.509276 321.143026 
L 730.034224 319.689448 
L 723.559172 460.851523 
L 717.084121 396.11819 
L 710.609069 286.053808 
L 704.134018 309.96361 
L 697.658966 348.051837 
L 691.183915 361.922368 
L 684.708863 317.318935 
L 678.233811 288.009606 
L 671.75876 332.553658 
L 665.283708 331.126426 
L 658.808657 352.366461 
L 652.333605 358.683418 
L 645.858553 360.968162 
L 639.383502 312.098006 
L 632.90845 328.214493 
L 626.433399 322.286074 
L 619.958347 339.402844 
L 613.483295 346.978178 
L 607.008244 343.892247 
L 600.533192 330.852617 
L 594.058141 338.669386 
L 587.583089 341.936749 
L 581.108038 345.116985 
L 574.632986 360.581394 
L 568.157934 368.751598 
L 561.682883 337.470541 
L 555.207831 360.626586 
L 548.73278 338.914117 
L 542.257728 321.889829 
L 535.782676 373.167865 
L 529.307625 338.869425 
L 522.832573 329.428003 
L 516.357522 343.80857 
L 509.88247 320.249601 
L 503.407418 361.321159 
L 496.932367 344.90708 
L 490.457315 358.671809 
L 483.982264 367.728855 
L 477.507212 321.284862 
L 471.03216 279.946392 
L 464.557109 300.664147 
L 458.082057 326.682568 
L 451.607006 329.096268 
L 445.131954 310.64133 
L 438.656903 336.595577 
L 432.181851 333.105353 
L 425.706799 343.405815 
L 419.231748 328.410953 
L 412.756696 333.376619 
L 406.281645 323.055248 
L 399.806593 294.266621 
L 393.331541 289.124293 
L 386.85649 315.288078 
L 380.381438 359.701032 
L 373.906387 362.306546 
L 367.431335 350.115989 
L 360.956283 375.266929 
L 354.481232 381.07813 
L 348.00618 363.4757 
L 341.531129 359.437581 
L 335.056077 355.612808 
L 328.581026 342.800231 
L 322.105974 408.353355 
L 315.630922 408.586648 
L 309.155871 506.620324 
L 302.680819 519.141861 
L 296.205768 524.046995 
L 289.730716 543.871951 
L 283.255664 541.549674 
L 276.780613 535.444572 
L 270.305561 534.396751 
L 263.83051 536.046772 
L 257.355458 538.412152 
L 250.880406 542.476385 
L 244.405355 528.788682 
L 237.930303 530.293399 
L 231.455252 524.577589 
L 224.9802 515.696156 
L 218.505149 531.463416 
L 212.030097 527.451191 
L 205.555045 544.798885 
L 199.079994 534.374777 
L 192.604942 539.092988 
L 186.129891 524.137639 
L 179.654839 523.414447 
L 173.179787 516.062798 
L 166.704736 527.243015 
L 160.229684 517.10218 
L 153.754633 528.249901 
L 147.279581 517.996824 
L 140.804529 534.059717 
L 134.329478 524.985223 
L 127.854426 514.70805 
L 121.379375 515.174211 
z
" clip-path="url(#p0c5436c247)" style="fill: #85ad8b; fill-opacity: 0.2; stroke: #85ad8b; stroke-opacity: 0.2"/>
   </g>
   <g id="patch_15">
    <path d="M 121.379375 548.12 
L 121.379375 395.12 
L 315.630922 395.12 
L 315.630922 548.12 
z
" clip-path="url(#p0c5436c247)" style="fill: #008bc8; opacity: 0.5"/>
   </g>
   <g id="patch_16">
    <path d="M 315.630922 548.12 
L 315.630922 395.12 
L 898.385565 395.12 
L 898.385565 548.12 
z
" clip-path="url(#p0c5436c247)" style="fill: #ffeeaa; opacity: 0.5"/>
   </g>
   <g id="patch_17">
    <path d="M 898.385565 548.12 
L 898.385565 395.12 
L 1092.637113 395.12 
L 1092.637113 548.12 
z
" clip-path="url(#p0c5436c247)" style="fill: #008bc8; opacity: 0.5"/>
   </g>
   <g id="matplotlib.axis_5">
    <g id="xtick_17">
     <g id="line2d_32">
      <g>
       <use xlink:href="#mb12c7d8764" x="121.379375" y="548.12" style="stroke: #000000; stroke-width: 0.8"/>
      </g>
     </g>
     <g id="text_29">
      <!-- 0 -->
      <g transform="translate(118.198125 562.718438) scale(0.1 -0.1)">
       <use xlink:href="#DejaVuSans-30"/>
      </g>
     </g>
    </g>
    <g id="xtick_18">
     <g id="line2d_33">
      <g>
       <use xlink:href="#mb12c7d8764" x="250.880406" y="548.12" style="stroke: #000000; stroke-width: 0.8"/>
      </g>
     </g>
     <g id="text_30">
      <!-- 20 -->
      <g transform="translate(244.517906 562.718438) scale(0.1 -0.1)">
       <use xlink:href="#DejaVuSans-32"/>
       <use xlink:href="#DejaVuSans-30" x="63.623047"/>
      </g>
     </g>
    </g>
    <g id="xtick_19">
     <g id="line2d_34">
      <g>
       <use xlink:href="#mb12c7d8764" x="380.381438" y="548.12" style="stroke: #000000; stroke-width: 0.8"/>
      </g>
     </g>
     <g id="text_31">
      <!-- 40 -->
      <g transform="translate(374.018938 562.718438) scale(0.1 -0.1)">
       <use xlink:href="#DejaVuSans-34"/>
       <use xlink:href="#DejaVuSans-30" x="63.623047"/>
      </g>
     </g>
    </g>
    <g id="xtick_20">
     <g id="line2d_35">
      <g>
       <use xlink:href="#mb12c7d8764" x="509.88247" y="548.12" style="stroke: #000000; stroke-width: 0.8"/>
      </g>
     </g>
     <g id="text_32">
      <!-- 60 -->
      <g transform="translate(503.51997 562.718438) scale(0.1 -0.1)">
       <use xlink:href="#DejaVuSans-36"/>
       <use xlink:href="#DejaVuSans-30" x="63.623047"/>
      </g>
     </g>
    </g>
    <g id="xtick_21">
     <g id="line2d_36">
      <g>
       <use xlink:href="#mb12c7d8764" x="639.383502" y="548.12" style="stroke: #000000; stroke-width: 0.8"/>
      </g>
     </g>
     <g id="text_33">
      <!-- 80 -->
      <g transform="translate(633.021002 562.718438) scale(0.1 -0.1)">
       <use xlink:href="#DejaVuSans-38"/>
       <use xlink:href="#DejaVuSans-30" x="63.623047"/>
      </g>
     </g>
    </g>
    <g id="xtick_22">
     <g id="line2d_37">
      <g>
       <use xlink:href="#mb12c7d8764" x="768.884534" y="548.12" style="stroke: #000000; stroke-width: 0.8"/>
      </g>
     </g>
     <g id="text_34">
      <!-- 100 -->
      <g transform="translate(759.340784 562.718438) scale(0.1 -0.1)">
       <use xlink:href="#DejaVuSans-31"/>
       <use xlink:href="#DejaVuSans-30" x="63.623047"/>
       <use xlink:href="#DejaVuSans-30" x="127.246094"/>
      </g>
     </g>
    </g>
    <g id="xtick_23">
     <g id="line2d_38">
      <g>
       <use xlink:href="#mb12c7d8764" x="898.385565" y="548.12" style="stroke: #000000; stroke-width: 0.8"/>
      </g>
     </g>
     <g id="text_35">
      <!-- 120 -->
      <g transform="translate(888.841815 562.718438) scale(0.1 -0.1)">
       <use xlink:href="#DejaVuSans-31"/>
       <use xlink:href="#DejaVuSans-32" x="63.623047"/>
       <use xlink:href="#DejaVuSans-30" x="127.246094"/>
      </g>
     </g>
    </g>
    <g id="xtick_24">
     <g id="line2d_39">
      <g>
       <use xlink:href="#mb12c7d8764" x="1027.886597" y="548.12" style="stroke: #000000; stroke-width: 0.8"/>
      </g>
     </g>
     <g id="text_36">
      <!-- 140 -->
      <g transform="translate(1018.342847 562.718438) scale(0.1 -0.1)">
       <use xlink:href="#DejaVuSans-31"/>
       <use xlink:href="#DejaVuSans-34" x="63.623047"/>
       <use xlink:href="#DejaVuSans-30" x="127.246094"/>
      </g>
     </g>
    </g>
   </g>
   <g id="matplotlib.axis_6">
    <g id="ytick_14">
     <g id="line2d_40">
      <g>
       <use xlink:href="#mf133168116" x="72.816488" y="548.12" style="stroke: #000000; stroke-width: 0.8"/>
      </g>
     </g>
     <g id="text_37">
      <!-- 75 -->
      <g transform="translate(53.091488 551.919219) scale(0.1 -0.1)">
       <defs>
        <path id="DejaVuSans-37" d="M 525 4666 
L 3525 4666 
L 3525 4397 
L 1831 0 
L 1172 0 
L 2766 4134 
L 525 4134 
L 525 4666 
z
" transform="scale(0.015625)"/>
       </defs>
       <use xlink:href="#DejaVuSans-37"/>
       <use xlink:href="#DejaVuSans-35" x="63.623047"/>
      </g>
     </g>
    </g>
    <g id="ytick_15">
     <g id="line2d_41">
      <g>
       <use xlink:href="#mf133168116" x="72.816488" y="526.262857" style="stroke: #000000; stroke-width: 0.8"/>
      </g>
     </g>
     <g id="text_38">
      <!-- 100 -->
      <g transform="translate(46.728988 530.062076) scale(0.1 -0.1)">
       <use xlink:href="#DejaVuSans-31"/>
       <use xlink:href="#DejaVuSans-30" x="63.623047"/>
       <use xlink:href="#DejaVuSans-30" x="127.246094"/>
      </g>
     </g>
    </g>
    <g id="ytick_16">
     <g id="line2d_42">
      <g>
       <use xlink:href="#mf133168116" x="72.816488" y="504.405714" style="stroke: #000000; stroke-width: 0.8"/>
      </g>
     </g>
     <g id="text_39">
      <!-- 125 -->
      <g transform="translate(46.728988 508.204933) scale(0.1 -0.1)">
       <use xlink:href="#DejaVuSans-31"/>
       <use xlink:href="#DejaVuSans-32" x="63.623047"/>
       <use xlink:href="#DejaVuSans-35" x="127.246094"/>
      </g>
     </g>
    </g>
    <g id="ytick_17">
     <g id="line2d_43">
      <g>
       <use xlink:href="#mf133168116" x="72.816488" y="482.548571" style="stroke: #000000; stroke-width: 0.8"/>
      </g>
     </g>
     <g id="text_40">
      <!-- 150 -->
      <g transform="translate(46.728988 486.34779) scale(0.1 -0.1)">
       <use xlink:href="#DejaVuSans-31"/>
       <use xlink:href="#DejaVuSans-35" x="63.623047"/>
       <use xlink:href="#DejaVuSans-30" x="127.246094"/>
      </g>
     </g>
    </g>
    <g id="ytick_18">
     <g id="line2d_44">
      <g>
       <use xlink:href="#mf133168116" x="72.816488" y="460.691429" style="stroke: #000000; stroke-width: 0.8"/>
      </g>
     </g>
     <g id="text_41">
      <!-- 175 -->
      <g transform="translate(46.728988 464.490647) scale(0.1 -0.1)">
       <use xlink:href="#DejaVuSans-31"/>
       <use xlink:href="#DejaVuSans-37" x="63.623047"/>
       <use xlink:href="#DejaVuSans-35" x="127.246094"/>
      </g>
     </g>
    </g>
    <g id="ytick_19">
     <g id="line2d_45">
      <g>
       <use xlink:href="#mf133168116" x="72.816488" y="438.834286" style="stroke: #000000; stroke-width: 0.8"/>
      </g>
     </g>
     <g id="text_42">
      <!-- 200 -->
      <g transform="translate(46.728988 442.633504) scale(0.1 -0.1)">
       <use xlink:href="#DejaVuSans-32"/>
       <use xlink:href="#DejaVuSans-30" x="63.623047"/>
       <use xlink:href="#DejaVuSans-30" x="127.246094"/>
      </g>
     </g>
    </g>
    <g id="ytick_20">
     <g id="line2d_46">
      <g>
       <use xlink:href="#mf133168116" x="72.816488" y="416.977143" style="stroke: #000000; stroke-width: 0.8"/>
      </g>
     </g>
     <g id="text_43">
      <!-- 225 -->
      <g transform="translate(46.728988 420.776362) scale(0.1 -0.1)">
       <use xlink:href="#DejaVuSans-32"/>
       <use xlink:href="#DejaVuSans-32" x="63.623047"/>
       <use xlink:href="#DejaVuSans-35" x="127.246094"/>
      </g>
     </g>
    </g>
    <g id="ytick_21">
     <g id="line2d_47">
      <g>
       <use xlink:href="#mf133168116" x="72.816488" y="395.12" style="stroke: #000000; stroke-width: 0.8"/>
      </g>
     </g>
     <g id="text_44">
      <!-- 250 -->
      <g transform="translate(46.728988 398.919219) scale(0.1 -0.1)">
       <use xlink:href="#DejaVuSans-32"/>
       <use xlink:href="#DejaVuSans-35" x="63.623047"/>
       <use xlink:href="#DejaVuSans-30" x="127.246094"/>
      </g>
     </g>
    </g>
    <g id="text_45">
     <!-- FR % Baseline -->
     <g transform="translate(40.6493 507.098125) rotate(-90) scale(0.1 -0.1)">
      <defs>
       <path id="DejaVuSans-20" transform="scale(0.015625)"/>
       <path id="DejaVuSans-25" d="M 4653 2053 
Q 4381 2053 4226 1822 
Q 4072 1591 4072 1178 
Q 4072 772 4226 539 
Q 4381 306 4653 306 
Q 4919 306 5073 539 
Q 5228 772 5228 1178 
Q 5228 1588 5073 1820 
Q 4919 2053 4653 2053 
z
M 4653 2450 
Q 5147 2450 5437 2106 
Q 5728 1763 5728 1178 
Q 5728 594 5436 251 
Q 5144 -91 4653 -91 
Q 4153 -91 3862 251 
Q 3572 594 3572 1178 
Q 3572 1766 3864 2108 
Q 4156 2450 4653 2450 
z
M 1428 4353 
Q 1159 4353 1004 4120 
Q 850 3888 850 3481 
Q 850 3069 1003 2837 
Q 1156 2606 1428 2606 
Q 1700 2606 1854 2837 
Q 2009 3069 2009 3481 
Q 2009 3884 1853 4118 
Q 1697 4353 1428 4353 
z
M 4250 4750 
L 4750 4750 
L 1831 -91 
L 1331 -91 
L 4250 4750 
z
M 1428 4750 
Q 1922 4750 2215 4408 
Q 2509 4066 2509 3481 
Q 2509 2891 2217 2550 
Q 1925 2209 1428 2209 
Q 931 2209 642 2551 
Q 353 2894 353 3481 
Q 353 4063 643 4406 
Q 934 4750 1428 4750 
z
" transform="scale(0.015625)"/>
       <path id="DejaVuSans-42" d="M 1259 2228 
L 1259 519 
L 2272 519 
Q 2781 519 3026 730 
Q 3272 941 3272 1375 
Q 3272 1813 3026 2020 
Q 2781 2228 2272 2228 
L 1259 2228 
z
M 1259 4147 
L 1259 2741 
L 2194 2741 
Q 2656 2741 2882 2914 
Q 3109 3088 3109 3444 
Q 3109 3797 2882 3972 
Q 2656 4147 2194 4147 
L 1259 4147 
z
M 628 4666 
L 2241 4666 
Q 2963 4666 3353 4366 
Q 3744 4066 3744 3513 
Q 3744 3084 3544 2831 
Q 3344 2578 2956 2516 
Q 3422 2416 3680 2098 
Q 3938 1781 3938 1306 
Q 3938 681 3513 340 
Q 3088 0 2303 0 
L 628 0 
L 628 4666 
z
" transform="scale(0.015625)"/>
       <path id="DejaVuSans-61" d="M 2194 1759 
Q 1497 1759 1228 1600 
Q 959 1441 959 1056 
Q 959 750 1161 570 
Q 1363 391 1709 391 
Q 2188 391 2477 730 
Q 2766 1069 2766 1631 
L 2766 1759 
L 2194 1759 
z
M 3341 1997 
L 3341 0 
L 2766 0 
L 2766 531 
Q 2569 213 2275 61 
Q 1981 -91 1556 -91 
Q 1019 -91 701 211 
Q 384 513 384 1019 
Q 384 1609 779 1909 
Q 1175 2209 1959 2209 
L 2766 2209 
L 2766 2266 
Q 2766 2663 2505 2880 
Q 2244 3097 1772 3097 
Q 1472 3097 1187 3025 
Q 903 2953 641 2809 
L 641 3341 
Q 956 3463 1253 3523 
Q 1550 3584 1831 3584 
Q 2591 3584 2966 3190 
Q 3341 2797 3341 1997 
z
" transform="scale(0.015625)"/>
       <path id="DejaVuSans-69" d="M 603 3500 
L 1178 3500 
L 1178 0 
L 603 0 
L 603 3500 
z
M 603 4863 
L 1178 4863 
L 1178 4134 
L 603 4134 
L 603 4863 
z
" transform="scale(0.015625)"/>
      </defs>
      <use xlink:href="#DejaVuSans-46"/>
      <use xlink:href="#DejaVuSans-52" x="57.519531"/>
      <use xlink:href="#DejaVuSans-20" x="127.001953"/>
      <use xlink:href="#DejaVuSans-25" x="158.789062"/>
      <use xlink:href="#DejaVuSans-20" x="253.808594"/>
      <use xlink:href="#DejaVuSans-42" x="285.595703"/>
      <use xlink:href="#DejaVuSans-61" x="354.199219"/>
      <use xlink:href="#DejaVuSans-73" x="415.478516"/>
      <use xlink:href="#DejaVuSans-65" x="467.578125"/>
      <use xlink:href="#DejaVuSans-6c" x="529.101562"/>
      <use xlink:href="#DejaVuSans-69" x="556.884766"/>
      <use xlink:href="#DejaVuSans-6e" x="584.667969"/>
      <use xlink:href="#DejaVuSans-65" x="648.046875"/>
     </g>
    </g>
   </g>
   <g id="line2d_48">
    <path d="M 121.379375 491.061446 
L 127.854426 492.141357 
L 134.329478 508.274606 
L 140.804529 496.77022 
L 147.279581 487.317151 
L 153.754633 501.393034 
L 160.229684 497.544343 
L 166.704736 505.136398 
L 173.179787 498.576279 
L 179.654839 483.063385 
L 186.129891 512.411595 
L 192.604942 530.492572 
L 199.079994 524.80751 
L 205.555045 537.188816 
L 212.030097 514.117997 
L 218.505149 521.896053 
L 224.9802 500.755101 
L 231.455252 511.221515 
L 237.930303 502.712562 
L 244.405355 517.306928 
L 250.880406 536.677152 
L 257.355458 532.964614 
L 263.83051 530.199044 
L 270.305561 529.317172 
L 276.780613 530.193043 
L 283.255664 535.163204 
L 289.730716 538.529774 
L 296.205768 517.394105 
L 302.680819 512.61442 
L 309.155871 499.576043 
L 315.630922 368.280243 
L 322.105974 375.409062 
L 328.581026 297.101119 
L 335.056077 316.668586 
L 341.531129 315.039086 
L 348.00618 318.855984 
L 354.481232 349.184882 
L 360.956283 329.102547 
L 367.431335 296.979122 
L 373.906387 296.148038 
L 380.381438 261.504335 
L 386.85649 229.602962 
L 393.331541 186.64669 
L 399.806593 217.930938 
L 406.281645 272.346771 
L 412.756696 279.019936 
L 419.231748 267.298779 
L 425.706799 219.99671 
L 432.181851 226.602564 
L 438.656903 291.064317 
L 445.131954 256.894429 
L 451.607006 280.349804 
L 458.082057 235.032473 
L 464.557109 218.86789 
L 471.03216 196.01824 
L 477.507212 254.522298 
L 483.982264 325.277436 
L 490.457315 319.110905 
L 496.932367 300.405164 
L 503.407418 304.643874 
L 509.88247 261.269827 
L 516.357522 284.14669 
L 522.832573 283.412959 
L 529.307625 283.228358 
L 535.782676 281.526417 
L 542.257728 182.655794 
L 548.73278 287.717959 
L 555.207831 320.25454 
L 561.682883 203.635983 
L 568.157934 260.906829 
L 574.632986 272.683251 
L 581.108038 245.348321 
L 587.583089 293.338981 
L 594.058141 286.152436 
L 600.533192 270.953392 
L 607.008244 285.123764 
L 613.483295 292.293501 
L 619.958347 212.543663 
L 626.433399 201.331004 
L 632.90845 275.239228 
L 639.383502 222.956551 
L 645.858553 280.748683 
L 652.333605 221.918142 
L 658.808657 281.254147 
L 665.283708 274.895897 
L 671.75876 206.560919 
L 678.233811 195.129053 
L 684.708863 198.470216 
L 691.183915 221.159718 
L 697.658966 295.787555 
L 704.134018 204.869806 
L 710.609069 191.266899 
L 717.084121 255.119532 
L 723.559172 143.137089 
L 730.034224 262.31997 
L 736.509276 241.151743 
L 742.984327 274.205087 
L 749.459379 328.928103 
L 755.93443 281.716679 
L 762.409482 194.664216 
L 768.884534 208.909305 
L 775.359585 298.295693 
L 781.834637 145.725813 
L 788.309688 230.335809 
L 794.78474 185.62353 
L 801.259792 271.407906 
L 807.734843 296.692073 
L 814.209895 210.110361 
L 820.684946 207.981361 
L 827.159998 296.56238 
L 833.63505 251.537586 
L 840.110101 133.028401 
L 846.585153 45.443153 
L 853.060204 206.348049 
L 859.535256 148.901628 
L 866.010307 255.55519 
L 872.485359 174.962971 
L 878.199685 -1 
M 879.922047 -1 
L 885.435462 133.305615 
L 891.910514 130.328051 
L 898.385565 459.510996 
L 904.860617 454.9709 
L 911.335669 397.365852 
L 924.285772 489.730187 
L 930.760823 450.128379 
L 937.235875 446.867079 
L 943.710927 434.582698 
L 950.185978 462.503093 
L 956.66103 482.935706 
L 963.136081 461.485569 
L 969.611133 469.364447 
L 976.086184 503.576205 
L 982.561236 478.751405 
L 989.036288 469.453849 
L 995.511339 462.080902 
L 1001.986391 391.179979 
L 1008.461442 466.427281 
L 1021.411546 408.502493 
L 1027.886597 418.601745 
L 1034.361649 456.178546 
L 1040.8367 458.563064 
L 1047.311752 362.952678 
L 1053.786804 392.082757 
L 1060.261855 375.201821 
L 1066.736907 358.79739 
L 1073.211958 474.62598 
L 1079.68701 468.889396 
L 1086.162061 360.47517 
L 1086.162061 360.47517 
" clip-path="url(#p0c5436c247)" style="fill: none; stroke: #85ad8b; stroke-width: 1.5; stroke-linecap: square"/>
   </g>
   <g id="patch_18">
    <path d="M 72.816488 548.12 
L 72.816488 395.12 
" style="fill: none; stroke: #000000; stroke-width: 0.8; stroke-linejoin: miter; stroke-linecap: square"/>
   </g>
   <g id="patch_19">
    <path d="M 72.816488 548.12 
L 1141.2 548.12 
" style="fill: none; stroke: #000000; stroke-width: 0.8; stroke-linejoin: miter; stroke-linecap: square"/>
   </g>
  </g>
 </g>
 <defs>
  <clipPath id="p387fc7feca">
   <rect x="72.816488" y="25.44" width="1068.383512" height="153"/>
  </clipPath>
  <clipPath id="p02983c6426">
   <rect x="72.816488" y="210.28" width="1068.383512" height="153"/>
  </clipPath>
  <clipPath id="p0c5436c247">
   <rect x="72.816488" y="395.12" width="1068.383512" height="153"/>
  </clipPath>
 </defs>
</svg>
